0
SECTION
2
HEADER
9
$INSUNITS
70
4
9
$ACADVER
1
AC1014
9
$HANDSEED
5
FFFF
0
ENDSEC
0
SECTION
2
TABLES
0
TABLE
2
VPORT
5
8
100
AcDbSymbolTable
0
ENDTAB
0
TABLE
2
LTYPE
5
5
100
AcDbSymbolTable
0
LTYPE
5
14
100
AcDbSymbolTableRecord
100
AcDbLinetypeTableRecord
2
BYBLOCK
70
0
0
LTYPE
5
15
100
AcDbSymbolTableRecord
100
AcDbLinetypeTableRecord
2
BYLAYER
70
0
0
ENDTAB
0
TABLE
2
LAYER
5
2
100
AcDbSymbolTable
70
2
0
LAYER
5
50
100
AcDbSymbolTableRecord
100
AcDbLayerTableRecord
2
0
70
0
6
CONTINUOUS
0
ENDTAB
0
TABLE
2
STYLE
5
3
100
AcDbSymbolTable
70
1
0
STYLE
5
11
100
AcDbSymbolTableRecord
100
AcDbTextStyleTableRecord
2
STANDARD
70
0
0
ENDTAB
0
TABLE
2
VIEW
5
6
100
AcDbSymbolTable
70
0
0
ENDTAB
0
TABLE
2
UCS
5
7
100
AcDbSymbolTable
70
0
0
ENDTAB
0
TABLE
2
APPID
5
9
100
AcDbSymbolTable
70
2
0
APPID
5
12
100
AcDbSymbolTableRecord
100
AcDbRegAppTableRecord
2
ACAD
70
0
0
ENDTAB
0
TABLE
2
DIMSTYLE
5
A
100
AcDbSymbolTable
70
1
0
ENDTAB
0
TABLE
2
BLOCK_RECORD
5
1
100
AcDbSymbolTable
70
1
0
BLOCK_RECORD
5
1F
100
AcDbSymbolTableRecord
100
AcDbBlockTableRecord
2
*MODEL_SPACE
0
BLOCK_RECORD
5
1B
100
AcDbSymbolTableRecord
100
AcDbBlockTableRecord
2
*PAPER_SPACE
0
ENDTAB
0
ENDSEC
0
SECTION
2
BLOCKS
0
BLOCK
5
20
100
AcDbEntity
100
AcDbBlockBegin
2
*MODEL_SPACE
0
ENDBLK
5
21
100
AcDbEntity
100
AcDbBlockEnd
0
BLOCK
5
1C
100
AcDbEntity
100
AcDbBlockBegin
2
*PAPER_SPACE
0
ENDBLK
5
1D
100
AcDbEntity
100
AcDbBlockEnd
0
ENDSEC
0
SECTION
2
ENTITIES
0
LWPOLYLINE
5
100
100
AcDbEntity
8
0
100
AcDbPolyline
90
6
70
1
43
0.0
10
-126.66146300000008
20
360.687297
10
-125.42737099999997
20
359.97479399999997
10
-124.19327999999979
20
360.687297
10
-124.19327999999979
20
362.11230300000005
10
-125.42737099999982
20
362.82480600000008
10
-126.66146300000008
20
362.11230300000005
0
LWPOLYLINE
5
101
100
AcDbEntity
8
0
100
AcDbPolyline
90
6
70
1
43
0.0
10
-125.42737099999982
20
21.174804000000002
10
-124.19327999999979
20
21.887307000000003
10
-124.19327999999979
20
23.312313000000003
10
-125.42737099999982
20
24.024816000000001
10
-126.66146300000008
20
23.312313000000003
10
-126.66146300000008
20
21.887307000000003
0
CIRCLE
5
102
100
AcDbEntity
8
0
100
AcDbCircle
10
-102.37736824999985
20
192.24918099999999
30
0
40
2.0000000000000284
210
0
220
0
230
1
0
CIRCLE
5
103
100
AcDbEntity
8
0
100
AcDbCircle
10
-102.37736800000008
20
46.149802999999999
30
0
40
2.0000000000000284
210
0
220
0
230
1
0
CIRCLE
5
104
100
AcDbEntity
8
0
100
AcDbCircle
10
-102.3773684999999
20
338.34855900000002
30
0
40
2.0000000000000284
210
0
220
0
230
1
0
LWPOLYLINE
5
105
100
AcDbEntity
8
0
100
AcDbPolyline
90
6
70
1
43
0.0
10
-5.177362999999815
20
248.824817
10
-6.4114550000000747
20
248.112314
10
-6.4114550000000747
20
246.68730800000006
10
-5.177362999999815
20
245.974805
10
-3.9432709999999815
20
246.68730800000006
10
-3.9432709999999815
20
248.11231400000003
0
LWPOLYLINE
5
106
100
AcDbEntity
8
0
100
AcDbPolyline
90
6
70
1
43
0.0
10
-125.42737099999982
20
248.824817
10
-126.66146300000008
20
248.112314
10
-126.66146300000008
20
246.68730800000006
10
-125.42737099999982
20
245.974805
10
-124.19327900000013
20
246.68730800000006
10
-124.19327900000013
20
248.11231400000003
0
LWPOLYLINE
5
107
100
AcDbEntity
8
0
100
AcDbPolyline
90
6
70
1
43
0.0
10
-3.9395170000000235
20
137.313614
10
-5.1773629999999571
20
138.02480499999999
10
-6.4152090000000328
20
137.313614
10
-6.4152090000000328
20
135.88601
10
-5.177362999999815
20
135.17481900000001
10
-3.9395170000000235
20
135.88601
0
LWPOLYLINE
5
108
100
AcDbEntity
8
0
100
AcDbPolyline
90
6
70
1
43
0.0
10
-6.4114539999998499
20
360.687297
10
-5.1773629999999571
20
359.97479399999997
10
-3.9432709999999815
20
360.687297
10
-3.9432709999999815
20
362.11230300000005
10
-5.177362999999815
20
362.82480600000008
10
-6.4114539999998499
20
362.11230300000005
0
LWPOLYLINE
5
109
100
AcDbEntity
8
0
100
AcDbPolyline
90
6
70
1
43
0.0
10
-125.42737099999982
20
138.02480499999999
10
-126.66521699999976
20
137.313614
10
-126.6652169999999
20
135.88601
10
-125.42737099999982
20
135.17481900000001
10
-124.18952500000003
20
135.88601
10
-124.18952500000003
20
137.313614
0
LWPOLYLINE
5
110
100
AcDbEntity
8
0
100
AcDbPolyline
90
6
70
1
43
0.0
10
-6.4114539999998499
20
23.312313000000003
10
-6.4114539999998499
20
21.887307000000003
10
-5.177362999999815
20
21.174804000000002
10
-3.9432709999999815
20
21.887307000000003
10
-3.9432709999999815
20
23.312313000000003
10
-5.177362999999815
20
24.024816000000001
0
LWPOLYLINE
5
111
100
AcDbEntity
8
0
100
AcDbPolyline
90
8
70
1
43
0.0
10
-130.42737200000005
20
21.59980400000002
10
-130.42737200000005
20
362.39980600000001
10
-126.42737199999999
20
366.39980300000002
10
-4.1773700000000247
20
366.39980300000013
10
-0.17737300000021605
20
362.39980600000001
10
-0.17737300000035816
20
21.599803999999999
10
-4.1773700000000247
20
17.599806999999998
10
-126.42737199999985
20
17.599807000000006
0
ENDSEC
0
SECTION
2
OBJECTS
0
DICTIONARY
5
C
100
AcDbDictionary
3
ACAD_GROUP
350
D
3
ACAD_MLINESTYLE
350
17
0
DICTIONARY
5
D
100
AcDbDictionary
0
DICTIONARY
5
1A
330
C
100
AcDbDictionary
0
DICTIONARY
5
17
100
AcDbDictionary
0
ENDSEC
0
EOF
