<svg id="_0" data-name="0" xmlns="http://www.w3.org/2000/svg" viewBox="0 0 369.92 989.43"><defs><style>.cls-1{fill:none;stroke:#000;stroke-linecap:round;stroke-linejoin:round;stroke-width:0.71px;}</style></defs><title>L0</title><g id="LWPOLYLINE"><polygon class="cls-1" points="11.03 16.55 14.53 18.57 18.03 16.55 18.03 12.51 14.53 10.49 11.03 12.51 11.03 16.55"/></g><g id="LWPOLYLINE-2" data-name="LWPOLYLINE"><polygon class="cls-1" points="14.53 978.95 18.03 976.92 18.03 972.89 14.53 970.87 11.03 972.89 11.03 976.92 14.53 978.95"/></g><g id="CIRCLE"><path class="cls-1" d="M1193.24,543.79a5.67,5.67,0,1,1,5.67,5.67,5.67,5.67,0,0,1-5.67-5.67h0Z" transform="translate(-1119.04 -49.78)"/></g><g id="CIRCLE-2" data-name="CIRCLE"><path class="cls-1" d="M1193.24,957.93a5.67,5.67,0,1,1,5.67,5.67,5.67,5.67,0,0,1-5.67-5.67h0Z" transform="translate(-1119.04 -49.78)"/></g><g id="CIRCLE-3" data-name="CIRCLE"><path class="cls-1" d="M1193.24,129.65a5.67,5.67,0,1,1,5.67,5.67,5.67,5.67,0,0,1-5.67-5.67h0Z" transform="translate(-1119.04 -49.78)"/></g><g id="LWPOLYLINE-3" data-name="LWPOLYLINE"><polygon class="cls-1" points="355.39 333.64 351.9 335.66 351.9 339.7 355.39 341.72 358.89 339.7 358.89 335.66 355.39 333.64"/></g><g id="LWPOLYLINE-4" data-name="LWPOLYLINE"><polygon class="cls-1" points="14.53 333.64 11.03 335.66 11.03 339.7 14.53 341.72 18.03 339.7 18.03 335.66 14.53 333.64"/></g><g id="LWPOLYLINE-5" data-name="LWPOLYLINE"><polygon class="cls-1" points="358.9 649.73 355.39 647.72 351.88 649.73 351.88 653.78 355.39 655.79 358.9 653.78 358.9 649.73"/></g><g id="LWPOLYLINE-6" data-name="LWPOLYLINE"><polygon class="cls-1" points="351.9 16.55 355.39 18.57 358.89 16.55 358.89 12.51 355.39 10.49 351.9 12.51 351.9 16.55"/></g><g id="LWPOLYLINE-7" data-name="LWPOLYLINE"><polygon class="cls-1" points="14.53 647.72 11.02 649.73 11.02 653.78 14.53 655.79 18.04 653.78 18.04 649.73 14.53 647.72"/></g><g id="LWPOLYLINE-8" data-name="LWPOLYLINE"><polygon class="cls-1" points="351.9 972.89 351.9 976.92 355.39 978.95 358.89 976.92 358.89 972.89 355.39 970.87 351.9 972.89"/></g><g id="LWPOLYLINE-9" data-name="LWPOLYLINE"><polygon class="cls-1" points="0.35 977.74 0.35 11.69 11.69 0.35 358.23 0.35 369.57 11.69 369.57 977.74 358.23 989.08 11.69 989.08 0.35 977.74"/></g></svg>