<svg id="_0" data-name="0" xmlns="http://www.w3.org/2000/svg" viewBox="0 0 369.92 989.43"><defs><style>.cls-1{fill:none;stroke:#000;stroke-linecap:round;stroke-linejoin:round;stroke-width:0.71px;}</style></defs><title>L2</title><g id="LWPOLYLINE"><polygon class="cls-1" points="351.4 12.22 351.4 16.83 355.39 19.13 359.38 16.83 359.38 12.22 355.39 9.92 351.4 12.22"/></g><g id="LWPOLYLINE-2" data-name="LWPOLYLINE"><polygon class="cls-1" points="18.52 654.06 18.52 649.45 14.53 647.15 10.54 649.45 10.54 654.06 14.53 656.36 18.52 654.06"/></g><g id="LWPOLYLINE-3" data-name="LWPOLYLINE"><polygon class="cls-1" points="351.4 335.37 351.4 339.98 355.39 342.28 359.38 339.98 359.38 335.37 355.39 333.07 351.4 335.37"/></g><g id="LWPOLYLINE-4" data-name="LWPOLYLINE"><polygon class="cls-1" points="10.54 977.21 14.53 979.51 18.52 977.21 18.52 972.6 14.53 970.3 10.54 972.6 10.54 977.21"/></g><g id="LWPOLYLINE-5" data-name="LWPOLYLINE"><polygon class="cls-1" points="355.39 970.3 351.4 972.6 351.4 977.21 355.39 979.51 359.38 977.21 359.38 972.6 355.39 970.3"/></g><g id="LWPOLYLINE-6" data-name="LWPOLYLINE"><polygon class="cls-1" points="355.39 647.15 351.4 649.45 351.4 654.06 355.39 656.36 359.38 654.06 359.38 649.45 355.39 647.15"/></g><g id="LWPOLYLINE-7" data-name="LWPOLYLINE"><polygon class="cls-1" points="24.36 972.16 27.37 973.4 294.79 973.4 297.8 972.16 299.04 969.15 299.04 763.54 299.1 762.95 355.99 495.31 355.99 494.13 299.1 226.48 299.04 225.89 299.04 18.87 297.8 15.86 294.79 14.62 27.37 14.62 24.36 15.86 23.12 18.87 23.12 476.93 20.28 479.76 8.46 479.76 6.45 480.59 5.62 482.6 5.62 506.83 6.45 508.84 8.46 509.67 20.28 509.67 23.12 512.5 23.12 969.15 24.36 972.16"/></g><g id="LWPOLYLINE-8" data-name="LWPOLYLINE"><polygon class="cls-1" points="10.54 12.22 10.54 16.83 14.53 19.13 18.52 16.83 18.52 12.22 14.53 9.92 10.54 12.22"/></g><g id="LWPOLYLINE-9" data-name="LWPOLYLINE"><polygon class="cls-1" points="10.54 339.98 14.53 342.28 18.52 339.98 18.52 335.37 14.53 333.07 10.54 335.37 10.54 339.98"/></g><g id="LWPOLYLINE-10" data-name="LWPOLYLINE"><polygon class="cls-1" points="11.69 989.08 0.35 977.74 0.35 11.69 11.69 0.35 358.23 0.35 369.57 11.69 369.57 977.74 358.23 989.08 11.69 989.08"/></g></svg>