<svg id="_0" data-name="0" xmlns="http://www.w3.org/2000/svg" viewBox="0 0 369.92 989.43"><defs><style>.cls-1{fill:none;stroke:#000;stroke-linecap:round;stroke-linejoin:round;stroke-width:0.71px;}</style></defs><title>L3</title><g id="LWPOLYLINE"><polygon class="cls-1" points="14.52 333.07 10.53 335.37 10.53 339.98 14.52 342.28 18.51 339.98 18.51 335.37 14.52 333.07"/></g><g id="LWPOLYLINE-2" data-name="LWPOLYLINE"><polygon class="cls-1" points="14.52 647.14 10.52 649.44 10.52 654.06 14.52 656.36 18.52 654.06 18.52 649.44 14.52 647.14"/></g><g id="LWPOLYLINE-3" data-name="LWPOLYLINE"><polygon class="cls-1" points="355.39 970.29 351.4 972.6 351.4 977.2 355.39 979.51 359.38 977.2 359.38 972.6 355.39 970.29"/></g><g id="LWPOLYLINE-4" data-name="LWPOLYLINE"><polygon class="cls-1" points="355.39 19.13 359.39 16.83 359.39 12.21 355.39 9.92 351.38 12.21 351.38 16.83 355.39 19.13"/></g><g id="LWPOLYLINE-5" data-name="LWPOLYLINE"><polygon class="cls-1" points="359.38 335.37 355.39 333.07 351.4 335.37 351.4 339.98 355.39 342.28 359.38 339.98 359.38 335.37"/></g><g id="LWPOLYLINE-6" data-name="LWPOLYLINE"><polygon class="cls-1" points="18.51 977.2 18.51 972.6 14.52 970.29 10.53 972.6 10.53 977.2 14.52 979.51 18.51 977.2"/></g><g id="LWPOLYLINE-7" data-name="LWPOLYLINE"><polygon class="cls-1" points="14.52 9.92 10.52 12.21 10.52 16.83 14.52 19.13 18.52 16.83 18.52 12.21 14.52 9.92"/></g><g id="LWPOLYLINE-8" data-name="LWPOLYLINE"><polygon class="cls-1" points="351.38 649.44 351.38 654.06 355.39 656.36 359.39 654.06 359.39 649.44 355.39 647.14 351.38 649.44"/></g><g id="LWPOLYLINE-9" data-name="LWPOLYLINE"><polygon class="cls-1" points="299.03 225.89 299.03 18.86 297.79 15.86 294.78 14.61 27.36 14.61 24.36 15.86 23.11 18.86 23.11 476.92 20.27 479.76 8.45 479.76 6.13 480.97 1.77 480.97 0.77 480.55 0.35 479.55 0.35 11.69 11.69 0.35 358.23 0.35 369.57 11.69 369.57 977.74 358.23 989.08 11.69 989.08 0.35 977.74 0.35 509.88 1.77 508.46 6.13 508.46 8.45 509.67 20.27 509.67 22.28 510.5 23.11 512.5 23.11 969.15 24.36 972.15 27.36 973.4 294.78 973.4 297.79 972.15 299.03 969.15 299.03 763.54 299.1 762.95 355.99 495.3 355.99 494.12 299.1 226.48 299.03 225.89"/></g></svg>