<svg id="_0" data-name="0" xmlns="http://www.w3.org/2000/svg" viewBox="0 0 369.92 989.43"><defs><style>.cls-1{fill:none;stroke:#000;stroke-linecap:round;stroke-linejoin:round;stroke-width:0.71px;}</style></defs><title>L4</title><g id="LWPOLYLINE"><polygon class="cls-1" points="123.06 915.92 121.05 915.09 87.04 915.09 85.03 915.92 84.2 917.93 84.2 951.95 87.04 954.78 121.05 954.78 123.89 951.95 123.89 917.93 123.06 915.92"/></g><g id="LWPOLYLINE-2" data-name="LWPOLYLINE"><polygon class="cls-1" points="299.96 711.2 266.69 704.13 263.33 706.31 256.25 739.58 256.65 741.72 258.44 742.95 291.71 750.02 293.84 749.62 295.07 747.83 302.14 714.56 299.96 711.2"/></g><g id="LWPOLYLINE-3" data-name="LWPOLYLINE"><polygon class="cls-1" points="201.1 21.7 198.27 24.54 198.27 58.55 201.1 61.39 235.12 61.39 237.95 58.55 237.95 24.54 235.12 21.7 201.1 21.7"/></g><g id="LWPOLYLINE-4" data-name="LWPOLYLINE"><polygon class="cls-1" points="141.04 966.32 175.05 966.32 177.89 963.48 177.89 929.47 175.05 926.63 141.04 926.63 138.2 929.47 138.2 963.48 141.04 966.32"/></g><g id="LWPOLYLINE-5" data-name="LWPOLYLINE"><polygon class="cls-1" points="198.27 132.8 201.1 135.64 235.12 135.64 237.95 132.8 237.95 98.79 235.12 95.95 201.1 95.95 198.27 98.79 198.27 132.8"/></g><g id="LWPOLYLINE-6" data-name="LWPOLYLINE"><polygon class="cls-1" points="129.95 95.97 129.95 61.95 127.12 59.12 93.1 59.12 90.27 61.95 90.27 95.97 93.1 98.8 127.12 98.8 129.95 95.97"/></g><g id="LWPOLYLINE-7" data-name="LWPOLYLINE"><polygon class="cls-1" points="256.25 276.01 263.33 309.29 264.55 311.07 266.69 311.47 299.96 304.4 301.75 303.17 302.14 301.04 295.07 267.76 291.71 265.58 258.44 272.65 256.25 276.01"/></g><g id="LWPOLYLINE-8" data-name="LWPOLYLINE"><polygon class="cls-1" points="291.95 896.53 291.95 862.51 289.12 859.68 255.1 859.68 252.27 862.51 252.27 896.53 253.1 898.53 255.1 899.36 289.12 899.36 291.12 898.53 291.95 896.53"/></g><g id="LWPOLYLINE-9" data-name="LWPOLYLINE"><polygon class="cls-1" points="33.04 218.25 30.2 221.09 30.2 255.1 31.83 257.67 33.4 259.65 37.08 276.97 34.9 280.33 32.71 283.7 73.47 475.43 74.7 477.22 76.83 477.61 124.09 467.57 127.45 469.75 131.89 490.62 135.25 492.81 168.52 485.73 170.71 482.37 169.08 474.71 169.47 472.58 171.26 471.35 232.54 458.32 234.68 458.72 235.91 460.51 240.34 481.38 241.57 483.17 243.71 483.56 276.98 476.49 278.76 475.26 279.16 473.13 275.65 456.62 277.83 453.26 330.68 442.03 332.86 438.67 329.62 423.42 328.39 421.63 326.25 421.23 324.87 421.53 323.19 420.44 314.05 377.46 315.14 375.78 316.53 375.48 318.32 374.25 318.71 372.12 315.47 356.87 312.11 354.69 259.27 365.92 255.91 363.74 237.15 275.51 237.14 274.41 237.12 273.31 235.63 266.27 236.76 263.37 237.95 261.06 237.95 173.04 235.12 170.21 186.79 170.21 183.95 167.37 183.95 157.85 181.12 155.01 132.79 155.01 129.95 152.18 129.95 129.47 129.12 127.47 127.12 126.64 93.1 126.64 91.1 127.47 90.27 129.47 90.27 162.61 89.44 164.62 87.44 165.44 39.1 165.44 36.27 168.28 36.27 215.42 35.44 217.42 33.44 218.25 33.04 218.25"/></g><g id="LWPOLYLINE-10" data-name="LWPOLYLINE"><polygon class="cls-1" points="310.8 660.15 309.71 658.47 318.85 615.49 320.53 614.4 321.91 614.69 325.27 612.51 328.52 597.26 326.33 593.9 277.81 583.58 273.49 582.67 271.7 581.44 271.31 579.3 279.16 542.47 276.98 539.11 243.71 532.03 240.34 534.22 235.91 555.06 232.55 557.25 185.28 547.2 183.15 547.59 181.92 549.38 180.29 557.05 176.93 559.23 115.64 546.21 113.86 544.98 113.46 542.85 117.9 521.97 115.71 518.61 82.44 511.54 79.08 513.72 38.33 705.45 33.19 729.61 31.73 731.53 30.2 734.05 30.2 768.06 31.03 770.07 33.04 770.9 33.44 770.9 36.27 773.73 36.27 820.9 37.1 822.9 39.1 823.73 73.12 823.73 75.12 822.9 75.95 820.9 75.95 811.38 78.79 808.54 127.12 808.54 129.27 807.55 131.43 806.56 195.44 806.56 198.27 803.72 198.27 794.23 199.1 792.22 201.1 791.39 235.12 791.39 237.95 788.56 237.95 735.65 238.16 734.6 238.3 734.13 251.51 672.17 254.87 669.99 259.25 670.92 307.77 681.24 309.9 680.84 311.13 679.05 314.37 663.8 313.98 661.67 312.19 660.44 310.8 660.15"/></g><g id="LWPOLYLINE-11" data-name="LWPOLYLINE"><polygon class="cls-1" points="147.1 841.13 144.27 843.97 144.27 891.48 147.1 894.32 181.12 894.32 183.95 891.48 183.95 843.97 181.12 841.13 147.1 841.13"/></g><g id="LWPOLYLINE-12" data-name="LWPOLYLINE"><polygon class="cls-1" points="39.1 151.13 73.12 151.13 75.32 148.93 83.04 148.93 85.88 146.1 85.88 62.48 83.04 59.64 75.32 59.64 73.12 57.44 39.1 57.44 36.91 59.64 33.44 59.64 30.6 62.48 30.6 78.07 31.43 80.07 33.44 80.9 34.85 80.9 36.27 82.32 36.27 126.25 35.85 127.26 34.85 127.67 33.44 127.67 30.6 130.51 30.6 146.1 33.44 148.93 36.91 148.93 39.1 151.13"/></g><g id="LWPOLYLINE-13" data-name="LWPOLYLINE"><polygon class="cls-1" points="292.75 972.78 298.41 967.11 292.75 961.44 267.24 961.44 261.57 967.11 267.24 972.78 292.75 972.78"/></g><g id="LWPOLYLINE-14" data-name="LWPOLYLINE"><polygon class="cls-1" points="14.53 333.07 10.54 335.37 10.54 339.98 14.53 342.28 18.52 339.98 18.52 335.37 14.53 333.07"/></g><g id="LWPOLYLINE-15" data-name="LWPOLYLINE"><polygon class="cls-1" points="359.38 654.06 359.38 649.45 355.39 647.15 351.4 649.45 351.4 654.06 355.39 656.36 359.38 654.06"/></g><g id="LWPOLYLINE-16" data-name="LWPOLYLINE"><polygon class="cls-1" points="18.52 649.45 14.53 647.15 10.54 649.45 10.54 654.06 14.53 656.36 18.52 654.06 18.52 649.45"/></g><g id="LWPOLYLINE-17" data-name="LWPOLYLINE"><polygon class="cls-1" points="359.38 16.83 359.38 12.22 355.39 9.92 351.4 12.22 351.4 16.83 355.39 19.13 359.38 16.83"/></g><g id="LWPOLYLINE-18" data-name="LWPOLYLINE"><polygon class="cls-1" points="14.53 9.92 10.54 12.22 10.54 16.83 14.53 19.13 18.52 16.83 18.52 12.22 14.53 9.92"/></g><g id="LWPOLYLINE-19" data-name="LWPOLYLINE"><polygon class="cls-1" points="359.38 339.98 359.38 335.37 355.39 333.07 351.4 335.37 351.4 339.98 355.39 342.28 359.38 339.98"/></g><g id="LWPOLYLINE-20" data-name="LWPOLYLINE"><polygon class="cls-1" points="247.88 901.09 247.88 817.47 245.04 814.63 195.44 814.63 192.6 817.47 192.6 833.06 195.44 835.89 196.85 835.89 197.85 836.31 198.27 837.31 198.27 881.25 196.85 882.67 195.44 882.67 193.43 883.5 192.6 885.5 192.6 901.09 195.44 903.93 245.04 903.93 247.88 901.09"/></g><g id="LWPOLYLINE-21" data-name="LWPOLYLINE"><polygon class="cls-1" points="355.39 979.51 359.38 977.21 359.38 972.6 355.39 970.3 351.4 972.6 351.4 977.21 355.39 979.51"/></g><g id="LWPOLYLINE-22" data-name="LWPOLYLINE"><polygon class="cls-1" points="189.62 60.9 189.62 45.31 186.79 42.48 137.18 42.48 134.35 45.31 134.35 128.93 137.18 131.77 186.79 131.77 189.62 128.93 189.62 113.34 188.79 111.34 186.79 110.51 185.37 110.51 183.95 109.09 183.95 65.15 184.37 64.15 185.37 63.74 186.79 63.74 189.62 60.9"/></g><g id="LWPOLYLINE-23" data-name="LWPOLYLINE"><polygon class="cls-1" points="18.52 972.6 14.53 970.3 10.54 972.6 10.54 977.21 14.53 979.51 18.52 977.21 18.52 972.6"/></g><g id="LWPOLYLINE-24" data-name="LWPOLYLINE"><polygon class="cls-1" points="336.06 534.5 333.88 531.14 300.61 524.07 297.24 526.25 290.17 559.52 290.57 561.65 292.35 562.88 325.63 569.96 328.99 567.77 336.06 534.5"/></g><g id="LWPOLYLINE-25" data-name="LWPOLYLINE"><polygon class="cls-1" points="90.27 839.18 90.27 873.2 93.1 876.03 127.12 876.03 129.95 873.2 129.95 839.18 127.12 836.35 93.1 836.35 90.27 839.18"/></g><g id="LWPOLYLINE-26" data-name="LWPOLYLINE"><polygon class="cls-1" points="33.04 942.99 67.05 942.99 69.89 940.15 69.89 906.14 67.05 903.3 33.04 903.3 30.2 906.14 30.2 940.15 33.04 942.99"/></g><g id="LWPOLYLINE-27" data-name="LWPOLYLINE"><polygon class="cls-1" points="37.1 876.9 39.1 877.73 73.12 877.73 75.12 876.9 75.95 874.9 75.95 840.88 73.12 838.05 39.1 838.05 36.27 840.88 36.27 874.9 37.1 876.9"/></g><g id="LWPOLYLINE-28" data-name="LWPOLYLINE"><polygon class="cls-1" points="292.09 82.49 292.09 48.47 289.26 45.64 255.24 45.64 252.41 48.47 252.41 82.49 253.24 84.49 255.24 85.32 289.26 85.32 291.26 84.49 292.09 82.49"/></g><g id="LWPOLYLINE-29" data-name="LWPOLYLINE"><polygon class="cls-1" points="0.77 508.88 1.77 508.46 30.87 508.46 31.87 508.05 32.29 507.05 32.29 482.39 30.87 480.97 1.77 480.97 0.77 480.55 0.35 479.55 0.35 11.69 11.69 0.35 358.23 0.35 369.57 11.69 369.57 977.74 358.23 989.08 11.69 989.08 0.35 977.74 0.35 509.88 0.77 508.88"/></g></svg>