<svg id="_0" data-name="0" xmlns="http://www.w3.org/2000/svg" viewBox="0 0 369.92 989.43"><defs><style>.cls-1{fill:none;stroke:#000;stroke-linecap:round;stroke-linejoin:round;stroke-width:0.71px;}</style></defs><title>L6</title><g id="LWPOLYLINE"><polygon class="cls-1" points="28.93 50.1 27.68 53.11 27.68 208.25 27.27 209.25 26.26 209.66 25.87 209.66 22.86 210.91 21.61 213.92 21.61 266.44 21.62 266.61 21.91 273.95 22 274.66 66.55 484.25 68.39 486.94 71.59 487.53 118.89 477.48 119.95 477.67 120.57 478.57 125 499.42 130.04 502.69 177.35 492.64 180.03 490.8 180.62 487.6 178.99 479.93 179.19 478.87 180.08 478.25 227.31 468.21 229 469.3 233.43 490.18 235.28 492.86 238.47 493.45 338.62 472.17 341.89 467.12 311.83 325.71 312.58 324.15 314.84 319.46 299.18 245.76 297.33 243.08 294.13 242.49 248.25 252.24 247.07 251.96 246.54 250.85 246.54 108.85 247.96 107.43 296.43 107.43 299.43 106.19 300.68 103.18 300.68 27.78 299.43 24.77 296.43 23.53 247.96 23.53 246.96 23.11 246.54 22.11 246.54 17.37 245.3 14.36 242.29 13.11 193.93 13.11 190.93 14.36 189.68 17.37 189.68 23.54 189.26 24.54 188.26 24.96 139.93 24.96 136.93 26.2 135.68 29.21 135.68 35.62 135.26 36.62 134.26 37.03 85.93 37.03 82.92 38.28 81.68 41.29 81.68 47.44 81.27 48.44 80.26 48.85 31.93 48.85 28.93 50.1"/></g><g id="LWPOLYLINE-2" data-name="LWPOLYLINE"><polygon class="cls-1" points="359.38 649.45 355.39 647.15 351.4 649.45 351.4 654.06 355.39 656.36 359.38 654.06 359.38 649.45"/></g><g id="LWPOLYLINE-3" data-name="LWPOLYLINE"><polygon class="cls-1" points="351.4 335.37 351.4 339.98 355.39 342.28 359.38 339.98 359.38 335.37 355.39 333.07 351.4 335.37"/></g><g id="LWPOLYLINE-4" data-name="LWPOLYLINE"><polygon class="cls-1" points="14.53 342.28 18.52 339.98 18.52 335.37 14.53 333.07 10.54 335.37 10.54 339.98 14.53 342.28"/></g><g id="LWPOLYLINE-5" data-name="LWPOLYLINE"><polygon class="cls-1" points="18.52 654.06 18.52 649.45 14.53 647.15 10.54 649.45 10.54 654.06 14.53 656.36 18.52 654.06"/></g><g id="LWPOLYLINE-6" data-name="LWPOLYLINE"><polygon class="cls-1" points="78.48 898.97 77.23 895.96 74.22 894.71 25.87 894.71 22.86 895.96 21.61 898.97 21.61 947.32 22.86 950.33 25.87 951.58 74.2 951.58 75.61 952.99 75.61 959.12 76.86 962.12 79.87 963.37 128.2 963.37 129.2 963.78 129.61 964.79 129.61 970.65 130.86 973.66 133.87 974.91 182.22 974.91 185.23 973.66 186.48 970.65 186.48 922.29 185.23 919.29 182.22 918.04 133.89 918.04 132.48 916.63 132.48 910.76 131.23 907.75 128.22 906.51 79.89 906.51 78.89 906.09 78.48 905.09 78.48 898.97"/></g><g id="LWPOLYLINE-7" data-name="LWPOLYLINE"><polygon class="cls-1" points="14.53 979.51 18.52 977.21 18.52 972.6 14.53 970.3 10.54 972.6 10.54 977.21 14.53 979.51"/></g><g id="LWPOLYLINE-8" data-name="LWPOLYLINE"><polygon class="cls-1" points="359.38 977.21 359.38 972.6 355.39 970.3 351.4 972.6 351.4 977.21 355.39 979.51 359.38 977.21"/></g><g id="LWPOLYLINE-9" data-name="LWPOLYLINE"><polygon class="cls-1" points="359.38 12.22 355.39 9.92 351.4 12.22 351.4 16.83 355.39 19.13 359.38 16.83 359.38 12.22"/></g><g id="LWPOLYLINE-10" data-name="LWPOLYLINE"><polygon class="cls-1" points="80.26 886.32 81.27 886.74 81.68 887.74 81.68 893.86 82.93 896.87 85.93 898.12 134.26 898.12 135.68 899.53 135.68 905.4 136.93 908.41 139.93 909.65 188.26 909.65 189.26 910.07 189.68 911.07 189.68 917.22 190.93 920.23 193.93 921.47 296.29 921.47 299.3 920.23 300.54 917.22 300.54 841.82 296.29 837.57 247.96 837.57 246.96 837.15 246.54 836.15 246.54 764.74 247.07 763.64 248.25 763.36 294.13 773.11 297.33 772.51 299.18 769.83 314.84 696.13 312.57 691.44 311.81 689.88 347.36 522.67 344.08 517.63 296.78 507.57 293.58 508.17 291.74 510.85 287.43 531.1 286.82 532 285.75 532.19 238.47 522.14 235.27 522.74 233.43 525.42 229 546.26 227.31 547.36 180.05 537.31 176.85 537.9 175 540.58 173.38 548.25 171.69 549.34 124.44 539.29 123.35 537.61 127.78 516.75 127.19 513.55 124.51 511.7 77.21 501.65 72.16 504.92 26.1 721.62 25 722.71 21.61 726.87 21.61 775.23 22.86 778.24 25.87 779.49 26.26 779.49 27.27 779.9 27.68 780.9 27.68 882.07 28.93 885.08 31.93 886.32 80.26 886.32"/></g><g id="LWPOLYLINE-11" data-name="LWPOLYLINE"><polygon class="cls-1" points="14.53 19.13 18.52 16.83 18.52 12.22 14.53 9.92 10.54 12.22 10.54 16.83 14.53 19.13"/></g><g id="LWPOLYLINE-12" data-name="LWPOLYLINE"><polygon class="cls-1" points="11.69 0.35 358.23 0.35 369.57 11.69 369.57 977.74 358.23 989.08 11.69 989.08 0.35 977.74 0.35 11.69 11.69 0.35"/></g></svg>