0
SECTION
2
HEADER
9
$INSUNITS
70
4
9
$ACADVER
1
AC1014
9
$HANDSEED
5
FFFF
0
ENDSEC
0
SECTION
2
TABLES
0
TABLE
2
VPORT
5
8
100
AcDbSymbolTable
0
ENDTAB
0
TABLE
2
LTYPE
5
5
100
AcDbSymbolTable
0
LTYPE
5
14
100
AcDbSymbolTableRecord
100
AcDbLinetypeTableRecord
2
BYBLOCK
70
0
0
LTYPE
5
15
100
AcDbSymbolTableRecord
100
AcDbLinetypeTableRecord
2
BYLAYER
70
0
0
ENDTAB
0
TABLE
2
LAYER
5
2
100
AcDbSymbolTable
70
2
0
LAYER
5
50
100
AcDbSymbolTableRecord
100
AcDbLayerTableRecord
2
0
70
0
6
CONTINUOUS
0
ENDTAB
0
TABLE
2
STYLE
5
3
100
AcDbSymbolTable
70
1
0
STYLE
5
11
100
AcDbSymbolTableRecord
100
AcDbTextStyleTableRecord
2
STANDARD
70
0
0
ENDTAB
0
TABLE
2
VIEW
5
6
100
AcDbSymbolTable
70
0
0
ENDTAB
0
TABLE
2
UCS
5
7
100
AcDbSymbolTable
70
0
0
ENDTAB
0
TABLE
2
APPID
5
9
100
AcDbSymbolTable
70
2
0
APPID
5
12
100
AcDbSymbolTableRecord
100
AcDbRegAppTableRecord
2
ACAD
70
0
0
ENDTAB
0
TABLE
2
DIMSTYLE
5
A
100
AcDbSymbolTable
70
1
0
ENDTAB
0
TABLE
2
BLOCK_RECORD
5
1
100
AcDbSymbolTable
70
1
0
BLOCK_RECORD
5
1F
100
AcDbSymbolTableRecord
100
AcDbBlockTableRecord
2
*MODEL_SPACE
0
BLOCK_RECORD
5
1B
100
AcDbSymbolTableRecord
100
AcDbBlockTableRecord
2
*PAPER_SPACE
0
ENDTAB
0
ENDSEC
0
SECTION
2
BLOCKS
0
BLOCK
5
20
100
AcDbEntity
100
AcDbBlockBegin
2
*MODEL_SPACE
0
ENDBLK
5
21
100
AcDbEntity
100
AcDbBlockEnd
0
BLOCK
5
1C
100
AcDbEntity
100
AcDbBlockBegin
2
*PAPER_SPACE
0
ENDBLK
5
1D
100
AcDbEntity
100
AcDbBlockEnd
0
ENDSEC
0
SECTION
2
ENTITIES
0
LWPOLYLINE
5
100
100
AcDbEntity
8
0
100
AcDbPolyline
90
6
70
1
43
0.0
10
247.5138682996072
20
134.26229400000005
10
248.74795449999999
20
133.54979400000005
10
249.98204070039282
20
134.26229400000005
10
249.98204070039282
20
135.68729400000001
10
248.74795449999999
20
136.39979400000001
10
247.5138682996072
20
135.68729400000001
0
LWPOLYLINE
5
101
100
AcDbEntity
8
0
100
AcDbPolyline
90
6
70
1
43
0.0
10
247.51386829960722
20
248.31231599999995
10
248.74795450000005
20
247.59981599999998
10
249.98204070039287
20
248.31231599999995
10
249.98204070039287
20
249.73731599999994
10
248.74795450000005
20
250.44981599999994
10
247.51386829960722
20
249.73731599999994
0
LWPOLYLINE
5
102
100
AcDbEntity
8
0
100
AcDbPolyline
90
6
70
1
43
0.0
10
239.35200537480924
20
21.887310000000021
10
240.58609157520206
20
21.174810000000022
10
241.82017777559486
20
21.887310000000024
10
241.82017777559486
20
23.312310000000018
10
240.58609157520206
20
24.024810000000009
10
239.35200537480924
20
23.312310000000011
0
LWPOLYLINE
5
103
100
AcDbEntity
8
0
100
AcDbPolyline
90
6
70
1
43
0.0
10
239.35200537480924
20
360.68730050000011
10
240.58609157520206
20
359.97480050000013
10
241.82017777559486
20
360.68730050000011
10
241.82017777559486
20
362.11230050000012
10
240.58609157520206
20
362.82480050000009
10
239.35200537480924
20
362.11230050000012
0
LINE
5
104
100
AcDbEntity
8
0
100
AcDbLine
10
245.58609157520203
20
101.03315350100846
30
0
11
262.85262799999998
21
182.2654399999999
31
0
0
LINE
5
105
100
AcDbEntity
8
0
100
AcDbLine
10
262.85262799999998
20
182.2654399999999
30
0
11
262.85262799999998
21
201.73417000000006
31
0
0
LINE
5
106
100
AcDbEntity
8
0
100
AcDbLine
10
262.85262799999998
20
201.73417000000006
30
0
11
245.58609157520206
21
282.96645649899153
31
0
0
LINE
5
107
100
AcDbEntity
8
0
100
AcDbLine
10
245.58609157520206
20
282.96645649899153
30
0
11
245.58609157520206
21
362.39980599999996
31
0
0
LINE
5
108
100
AcDbEntity
8
0
100
AcDbLine
10
245.58609157520206
20
362.39980599999996
30
0
11
241.58609157520203
21
366.39980400000007
31
0
0
LINE
5
109
100
AcDbEntity
8
0
100
AcDbLine
10
241.58609157520203
20
366.39980400000007
30
0
11
136.60262700000001
21
366.39980300000002
31
0
0
LINE
5
110
100
AcDbEntity
8
0
100
AcDbLine
10
136.60262700000001
20
366.39980300000002
30
0
11
132.60262699999996
21
362.39980600000001
31
0
0
LINE
5
111
100
AcDbEntity
8
0
100
AcDbLine
10
132.60262699999996
20
362.39980600000001
30
0
11
132.60262699999996
21
21.59980400000002
31
0
0
LINE
5
112
100
AcDbEntity
8
0
100
AcDbLine
10
132.60262699999996
20
21.59980400000002
30
0
11
136.60262700000015
21
17.599806999999984
31
0
0
LINE
5
113
100
AcDbEntity
8
0
100
AcDbLine
10
136.60262700000015
20
17.599806999999984
30
0
11
241.58609157520203
21
17.599806999999984
31
0
0
LINE
5
114
100
AcDbEntity
8
0
100
AcDbLine
10
241.58609407520242
20
17.599804500000829
30
0
11
245.58609157520195
21
21.599804000000017
31
0
0
LINE
5
115
100
AcDbEntity
8
0
100
AcDbLine
10
245.58609157520195
20
21.599804000000017
30
0
11
245.58609157520203
21
101.03315350100846
31
0
0
LWPOLYLINE
5
116
100
AcDbEntity
8
0
100
AcDbPolyline
90
6
70
1
43
0.0
10
137.60262800000018
20
138.02480499999999
10
136.36478200000025
20
137.313614
10
136.3647820000001
20
135.88601
10
137.60262800000018
20
135.17481900000001
10
138.84047399999997
20
135.88601
10
138.84047399999997
20
137.313614
0
LWPOLYLINE
5
117
100
AcDbEntity
8
0
100
AcDbPolyline
90
6
70
1
43
0.0
10
137.60262800000018
20
248.82481699999997
10
136.36853599999992
20
248.11231399999997
10
136.36853599999992
20
246.68730800000003
10
137.60262800000018
20
245.97480499999995
10
138.83671999999987
20
246.68730800000003
10
138.83671999999987
20
248.112314
0
CIRCLE
5
118
100
AcDbEntity
8
0
100
AcDbCircle
10
160.65263050000013
20
338.34855900000002
30
0
40
2.0000000000000284
210
0
220
0
230
1
0
CIRCLE
5
119
100
AcDbEntity
8
0
100
AcDbCircle
10
160.65263099999996
20
46.149802999999977
30
0
40
2.0000000000000284
210
0
220
0
230
1
0
CIRCLE
5
120
100
AcDbEntity
8
0
100
AcDbCircle
10
160.65263075000018
20
192.24918099999996
30
0
40
2.0000000000000284
210
0
220
0
230
1
0
LWPOLYLINE
5
121
100
AcDbEntity
8
0
100
AcDbPolyline
90
6
70
1
43
0.0
10
137.60262800000018
20
21.17480399999998
10
138.83671900000022
20
21.887306999999979
10
138.83671900000022
20
23.312312999999982
10
137.60262800000018
20
24.02481599999998
10
136.36853599999992
20
23.312312999999982
10
136.36853599999992
20
21.887306999999979
0
LWPOLYLINE
5
122
100
AcDbEntity
8
0
100
AcDbPolyline
90
6
70
1
43
0.0
10
136.36853599999992
20
360.687297
10
137.60262800000004
20
359.97479399999997
10
138.83671900000022
20
360.687297
10
138.83671900000022
20
362.11230300000005
10
137.60262800000018
20
362.82480600000008
10
136.36853599999992
20
362.11230300000005
0
ENDSEC
0
SECTION
2
OBJECTS
0
DICTIONARY
5
C
100
AcDbDictionary
3
ACAD_GROUP
350
D
3
ACAD_MLINESTYLE
350
17
0
DICTIONARY
5
D
100
AcDbDictionary
0
DICTIONARY
5
1A
330
C
100
AcDbDictionary
0
DICTIONARY
5
17
100
AcDbDictionary
0
ENDSEC
0
EOF
