<?xml version="1.0" encoding="UTF-8" standalone="no"?>
<!-- Created with Inkscape (http://www.inkscape.org/) -->

<svg
   xmlns:dc="http://purl.org/dc/elements/1.1/"
   xmlns:cc="http://creativecommons.org/ns#"
   xmlns:rdf="http://www.w3.org/1999/02/22-rdf-syntax-ns#"
   xmlns:svg="http://www.w3.org/2000/svg"
   xmlns="http://www.w3.org/2000/svg"
   xmlns:sodipodi="http://sodipodi.sourceforge.net/DTD/sodipodi-0.dtd"
   xmlns:inkscape="http://www.inkscape.org/namespaces/inkscape"
   width="210mm"
   height="297mm"
   viewBox="0 0 210 297"
   version="1.1"
   id="svg8"
   inkscape:version="0.92.4 (5da689c313, 2019-01-14)"
   sodipodi:docname="L0.svg">
  <defs
     id="defs2">
    <marker
       style="overflow:visible"
       refY="0.0"
       refX="0.0"
       orient="auto"
       id="DistanceX">
      <path
         id="path12"
         style="stroke:#000000; stroke-width:0.5"
         d="M 3,-3 L -3,3 M 0,-5 L  0,5" />
    </marker>
    <pattern
       y="0"
       x="0"
       width="8"
       patternUnits="userSpaceOnUse"
       id="Hatch"
       height="8">
      <path
         id="path15"
         stroke-width="0.25"
         stroke="#000000"
         linecap="square"
         d="M8 4 l-4,4" />
      <path
         id="path17"
         stroke-width="0.25"
         stroke="#000000"
         linecap="square"
         d="M6 2 l-4,4" />
      <path
         id="path19"
         stroke-width="0.25"
         stroke="#000000"
         linecap="square"
         d="M4 0 l-4,4" />
    </pattern>
    <symbol
       id="*MODEL_SPACE" />
    <symbol
       id="*PAPER_SPACE" />
  </defs>
  <sodipodi:namedview
     id="base"
     pagecolor="#ffffff"
     bordercolor="#666666"
     borderopacity="1.0"
     inkscape:pageopacity="0.0"
     inkscape:pageshadow="2"
     inkscape:zoom="0.35"
     inkscape:cx="400"
     inkscape:cy="560"
     inkscape:document-units="mm"
     inkscape:current-layer="layer1"
     showgrid="false"
     inkscape:window-width="2560"
     inkscape:window-height="1361"
     inkscape:window-x="2551"
     inkscape:window-y="-9"
     inkscape:window-maximized="1" />
  <metadata
     id="metadata5">
    <rdf:RDF>
      <cc:Work
         rdf:about="">
        <dc:format>image/svg+xml</dc:format>
        <dc:type
           rdf:resource="http://purl.org/dc/dcmitype/StillImage" />
        <dc:title></dc:title>
      </cc:Work>
    </rdf:RDF>
  </metadata>
  <g
     inkscape:label="Layer 1"
     inkscape:groupmode="layer"
     id="layer1">
    <g
       id="g72"
       inkscape:label="0"
       transform="matrix(0,0.26458333,-0.26458333,0,211.58947,-46.626434)">
      <path
         id="path26"
         style="fill:none;stroke:#000000"
         d="m 935.48549,615.07164 4.66426,2.69292 4.66426,-2.69292 v -5.38582 l -4.66426,-2.69292 -4.66426,2.69292 z"
         inkscape:connector-curvature="0" />
      <path
         id="path28"
         style="fill:none;stroke:#000000"
         d="m 935.48549,184.01644 4.66426,2.69292 4.66426,-2.69292 v -5.38582 l -4.66426,-2.69292 -4.66426,2.69292 z"
         inkscape:connector-curvature="0" />
      <path
         id="path30"
         style="fill:none;stroke:#000000"
         d="m 904.6375,1039.796 4.66426,2.6929 4.66427,-2.6929 v -5.3858 l -4.66427,-2.6929 -4.66426,2.6929 z"
         inkscape:connector-curvature="0" />
      <path
         id="path32"
         style="fill:none;stroke:#000000"
         d="m 904.6375,-240.70791 4.66426,2.69292 4.66427,-2.69292 v -5.38582 l -4.66427,-2.69292 -4.66426,2.69292 z"
         inkscape:connector-curvature="0" />
      <path
         id="path34"
         style="fill:none;stroke:#000000"
         d="M 928.1994,740.6621 993.45875,433.64243"
         inkscape:connector-curvature="0" />
      <path
         id="path36"
         style="fill:none;stroke:#000000"
         d="m 993.45875,433.64243 v -73.5826"
         inkscape:connector-curvature="0" />
      <path
         id="path38"
         style="fill:none;stroke:#000000"
         d="M 993.45875,360.05983 928.1994,53.040164"
         inkscape:connector-curvature="0" />
      <path
         id="path40"
         style="fill:none;stroke:#000000"
         d="M 928.1994,53.040164 V -247.18037"
         inkscape:connector-curvature="0" />
      <path
         id="path42"
         style="fill:none;stroke:#000000"
         d="m 928.1994,-247.18037 -15.11811,-15.1181"
         inkscape:connector-curvature="0" />
      <path
         id="path44"
         style="fill:none;stroke:#000000"
         d="M 913.08129,-262.29847 H 516.29339"
         inkscape:connector-curvature="0" />
      <path
         id="path46"
         style="fill:none;stroke:#000000"
         d="m 516.29339,-262.29847 -15.11811,15.1181"
         inkscape:connector-curvature="0" />
      <path
         id="path48"
         style="fill:none;stroke:#000000"
         d="M 501.17528,-247.18037 V 1040.8826"
         inkscape:connector-curvature="0" />
      <path
         id="path50"
         style="fill:none;stroke:#000000"
         d="m 501.17528,1040.8826 15.11811,15.1181"
         inkscape:connector-curvature="0" />
      <path
         id="path52"
         style="fill:none;stroke:#000000"
         d="m 516.29339,1056.0007 h 396.7879"
         inkscape:connector-curvature="0" />
      <path
         id="path54"
         style="fill:none;stroke:#000000"
         d="m 913.0813,1056.0007 15.1181,-15.1181"
         inkscape:connector-curvature="0" />
      <path
         id="path56"
         style="fill:none;stroke:#000000"
         d="M 928.1994,1040.8826 V 740.6621"
         inkscape:connector-curvature="0" />
      <path
         id="path58"
         style="fill:none;stroke:#000000"
         d="m 520.07293,600.85113 -4.67848,2.68797 v 5.39566 l 4.67848,2.68797 4.67847,-2.68797 v -5.39566 z"
         inkscape:connector-curvature="0" />
      <path
         id="path60"
         style="fill:none;stroke:#000000"
         d="m 520.07293,182.07943 -4.66429,2.69293 v 5.38585 l 4.66429,2.69292 4.66428,-2.69292 v -5.38585 z"
         inkscape:connector-curvature="0" />
      <path
         id="path62"
         style="fill:none;stroke:#000000"
         d="m 614.7501,-156.27802 a 7.5590555,7.5590555 0 1 0 -15.11811,0 7.5590555,7.5590555 0 1 0 15.11811,0 z"
         inkscape:connector-curvature="0" />
      <path
         id="path64"
         style="fill:none;stroke:#000000"
         d="m 614.7501,948.09523 a 7.559055,7.559055 0 1 0 -15.11811,0 7.559055,7.559055 0 1 0 15.11811,0 z"
         inkscape:connector-curvature="0" />
      <path
         id="path66"
         style="fill:none;stroke:#000000"
         d="m 614.7501,395.90861 a 7.559055,7.559055 0 1 0 -15.11811,0 7.559055,7.559055 0 1 0 15.11811,0 z"
         inkscape:connector-curvature="0" />
      <path
         id="path68"
         style="fill:none;stroke:#000000"
         d="m 520.07293,1042.4889 4.66428,-2.6929 v -5.3858 l -4.66428,-2.693 -4.66429,2.693 v 5.3858 z"
         inkscape:connector-curvature="0" />
      <path
         id="path70"
         style="fill:none;stroke:#000000"
         d="m 515.40864,-240.70789 4.66429,2.69292 4.66428,-2.69292 v -5.38585 l -4.66428,-2.69293 -4.66429,2.69293 z"
         inkscape:connector-curvature="0" />
    </g>
  </g>
</svg>
