0
SECTION
2
HEADER
9
$INSUNITS
70
4
9
$ACADVER
1
AC1014
9
$HANDSEED
5
FFFF
0
ENDSEC
0
SECTION
2
TABLES
0
TABLE
2
VPORT
5
8
100
AcDbSymbolTable
0
ENDTAB
0
TABLE
2
LTYPE
5
5
100
AcDbSymbolTable
0
LTYPE
5
14
100
AcDbSymbolTableRecord
100
AcDbLinetypeTableRecord
2
BYBLOCK
70
0
0
LTYPE
5
15
100
AcDbSymbolTableRecord
100
AcDbLinetypeTableRecord
2
BYLAYER
70
0
0
ENDTAB
0
TABLE
2
LAYER
5
2
100
AcDbSymbolTable
70
2
0
LAYER
5
50
100
AcDbSymbolTableRecord
100
AcDbLayerTableRecord
2
0
70
0
6
CONTINUOUS
0
ENDTAB
0
TABLE
2
STYLE
5
3
100
AcDbSymbolTable
70
1
0
STYLE
5
11
100
AcDbSymbolTableRecord
100
AcDbTextStyleTableRecord
2
STANDARD
70
0
0
ENDTAB
0
TABLE
2
VIEW
5
6
100
AcDbSymbolTable
70
0
0
ENDTAB
0
TABLE
2
UCS
5
7
100
AcDbSymbolTable
70
0
0
ENDTAB
0
TABLE
2
APPID
5
9
100
AcDbSymbolTable
70
2
0
APPID
5
12
100
AcDbSymbolTableRecord
100
AcDbRegAppTableRecord
2
ACAD
70
0
0
ENDTAB
0
TABLE
2
DIMSTYLE
5
A
100
AcDbSymbolTable
70
1
0
ENDTAB
0
TABLE
2
BLOCK_RECORD
5
1
100
AcDbSymbolTable
70
1
0
BLOCK_RECORD
5
1F
100
AcDbSymbolTableRecord
100
AcDbBlockTableRecord
2
*MODEL_SPACE
0
BLOCK_RECORD
5
1B
100
AcDbSymbolTableRecord
100
AcDbBlockTableRecord
2
*PAPER_SPACE
0
ENDTAB
0
ENDSEC
0
SECTION
2
BLOCKS
0
BLOCK
5
20
100
AcDbEntity
100
AcDbBlockBegin
2
*MODEL_SPACE
0
ENDBLK
5
21
100
AcDbEntity
100
AcDbBlockEnd
0
BLOCK
5
1C
100
AcDbEntity
100
AcDbBlockBegin
2
*PAPER_SPACE
0
ENDBLK
5
1D
100
AcDbEntity
100
AcDbBlockEnd
0
ENDSEC
0
SECTION
2
ENTITIES
0
LWPOLYLINE
5
100
100
AcDbEntity
8
0
100
AcDbPolyline
90
6
70
1
43
0.0
10
250.15524578114974
20
249.83731599999993
10
248.74795450000005
20
250.64981599999993
10
247.34066321885035
20
249.83731599999993
10
247.34066321885035
20
248.21231599999993
10
248.74795450000005
20
247.39981599999993
10
250.15524578114974
20
248.21231599999999
0
LWPOLYLINE
5
101
100
AcDbEntity
8
0
100
AcDbPolyline
90
6
70
1
43
0.0
10
248.74795449999999
20
136.59979400000003
10
247.3406632188503
20
135.78729400000003
10
247.3406632188503
20
134.16229400000003
10
248.74795449999999
20
133.34979400000006
10
250.15524578114969
20
134.16229400000003
10
250.15524578114969
20
135.78729400000003
0
LWPOLYLINE
5
102
100
AcDbEntity
8
0
100
AcDbPolyline
90
6
70
1
43
0.0
10
239.17879557520206
20
360.58729800000015
10
240.58609157520206
20
359.77479600000009
10
241.99338657520204
20
360.58729800000009
10
241.99338657520204
20
362.21230300000008
10
240.58609157520206
20
363.02480500000013
10
239.17879557520206
20
362.21230300000008
0
LWPOLYLINE
5
103
100
AcDbEntity
8
0
100
AcDbPolyline
90
6
70
1
43
0.0
10
241.99338657520204
20
21.787308000000017
10
241.99338657520204
20
23.412312000000025
10
240.58609157520206
20
24.224815000000017
10
239.17879557520206
20
23.412312000000025
10
239.17879557520206
20
21.787308000000017
10
240.58609157520206
20
20.974805000000018
0
LWPOLYLINE
5
104
100
AcDbEntity
8
0
100
AcDbPolyline
90
6
70
1
43
0.0
10
137.60262499999982
20
134.974794
10
139.00992099999982
20
135.787296
10
139.00992099999982
20
137.41230100000001
10
137.60262499999982
20
138.22480300000001
10
136.1953299999999
20
137.41230100000001
10
136.1953299999999
20
135.787296
0
LWPOLYLINE
5
105
100
AcDbEntity
8
0
100
AcDbPolyline
90
18
70
1
43
0.0
10
140.63262599999973
20
359.86856400000011
10
140.63262599999973
20
24.629812000000001
10
141.07196499999986
20
23.569151000000002
10
142.13262499999985
20
23.129810000000003
10
236.47262500000011
20
23.129810000000006
10
237.53328799999963
20
23.569150000000004
10
237.97262799999999
20
24.629811999999998
10
237.97262799999999
20
97.164645000000007
10
237.994482
20
97.37255500000002
10
258.06393200000002
20
191.79189500000004
10
258.06393200000002
20
192.20771400000004
10
237.994482
20
286.6270550000001
10
237.97262799999999
20
286.83496500000001
10
237.97262799999999
20
359.86856399999999
10
237.53328799999963
20
360.92922600000003
10
236.47262500000011
20
361.36856599999999
10
142.13262499999985
20
361.36856599999999
10
141.07196499999986
20
360.92922499999997
0
LWPOLYLINE
5
106
100
AcDbEntity
8
0
100
AcDbPolyline
90
6
70
1
43
0.0
10
136.1953299999999
20
23.412312
10
136.1953299999999
20
21.787307000000009
10
137.60262499999982
20
20.974805
10
139.00992099999982
20
21.787307000000009
10
139.00992099999982
20
23.412312
10
137.60262499999982
20
24.224814000000009
0
LWPOLYLINE
5
107
100
AcDbEntity
8
0
100
AcDbPolyline
90
6
70
1
43
0.0
10
136.1953299999999
20
362.21230200000002
10
136.1953299999999
20
360.58729800000003
10
137.60262499999982
20
359.77479500000015
10
139.00992099999982
20
360.58729800000003
10
139.00992099999982
20
362.21230200000002
10
137.60262499999982
20
363.02480500000001
0
LWPOLYLINE
5
108
100
AcDbEntity
8
0
100
AcDbPolyline
90
6
70
1
43
0.0
10
139.00992099999982
20
248.21231299999999
10
137.60262499999982
20
249.02481600000002
10
136.1953299999999
20
248.21231299999999
10
136.1953299999999
20
246.587309
10
137.60262499999982
20
245.77480600000001
10
139.00992099999982
20
246.587309
0
LINE
5
109
100
AcDbEntity
8
0
100
AcDbLine
10
241.58609407520245
20
17.599804500000843
30
0
11
245.58609157520195
21
21.599804000000017
31
0
0
LINE
5
110
100
AcDbEntity
8
0
100
AcDbLine
10
245.58609157520195
20
21.599804000000017
30
0
11
245.58609157520203
21
101.03315350100846
31
0
0
LINE
5
111
100
AcDbEntity
8
0
100
AcDbLine
10
245.58609157520203
20
101.03315350100846
30
0
11
262.85262799999998
21
182.2654399999999
31
0
0
LINE
5
112
100
AcDbEntity
8
0
100
AcDbLine
10
262.85262799999998
20
182.2654399999999
30
0
11
262.8526260000001
21
201.73417940921564
31
0
0
LINE
5
113
100
AcDbEntity
8
0
100
AcDbLine
10
262.8526260000001
20
201.73417940921564
30
0
11
245.58609157520206
21
282.96645649899153
31
0
0
LINE
5
114
100
AcDbEntity
8
0
100
AcDbLine
10
245.58609157520206
20
282.96645649899153
30
0
11
245.58609157520206
21
362.39980599999996
31
0
0
LINE
5
115
100
AcDbEntity
8
0
100
AcDbLine
10
245.58609157520206
20
362.39980599999996
30
0
11
241.58609157520203
21
366.39980400000007
31
0
0
LINE
5
116
100
AcDbEntity
8
0
100
AcDbLine
10
241.58609157520203
20
366.39980400000007
30
0
11
136.60262700000004
21
366.39980299999996
31
0
0
LINE
5
117
100
AcDbEntity
8
0
100
AcDbLine
10
136.60262700000004
20
366.39980299999996
30
0
11
132.60262699999998
21
362.39980600000001
31
0
0
LINE
5
118
100
AcDbEntity
8
0
100
AcDbLine
10
132.60262699999998
20
362.39980600000001
30
0
11
132.60262699999998
21
21.59980400000002
31
0
0
LINE
5
119
100
AcDbEntity
8
0
100
AcDbLine
10
132.60262699999998
20
21.59980400000002
30
0
11
136.60262700000004
21
17.599807000000006
31
0
0
LINE
5
120
100
AcDbEntity
8
0
100
AcDbLine
10
136.60262700000004
20
17.599807000000006
30
0
11
241.58609157520203
21
17.599807000000006
31
0
0
ENDSEC
0
SECTION
2
OBJECTS
0
DICTIONARY
5
C
100
AcDbDictionary
3
ACAD_GROUP
350
D
3
ACAD_MLINESTYLE
350
17
0
DICTIONARY
5
D
100
AcDbDictionary
0
DICTIONARY
5
1A
330
C
100
AcDbDictionary
0
DICTIONARY
5
17
100
AcDbDictionary
0
ENDSEC
0
EOF
