<?xml version="1.0" encoding="UTF-8" standalone="no"?>
<!-- Created with Inkscape (http://www.inkscape.org/) -->

<svg
   xmlns:dc="http://purl.org/dc/elements/1.1/"
   xmlns:cc="http://creativecommons.org/ns#"
   xmlns:rdf="http://www.w3.org/1999/02/22-rdf-syntax-ns#"
   xmlns:svg="http://www.w3.org/2000/svg"
   xmlns="http://www.w3.org/2000/svg"
   xmlns:sodipodi="http://sodipodi.sourceforge.net/DTD/sodipodi-0.dtd"
   xmlns:inkscape="http://www.inkscape.org/namespaces/inkscape"
   width="210mm"
   height="297mm"
   viewBox="0 0 210 297"
   version="1.1"
   id="svg8"
   inkscape:version="0.92.4 (5da689c313, 2019-01-14)"
   sodipodi:docname="L1.svg">
  <defs
     id="defs2">
    <marker
       style="overflow:visible"
       refY="0.0"
       refX="0.0"
       orient="auto"
       id="DistanceX">
      <path
         id="path12"
         style="stroke:#000000; stroke-width:0.5"
         d="M 3,-3 L -3,3 M 0,-5 L  0,5" />
    </marker>
    <pattern
       y="0"
       x="0"
       width="8"
       patternUnits="userSpaceOnUse"
       id="Hatch"
       height="8">
      <path
         id="path15"
         stroke-width="0.25"
         stroke="#000000"
         linecap="square"
         d="M8 4 l-4,4" />
      <path
         id="path17"
         stroke-width="0.25"
         stroke="#000000"
         linecap="square"
         d="M6 2 l-4,4" />
      <path
         id="path19"
         stroke-width="0.25"
         stroke="#000000"
         linecap="square"
         d="M4 0 l-4,4" />
    </pattern>
    <symbol
       id="*MODEL_SPACE" />
    <symbol
       id="*PAPER_SPACE" />
    <marker
       style="overflow:visible"
       refY="0.0"
       refX="0.0"
       orient="auto"
       id="DistanceX-8">
      <path
         id="path114"
         style="stroke:#000000; stroke-width:0.5"
         d="M 3,-3 L -3,3 M 0,-5 L  0,5" />
    </marker>
    <pattern
       y="0"
       x="0"
       width="8"
       patternUnits="userSpaceOnUse"
       id="Hatch-1"
       height="8">
      <path
         id="path117"
         stroke-width="0.25"
         stroke="#000000"
         linecap="square"
         d="M8 4 l-4,4" />
      <path
         id="path119"
         stroke-width="0.25"
         stroke="#000000"
         linecap="square"
         d="M6 2 l-4,4" />
      <path
         id="path121"
         stroke-width="0.25"
         stroke="#000000"
         linecap="square"
         d="M4 0 l-4,4" />
    </pattern>
    <symbol
       id="*MODEL_SPACE-7" />
    <symbol
       id="*PAPER_SPACE-3" />
  </defs>
  <sodipodi:namedview
     id="base"
     pagecolor="#ffffff"
     bordercolor="#666666"
     borderopacity="1.0"
     inkscape:pageopacity="0.0"
     inkscape:pageshadow="2"
     inkscape:zoom="0.35"
     inkscape:cx="1018.5714"
     inkscape:cy="771.42857"
     inkscape:document-units="mm"
     inkscape:current-layer="layer1"
     showgrid="false"
     inkscape:window-width="2560"
     inkscape:window-height="1361"
     inkscape:window-x="2551"
     inkscape:window-y="-9"
     inkscape:window-maximized="1" />
  <metadata
     id="metadata5">
    <rdf:RDF>
      <cc:Work
         rdf:about="">
        <dc:format>image/svg+xml</dc:format>
        <dc:type
           rdf:resource="http://purl.org/dc/dcmitype/StillImage" />
        <dc:title></dc:title>
      </cc:Work>
    </rdf:RDF>
  </metadata>
  <g
     inkscape:label="Layer 1"
     inkscape:groupmode="layer"
     id="layer1">
    <g
       id="g170"
       inkscape:label="0"
       transform="matrix(0,0.26458333,-0.26458333,0,222.92876,-45.870485)">
      <path
         id="path128"
         style="fill:none;stroke:#000000"
         d="m 945.46865,178.25266 -5.3189,-3.07086 -5.3189,3.07086 v 6.14174 l 5.3189,3.07086 5.3189,-3.07086 z"
         inkscape:connector-curvature="0" />
      <path
         id="path130"
         style="fill:none;stroke:#000000"
         d="m 940.14975,606.237 -5.3189,3.07086 v 6.14174 l 5.3189,3.07086 5.3189,-3.07086 v -6.14174 z"
         inkscape:connector-curvature="0" />
      <path
         id="path132"
         style="fill:none;stroke:#000000"
         d="m 903.98285,-240.32994 5.31891,3.07087 5.31891,-3.07087 v -6.14176 l -5.31891,-3.07087 -5.31891,3.07087 z"
         inkscape:connector-curvature="0" />
      <path
         id="path134"
         style="fill:none;stroke:#000000"
         d="m 914.62067,1040.174 v -6.1418 l -5.31891,-3.0709 -5.31891,3.0709 v 6.1418 l 5.31891,3.0708 z"
         inkscape:connector-curvature="0" />
      <path
         id="path136"
         style="fill:none;stroke:#000000"
         d="m 520.07291,612.37873 5.31892,-3.07087 v -6.14175 l -5.31892,-3.07088 -5.31891,3.07088 v 6.14175 z"
         inkscape:connector-curvature="0" />
      <path
         id="path138"
         style="fill:none;stroke:#000000"
         d="M 531.52489,-237.61347 V 1029.4306 l 1.66049,4.0088 4.00879,1.6605 H 893.7548 l 4.00881,-1.6605 1.6605,-4.0088 V 755.28323 l 0.0826,-0.7858 75.85304,-356.8605 v -1.5716 L 899.5067,39.204831 899.42411,38.41903 v -276.0325 l -1.6605,-4.0088 -4.00881,-1.6605 H 537.19417 l -4.00879,1.6605 z"
         inkscape:connector-curvature="0" />
      <path
         id="path140"
         style="fill:none;stroke:#000000"
         d="m 514.754,1034.0322 v 6.1418 l 5.31891,3.0708 5.31892,-3.0708 v -6.1418 l -5.31892,-3.0709 z"
         inkscape:connector-curvature="0" />
      <path
         id="path142"
         style="fill:none;stroke:#000000"
         d="m 514.754,-246.47169 v 6.14175 l 5.31891,3.07087 5.31892,-3.07087 v -6.14175 l -5.31892,-3.07088 z"
         inkscape:connector-curvature="0" />
      <path
         id="path144"
         style="fill:none;stroke:#000000"
         d="m 525.39183,184.39441 -5.31892,-3.07088 -5.31891,3.07088 v 6.14174 l 5.31891,3.07088 5.31892,-3.07088 z"
         inkscape:connector-curvature="0" />
      <path
         id="path146"
         style="fill:none;stroke:#000000"
         d="m 913.0813,1056.0007 15.1181,-15.1181"
         inkscape:connector-curvature="0" />
      <path
         id="path148"
         style="fill:none;stroke:#000000"
         d="M 928.1994,1040.8826 V 740.6621"
         inkscape:connector-curvature="0" />
      <path
         id="path150"
         style="fill:none;stroke:#000000"
         d="M 928.1994,740.6621 993.45875,433.64243"
         inkscape:connector-curvature="0" />
      <path
         id="path152"
         style="fill:none;stroke:#000000"
         d="m 993.45875,433.64243 -10e-6,-73.58264"
         inkscape:connector-curvature="0" />
      <path
         id="path154"
         style="fill:none;stroke:#000000"
         d="M 993.45874,360.05979 928.1994,53.040164"
         inkscape:connector-curvature="0" />
      <path
         id="path156"
         style="fill:none;stroke:#000000"
         d="M 928.1994,53.040164 V -247.18037"
         inkscape:connector-curvature="0" />
      <path
         id="path158"
         style="fill:none;stroke:#000000"
         d="m 928.1994,-247.18037 -15.11811,-15.1181"
         inkscape:connector-curvature="0" />
      <path
         id="path160"
         style="fill:none;stroke:#000000"
         d="M 913.08129,-262.29847 H 516.29339"
         inkscape:connector-curvature="0" />
      <path
         id="path162"
         style="fill:none;stroke:#000000"
         d="m 516.29339,-262.29847 -15.11811,15.1181"
         inkscape:connector-curvature="0" />
      <path
         id="path164"
         style="fill:none;stroke:#000000"
         d="M 501.17528,-247.18037 V 1040.8826"
         inkscape:connector-curvature="0" />
      <path
         id="path166"
         style="fill:none;stroke:#000000"
         d="m 501.17528,1040.8826 15.11811,15.1181"
         inkscape:connector-curvature="0" />
      <path
         id="path168"
         style="fill:none;stroke:#000000"
         d="m 516.29339,1056.0007 h 396.7879"
         inkscape:connector-curvature="0" />
    </g>
  </g>
</svg>
