0
SECTION
2
HEADER
9
$INSUNITS
70
4
9
$ACADVER
1
AC1014
9
$HANDSEED
5
FFFF
0
ENDSEC
0
SECTION
2
TABLES
0
TABLE
2
VPORT
5
8
100
AcDbSymbolTable
0
ENDTAB
0
TABLE
2
LTYPE
5
5
100
AcDbSymbolTable
0
LTYPE
5
14
100
AcDbSymbolTableRecord
100
AcDbLinetypeTableRecord
2
BYBLOCK
70
0
0
LTYPE
5
15
100
AcDbSymbolTableRecord
100
AcDbLinetypeTableRecord
2
BYLAYER
70
0
0
ENDTAB
0
TABLE
2
LAYER
5
2
100
AcDbSymbolTable
70
2
0
LAYER
5
50
100
AcDbSymbolTableRecord
100
AcDbLayerTableRecord
2
0
70
0
6
CONTINUOUS
0
ENDTAB
0
TABLE
2
STYLE
5
3
100
AcDbSymbolTable
70
1
0
STYLE
5
11
100
AcDbSymbolTableRecord
100
AcDbTextStyleTableRecord
2
STANDARD
70
0
0
ENDTAB
0
TABLE
2
VIEW
5
6
100
AcDbSymbolTable
70
0
0
ENDTAB
0
TABLE
2
UCS
5
7
100
AcDbSymbolTable
70
0
0
ENDTAB
0
TABLE
2
APPID
5
9
100
AcDbSymbolTable
70
2
0
APPID
5
12
100
AcDbSymbolTableRecord
100
AcDbRegAppTableRecord
2
ACAD
70
0
0
ENDTAB
0
TABLE
2
DIMSTYLE
5
A
100
AcDbSymbolTable
70
1
0
ENDTAB
0
TABLE
2
BLOCK_RECORD
5
1
100
AcDbSymbolTable
70
1
0
BLOCK_RECORD
5
1F
100
AcDbSymbolTableRecord
100
AcDbBlockTableRecord
2
*MODEL_SPACE
0
BLOCK_RECORD
5
1B
100
AcDbSymbolTableRecord
100
AcDbBlockTableRecord
2
*PAPER_SPACE
0
ENDTAB
0
ENDSEC
0
SECTION
2
BLOCKS
0
BLOCK
5
20
100
AcDbEntity
100
AcDbBlockBegin
2
*MODEL_SPACE
0
ENDBLK
5
21
100
AcDbEntity
100
AcDbBlockEnd
0
BLOCK
5
1C
100
AcDbEntity
100
AcDbBlockBegin
2
*PAPER_SPACE
0
ENDBLK
5
1D
100
AcDbEntity
100
AcDbBlockEnd
0
ENDSEC
0
SECTION
2
ENTITIES
0
LWPOLYLINE
5
100
100
AcDbEntity
8
0
100
AcDbPolyline
90
6
70
1
43
0.0
10
250.15524578114974
20
249.83731599999993
10
248.74795450000005
20
250.64981599999993
10
247.34066321885035
20
249.83731599999993
10
247.34066321885035
20
248.21231599999993
10
248.74795450000005
20
247.39981599999993
10
250.15524578114974
20
248.21231599999999
0
LWPOLYLINE
5
101
100
AcDbEntity
8
0
100
AcDbPolyline
90
6
70
1
43
0.0
10
248.74795449999999
20
136.59979400000003
10
247.3406632188503
20
135.78729400000003
10
247.3406632188503
20
134.16229400000003
10
248.74795449999999
20
133.34979400000006
10
250.15524578114969
20
134.16229400000003
10
250.15524578114969
20
135.78729400000003
0
LWPOLYLINE
5
102
100
AcDbEntity
8
0
100
AcDbPolyline
90
6
70
1
43
0.0
10
239.17879557520206
20
360.58729800000015
10
240.58609157520206
20
359.77479600000009
10
241.99338657520204
20
360.58729800000009
10
241.99338657520204
20
362.21230300000008
10
240.58609157520206
20
363.02480500000013
10
239.17879557520206
20
362.21230300000008
0
LWPOLYLINE
5
103
100
AcDbEntity
8
0
100
AcDbPolyline
90
6
70
1
43
0.0
10
241.99338657520204
20
21.787308000000017
10
241.99338657520204
20
23.412312000000025
10
240.58609157520206
20
24.224815000000017
10
239.17879557520206
20
23.412312000000025
10
239.17879557520206
20
21.787308000000017
10
240.58609157520206
20
20.974805000000018
0
LWPOLYLINE
5
104
100
AcDbEntity
8
0
100
AcDbPolyline
90
10
70
1
43
0.0
10
235.52062599999996
20
337.4254150000001
10
235.52062599999996
20
349.42540700000001
10
234.52062499999994
20
350.42539900000008
10
222.52062599999999
20
350.42539900000008
10
221.52062800000007
20
349.42540700000001
10
221.52062800000007
20
337.4254150000001
10
221.81351300000006
20
336.71829600000001
10
222.52062600000005
20
336.42539500000009
10
234.52062499999994
20
336.42539500000009
10
235.22773899999993
20
336.71829500000001
0
LWPOLYLINE
5
105
100
AcDbEntity
8
0
100
AcDbPolyline
90
10
70
1
43
0.0
10
145.56551299999995
20
57.172695000000004
10
146.27262699999991
20
56.879795000000009
10
158.27262700000006
20
56.879795000000009
10
158.97973999999999
20
57.172695000000004
10
159.27262699999994
20
57.879814000000003
10
159.27262699999994
20
69.879806000000002
10
158.27262700000006
20
70.87979900000002
10
146.27262699999989
20
70.87979900000002
10
145.27262699999994
20
69.879806000000002
10
145.27262699999994
20
57.87981400000001
0
LWPOLYLINE
5
106
100
AcDbEntity
8
0
100
AcDbPolyline
90
8
70
1
43
0.0
10
144.13262699999993
20
33.859802000000002
10
156.13262700000007
20
33.859802000000002
10
157.13262699999996
20
34.859794000000001
10
157.13262699999996
20
46.859813000000017
10
156.13262700000001
20
47.859805000000001
10
144.1326269999999
20
47.859805000000001
10
143.13262699999996
20
46.85981300000001
10
143.13262699999996
20
34.859793999999994
0
LWPOLYLINE
5
107
100
AcDbEntity
8
0
100
AcDbPolyline
90
8
70
1
43
0.0
10
164.32262699999995
20
70.479802000000021
10
164.32262699999995
20
58.479810000000008
10
165.32262699999993
20
57.479817000000004
10
177.32262699999995
20
57.479817000000004
10
178.32262499999996
20
58.479810000000008
10
178.32262499999996
20
70.479802000000007
10
177.32262699999995
20
71.479794999999996
10
165.3226269999999
20
71.479794999999996
0
LWPOLYLINE
5
108
100
AcDbEntity
8
0
100
AcDbPolyline
90
9
70
1
43
0.0
10
251.03229999999994
20
177.96532600000003
10
250.26206399999995
20
179.15137400000003
10
238.52429199999992
20
181.64631499999999
10
237.33823400000003
20
180.87608700000001
10
234.84329299999996
20
169.13832300000001
10
234.98276400000006
20
168.385763
10
235.613529
20
167.95224899999999
10
247.35129999999995
20
165.45730799999998
10
248.53735900000001
20
166.22753600000007
0
LWPOLYLINE
5
109
100
AcDbEntity
8
0
100
AcDbPolyline
90
6
70
1
43
0.0
10
139.00992199999993
20
23.412312
10
137.60262699999993
20
24.224814000000009
10
136.19533099999995
20
23.412312
10
136.19533099999995
20
21.787307000000009
10
137.60262699999998
20
20.974805
10
139.00992199999993
20
21.787307000000009
0
LWPOLYLINE
5
110
100
AcDbEntity
8
0
100
AcDbPolyline
90
18
70
1
43
0.0
10
199.37262699999994
20
345.03980500000006
10
199.37262700000002
20
350.539805
10
198.372626
20
351.53979800000002
10
180.87262699999991
20
351.53979800000002
10
179.87262600000003
20
350.539805
10
179.87262600000008
20
321.03979500000008
10
180.87262699999997
20
320.03980300000001
10
198.37262600000005
20
320.03980300000001
10
199.37262699999994
20
321.03979500000008
10
199.37262699999988
20
326.53979500000003
10
199.07973999999993
20
327.24691400000006
10
198.372626
20
327.53981400000009
10
197.87262699999988
20
327.53981400000009
10
197.37262499999997
20
328.03979700000008
10
197.37262499999997
20
343.53980300000001
10
197.51906900000006
20
343.89336300000002
10
197.87262699999997
20
344.03981299999998
10
198.37262600000005
20
344.03981299999998
0
LWPOLYLINE
5
111
100
AcDbEntity
8
0
100
AcDbPolyline
90
18
70
1
43
0.0
10
219.92262600000001
20
48.639797000000009
10
219.92262600000001
20
78.13980699999999
10
218.92262599999998
20
79.13979999999998
10
201.42262599999992
20
79.13979999999998
10
200.42262599999998
20
78.13980699999999
10
200.42262599999998
20
72.639806999999976
10
201.42262599999998
20
71.639814999999999
10
201.92262799999997
20
71.639814999999984
10
202.276184
20
71.493363999999985
10
202.42262699999995
20
71.139805000000024
10
202.42262699999995
20
55.639798999999996
10
201.92262799999997
20
55.13981600000001
10
201.42262599999992
20
55.13981600000001
10
200.71551400000007
20
54.846915000000003
10
200.422628
20
54.139797000000002
10
200.422628
20
48.639797000000002
10
201.42262599999998
20
47.639804000000012
10
218.92262799999995
20
47.639804000000012
0
LWPOLYLINE
5
112
100
AcDbEntity
8
0
100
AcDbPolyline
90
6
70
1
43
0.0
10
137.60262699999998
20
363.02480500000001
10
136.19533099999995
20
362.21230200000002
10
136.19533099999995
20
360.58729800000003
10
137.60262699999998
20
359.77479500000015
10
139.00992199999993
20
360.58729800000003
10
139.00992199999993
20
362.21230200000002
0
LWPOLYLINE
5
113
100
AcDbEntity
8
0
100
AcDbPolyline
90
6
70
1
43
0.0
10
139.00992199999993
20
137.41230100000001
10
137.60262699999993
20
138.22480300000001
10
136.19533099999995
20
137.41230100000001
10
136.19533099999995
20
135.787296
10
137.60262699999998
20
134.974794
10
139.00992199999993
20
135.787296
0
LWPOLYLINE
5
114
100
AcDbEntity
8
0
100
AcDbPolyline
90
6
70
1
43
0.0
10
137.60262699999998
20
249.02481600000002
10
136.19533099999995
20
248.21231299999999
10
136.19533099999995
20
246.587309
10
137.60262699999998
20
245.77480600000001
10
139.00992199999993
20
246.587309
10
139.00992199999993
20
248.21231299999999
0
LWPOLYLINE
5
115
100
AcDbEntity
8
0
100
AcDbPolyline
90
6
70
1
43
0.0
10
235.75262599999999
20
23.349810999999999
10
237.750326
20
25.349810000000002
10
235.75262599999999
20
27.34980800000001
10
226.75262499999999
20
27.34980800000001
10
224.75492599999998
20
25.349810000000002
10
226.75262499999999
20
23.349810999999999
0
LWPOLYLINE
5
116
100
AcDbEntity
8
0
100
AcDbPolyline
90
26
70
1
43
0.0
10
146.27250189787321
20
313.20997776853949
10
158.27250189787324
20
313.2099777685396
10
159.04750277288539
20
313.98497476853947
10
161.772627
20
313.98481300000009
10
162.77262699999994
20
314.98480599999999
10
162.77262699999994
20
344.48481500000008
10
161.77262699999994
20
345.48480799999999
10
159.04750277288542
20
345.48489083255419
10
158.27250189787327
20
346.25988783255411
10
146.27250189787327
20
346.25988783255417
10
145.49749947285625
20
345.48489083255419
10
144.27262699999989
20
345.48480799999999
10
143.272627
20
344.48481500000008
10
143.272627
20
338.98481600000014
10
143.56551299999995
20
338.2776970000001
10
144.27262699999994
20
337.98479700000001
10
144.77262699999994
20
337.98479700000007
10
145.27262699999994
20
337.48481400000009
10
145.27262699999994
20
321.98480799999999
10
145.12618299999997
20
321.63124800000014
10
144.77262699999994
20
321.48479800000013
10
144.27262799999994
20
321.48479800000013
10
143.272627
20
320.48480500000005
10
143.27262699999994
20
314.98480599999999
10
144.27262799999997
20
313.98481300000009
10
145.49749947285622
20
313.98497476853947
0
LWPOLYLINE
5
117
100
AcDbEntity
8
0
100
AcDbPolyline
90
10
70
1
43
0.0
10
184.37250189787318
20
69.792391832554742
10
183.37250189787318
20
68.792398832554738
10
183.37262699999997
20
52.029798000000014
10
184.37262699999994
20
51.02980500000001
10
196.37262700000005
20
51.02980500000001
10
197.37262499999997
20
52.029798000000014
10
197.37262499999997
20
68.792316000000014
10
196.37262700000005
20
69.792309000000017
10
196.37258473084219
20
69.792308999999989
10
196.37250189787326
20
69.792391832554742
0
LWPOLYLINE
5
118
100
AcDbEntity
8
0
100
AcDbPolyline
90
69
70
1
43
0.0
10
242.12183199999996
20
133.63928300000003
10
241.73671200000004
20
134.232294
10
244.95934500000001
20
149.39360700000003
10
245.55237500000001
20
149.77870800000002
10
246.04144899999991
20
149.67475300000001
10
247.22750699999995
20
150.44498200000004
10
248.3710199999999
20
155.82480699999999
10
247.60078700000005
20
157.01085500000002
10
230.48320299999997
20
160.64932600000003
10
228.95906499999992
20
160.97328200000007
10
228.32813999999996
20
161.40704600000004
10
228.18895599999993
20
162.15993800000004
10
230.95928299999994
20
175.15444499999998
10
230.18904700000004
20
176.34049299999998
10
218.45127599999995
20
178.83543500000005
10
217.26521700000009
20
178.06520600000005
10
215.70210699999993
20
170.71135000000004
10
214.51604599999993
20
169.94112200000001
10
197.84127600000008
20
173.48545400000003
10
197.08871899999994
20
173.34597000000002
10
196.65521599999994
20
172.71519900000001
10
196.08013000000003
20
170.00964900000002
10
194.89407199999991
20
169.23942
10
173.27434499999998
20
173.83481
10
172.64357999999999
20
174.26832399999998
10
172.50410899999994
20
175.02088400000005
10
174.06928299999998
20
182.38444999999999
10
173.29904699999997
20
183.57049700000002
10
161.56127599999994
20
186.06543900000003
10
160.37521699999996
20
185.29521
10
145.99812299999996
20
117.65630700000004
10
144.18703199999993
20
109.135797
10
143.67075599999995
20
108.456744
10
143.13262699999996
20
107.56980800000001
10
143.13262699999996
20
95.569816000000003
10
143.42551299999997
20
94.862696999999997
10
144.13262699999993
20
94.569796999999994
10
144.27262699999994
20
94.569796999999994
10
145.27262699999994
20
93.569804000000005
10
145.27262699999994
20
76.929814000000007
10
145.56551299999995
20
76.222695000000002
10
146.27262699999991
20
75.929794999999999
10
158.27262700000006
20
75.929794999999999
10
158.97973999999999
20
76.222694999999987
10
159.27262699999994
20
76.929813999999993
10
159.27262699999994
20
80.289811000000014
10
160.27262699999994
20
81.289804000000032
10
177.32262699999995
20
81.289804000000032
10
178.08256100000011
20
81.639794999999978
10
178.84249500000004
20
81.989812000000001
10
201.42262600000007
20
81.989812000000001
10
202.42262699999995
20
82.989805000000004
10
202.42262699999995
20
86.339799999999997
10
202.71551399999996
20
87.046919000000003
10
203.42262699999995
20
87.33981900000002
10
215.42262699999998
20
87.33981900000002
10
216.42262499999998
20
88.339811999999981
10
216.42262499999998
20
107.002965
10
216.494282
20
107.37467800000003
10
216.54408499999991
20
107.538481
10
221.20398499999996
20
129.39623999999995
10
222.38991899999999
20
130.16586000000004
10
223.93398499999992
20
129.83767
10
241.05156899999994
20
126.1992
10
241.80412399999992
20
126.33868400000004
10
242.23762699999997
20
126.96945500000001
10
243.38114299999998
20
132.34925400000003
10
243.24167200000002
20
133.10181499999999
10
242.61090599999991
20
133.53532799999999
0
LWPOLYLINE
5
119
100
AcDbEntity
8
0
100
AcDbPolyline
90
76
70
1
43
0.0
10
144.13262399999996
20
289.52953400000001
10
143.13262399999996
20
288.52954199999999
10
143.13262399999996
20
276.52955000000009
10
143.70757499999999
20
275.62438400000008
10
144.26067399999997
20
274.92710099999999
10
145.55975599999994
20
268.81541099999993
10
144.78952099999998
20
267.62936300000001
10
144.78835699999993
20
267.62936300000001
10
144.01812100000001
20
266.44331499999998
10
158.39521399999995
20
198.80441200000007
10
158.82871700000004
20
198.17364100000006
10
159.58127299999995
20
198.03415700000002
10
176.25400999999994
20
201.57806500000004
10
177.44007099999999
20
200.80783700000001
10
179.00521299999997
20
193.44440300000002
10
180.19127399999996
20
192.67417499999999
10
191.929045
20
195.169116
10
192.69927900000002
20
196.355164
10
192.12502999999995
20
199.05679799999999
10
192.26450099999997
20
199.809358
10
192.89526700000008
20
200.24287200000003
10
214.51401099999995
20
204.83807600000006
10
215.26656700000007
20
204.69859200000002
10
215.70006900000007
20
204.06782100000001
10
217.26521499999993
20
196.70441400000001
10
217.69871700000007
20
196.073643
10
218.45127299999999
20
195.93415899999999
10
230.189044
20
198.42910000000003
10
230.81980999999996
20
198.86261400000001
10
230.95928099999998
20
199.61517499999999
10
229.72138800000008
20
205.43899800000005
10
230.49162399999997
20
206.625045
10
249.13241500000001
20
210.58728700000003
10
249.90265099999999
20
211.77333400000003
10
248.75913499999993
20
217.15313399999999
10
248.32563300000001
20
217.78390400000006
10
247.57307699999996
20
217.92338900000004
10
247.08400799999995
20
217.819434
10
246.49097600000002
20
218.20453499999999
10
243.26834599999995
20
233.365848
10
243.65346299999996
20
233.95885899999999
10
244.14253199999993
20
234.06281300000003
10
244.77329699999996
20
234.49632700000001
10
244.91276799999997
20
235.24888799999999
10
243.76925499999996
20
240.62868699999999
10
242.58319400000002
20
241.39891500000002
10
223.94240400000004
20
237.436701
10
222.75634499999992
20
238.206929
10
216.14040199999994
20
269.33251300000001
10
216.13471400000006
20
269.719492
10
216.12902499999993
20
270.10644500000001
10
215.60108099999997
20
272.59024800000009
10
216.00092700000008
20
273.61397400000004
10
216.42262499999998
20
274.42981600000002
10
216.42262499999998
20
305.47980799999999
10
215.42262699999998
20
306.4798009999999
10
198.372626
20
306.4798009999999
10
197.37262499999997
20
307.47979400000008
10
197.37262499999997
20
310.83981699999998
10
196.37262700000005
20
311.839809
10
179.32262299999991
20
311.83954500000016
10
178.32262299999996
20
312.839538
10
178.32262299999991
20
320.84953300000006
10
178.02973699999995
20
321.55665199999999
10
177.32262499999993
20
321.84955300000007
10
165.32262399999996
20
321.84955300000007
10
164.61550999999997
20
321.5566530000001
10
164.32262399999996
20
320.84953300000001
10
164.32262399999988
20
309.15955400000007
10
164.02973799999995
20
308.45243500000009
10
163.32262399999993
20
308.15953500000001
10
146.27262399999995
20
308.15953500000001
10
145.27262399999995
20
307.15954199999999
10
145.27262399999987
20
290.52955299999996
10
144.97973800000005
20
289.8224340000001
10
144.27262399999992
20
289.52953400000001
0
LWPOLYLINE
5
120
100
AcDbEntity
8
0
100
AcDbPolyline
90
10
70
1
43
0.0
10
235.47262799999996
20
50.249813000000003
10
235.47262800000001
20
62.249805000000009
10
234.47262699999999
20
63.249798000000013
10
222.4726269999999
20
63.249798000000013
10
221.47262699999996
20
62.249805000000009
10
221.47262699999996
20
50.249813000000003
10
221.76551399999991
20
49.542694000000004
10
222.47262699999996
20
49.249794000000016
10
234.47262699999999
20
49.249794000000016
10
235.17974100000001
20
49.542694000000004
0
LWPOLYLINE
5
121
100
AcDbEntity
8
0
100
AcDbPolyline
90
10
70
1
43
0.0
10
222.87812299999996
20
269.15331000000003
10
225.37306399999994
20
257.41554700000006
10
225.80656699999994
20
256.78477600000002
10
226.55912199999992
20
256.64529199999998
10
238.29689400000009
20
259.14023300000008
10
238.92765899999998
20
259.57374700000003
10
239.06712999999993
20
260.32630799999998
10
236.57218900000001
20
272.06407099999996
10
235.38612999999995
20
272.83429900000004
10
223.648359
20
270.339358
0
LWPOLYLINE
5
122
100
AcDbEntity
8
0
100
AcDbPolyline
90
8
70
1
43
0.0
10
178.32262499999996
20
332.66979400000002
10
178.32262499999996
20
344.66981200000015
10
177.32262699999995
20
345.669805
10
165.3226269999999
20
345.669805
10
164.32262699999995
20
344.66981200000015
10
164.32262699999995
20
332.66979400000002
10
165.32262699999993
20
331.66980099999995
10
177.32262699999995
20
331.66980099999989
0
LWPOLYLINE
5
123
100
AcDbEntity
8
0
100
AcDbPolyline
90
8
70
1
43
0.0
10
202.42262699999995
20
319.67481000000009
10
203.42262699999995
20
318.67481700000002
10
215.42262699999998
20
318.67481699999996
10
216.42262499999998
20
319.67481000000009
10
216.42262499999998
20
331.674802
10
215.42262699999998
20
332.67479400000008
10
203.42262699999989
20
332.67479400000008
10
202.42262699999995
20
331.674802
0
LWPOLYLINE
5
124
100
AcDbEntity
8
0
100
AcDbPolyline
90
8
70
1
43
0.0
10
182.23262699999995
20
25.629805000000001
10
194.23262700000006
20
25.629805000000001
10
195.23262799999995
20
26.629798000000005
10
195.23262800000001
20
38.629815999999998
10
194.23262699999998
20
39.629809000000002
10
182.23262699999992
20
39.629808999999995
10
181.23262699999998
20
38.629815999999998
10
181.23262699999998
20
26.629798000000005
0
LWPOLYLINE
5
125
100
AcDbEntity
8
0
100
AcDbPolyline
90
8
70
1
43
0.0
10
203.42262699999989
20
358.86854399999999
10
202.42262699999995
20
357.86855200000002
10
202.42262699999995
20
345.86856000000006
10
203.42262699999995
20
344.86856699999998
10
215.42262699999998
20
344.86856699999998
10
216.42262499999998
20
345.86856000000006
10
216.42262499999998
20
357.86855200000002
10
215.42262699999998
20
358.86854399999999
0
LWPOLYLINE
5
126
100
AcDbEntity
8
0
100
AcDbPolyline
90
10
70
1
43
0.0
10
238.29689400000009
20
115.62936000000001
10
226.55912199999992
20
118.12430200000001
10
225.37306399999994
20
117.354073
10
222.87812299999996
20
105.61631000000004
10
223.01759399999997
20
104.86375000000001
10
223.648359
20
104.43023600000001
10
235.38612999999995
20
101.93529400000001
10
236.13868599999992
20
102.07477900000001
10
236.57218900000001
20
102.705549
10
239.06712999999993
20
114.443313
0
LWPOLYLINE
5
127
100
AcDbEntity
8
0
100
AcDbPolyline
90
10
70
1
43
0.0
10
175.88974099999996
20
43.406915000000012
10
175.18262699999997
20
43.699815000000008
10
163.18262699999994
20
43.699815000000008
10
162.47551300000001
20
43.406915000000012
10
162.18262699999997
20
42.699795000000009
10
162.18262699999997
20
30.699804
10
163.18262699999994
20
29.699811
10
175.18262700000002
20
29.699810999999997
10
176.18262799999997
20
30.699804
10
176.18262799999991
20
42.699795000000009
0
LINE
5
128
100
AcDbEntity
8
0
100
AcDbLine
10
241.58609407520245
20
17.599804500000822
30
0
11
245.58609157520195
21
21.599804000000017
31
0
0
LINE
5
129
100
AcDbEntity
8
0
100
AcDbLine
10
245.58609157520195
20
21.599804000000017
30
0
11
245.58609157520203
21
101.03315350100846
31
0
0
LINE
5
130
100
AcDbEntity
8
0
100
AcDbLine
10
245.58609157520203
20
101.03315350100846
30
0
11
262.85262799999998
21
182.2654399999999
31
0
0
LINE
5
131
100
AcDbEntity
8
0
100
AcDbLine
10
262.85262799999998
20
182.2654399999999
30
0
11
262.85262699999998
21
201.73417470460805
31
0
0
LINE
5
132
100
AcDbEntity
8
0
100
AcDbLine
10
262.85262699999998
20
201.73417470460805
30
0
11
245.58609157520206
21
282.96645649899153
31
0
0
LINE
5
133
100
AcDbEntity
8
0
100
AcDbLine
10
245.58609157520206
20
282.96645649899153
30
0
11
245.58609157520206
21
362.39980599999996
31
0
0
LINE
5
134
100
AcDbEntity
8
0
100
AcDbLine
10
245.58609157520206
20
362.39980599999996
30
0
11
241.58609157520203
21
366.39980400000007
31
0
0
LINE
5
135
100
AcDbEntity
8
0
100
AcDbLine
10
241.58609157520203
20
366.39980400000007
30
0
11
136.60262699999998
21
366.39980300000002
31
0
0
LINE
5
136
100
AcDbEntity
8
0
100
AcDbLine
10
136.60262699999998
20
366.39980300000002
30
0
11
132.60262699999998
21
362.39980600000001
31
0
0
LINE
5
137
100
AcDbEntity
8
0
100
AcDbLine
10
132.60262699999998
20
362.39980600000001
30
0
11
132.60262699999998
21
197.34981200000007
31
0
0
LINE
5
138
100
AcDbEntity
8
0
100
AcDbLine
10
132.60262699999998
20
197.34981200000007
30
0
11
132.74906999999996
21
196.99625300000002
31
0
0
LINE
5
139
100
AcDbEntity
8
0
100
AcDbLine
10
132.74906999999996
20
196.99625300000002
30
0
11
133.10262699999998
21
196.84980300000007
31
0
0
LINE
5
140
100
AcDbEntity
8
0
100
AcDbLine
10
133.10262699999998
20
196.84980300000007
30
0
11
143.36838999999998
21
196.84980300000004
31
0
0
LINE
5
141
100
AcDbEntity
8
0
100
AcDbLine
10
143.36838999999998
20
196.84980300000004
30
0
11
143.86838899999998
21
196.349819
31
0
0
LINE
5
142
100
AcDbEntity
8
0
100
AcDbLine
10
143.86838899999998
20
196.349819
30
0
11
143.86838899999998
21
187.64981700000004
31
0
0
LINE
5
143
100
AcDbEntity
8
0
100
AcDbLine
10
143.86838899999998
20
187.64981700000004
30
0
11
143.721946
21
187.296257
31
0
0
LINE
5
144
100
AcDbEntity
8
0
100
AcDbLine
10
143.721946
20
187.296257
30
0
11
143.36838999999998
21
187.14980700000001
31
0
0
LINE
5
145
100
AcDbEntity
8
0
100
AcDbLine
10
143.36838999999998
20
187.14980700000001
30
0
11
133.10262699999998
21
187.14980700000001
31
0
0
LINE
5
146
100
AcDbEntity
8
0
100
AcDbLine
10
133.10262699999998
20
187.14980700000001
30
0
11
132.74906999999988
21
187.00335699999999
31
0
0
LINE
5
147
100
AcDbEntity
8
0
100
AcDbLine
10
132.74906999999988
20
187.00335699999999
30
0
11
132.60262699999998
21
186.649798
31
0
0
LINE
5
148
100
AcDbEntity
8
0
100
AcDbLine
10
132.60262699999998
20
186.649798
30
0
11
132.60262699999998
21
21.599803999999985
31
0
0
LINE
5
149
100
AcDbEntity
8
0
100
AcDbLine
10
132.60262699999998
20
21.599803999999985
30
0
11
136.60262699999998
21
17.599807000000006
31
0
0
LINE
5
150
100
AcDbEntity
8
0
100
AcDbLine
10
136.60262699999998
20
17.599807000000006
30
0
11
241.58609157520203
21
17.599807000000006
31
0
0
ENDSEC
0
SECTION
2
OBJECTS
0
DICTIONARY
5
C
100
AcDbDictionary
3
ACAD_GROUP
350
D
3
ACAD_MLINESTYLE
350
17
0
DICTIONARY
5
D
100
AcDbDictionary
0
DICTIONARY
5
1A
330
C
100
AcDbDictionary
0
DICTIONARY
5
17
100
AcDbDictionary
0
ENDSEC
0
EOF
