<?xml version="1.0" encoding="UTF-8" standalone="no"?>
<!-- Created with Inkscape (http://www.inkscape.org/) -->

<svg
   xmlns:dc="http://purl.org/dc/elements/1.1/"
   xmlns:cc="http://creativecommons.org/ns#"
   xmlns:rdf="http://www.w3.org/1999/02/22-rdf-syntax-ns#"
   xmlns:svg="http://www.w3.org/2000/svg"
   xmlns="http://www.w3.org/2000/svg"
   xmlns:sodipodi="http://sodipodi.sourceforge.net/DTD/sodipodi-0.dtd"
   xmlns:inkscape="http://www.inkscape.org/namespaces/inkscape"
   width="355mm"
   height="140mm"
   viewBox="0 0 355 140"
   version="1.1"
   id="svg8"
   inkscape:version="0.92.4 (5da689c313, 2019-01-14)"
   sodipodi:docname="L4.svg">
  <defs
     id="defs2">
    <marker
       style="overflow:visible"
       refY="0.0"
       refX="0.0"
       orient="auto"
       id="DistanceX">
      <path
         id="path12"
         style="stroke:#000000; stroke-width:0.5"
         d="M 3,-3 L -3,3 M 0,-5 L  0,5" />
    </marker>
    <pattern
       y="0"
       x="0"
       width="8"
       patternUnits="userSpaceOnUse"
       id="Hatch"
       height="8">
      <path
         id="path15"
         stroke-width="0.25"
         stroke="#000000"
         linecap="square"
         d="M8 4 l-4,4" />
      <path
         id="path17"
         stroke-width="0.25"
         stroke="#000000"
         linecap="square"
         d="M6 2 l-4,4" />
      <path
         id="path19"
         stroke-width="0.25"
         stroke="#000000"
         linecap="square"
         d="M4 0 l-4,4" />
    </pattern>
    <symbol
       id="*MODEL_SPACE" />
    <symbol
       id="*PAPER_SPACE" />
    <marker
       style="overflow:visible"
       refY="0.0"
       refX="0.0"
       orient="auto"
       id="DistanceX-2">
      <path
         id="path142"
         style="stroke:#000000; stroke-width:0.5"
         d="M 3,-3 L -3,3 M 0,-5 L  0,5" />
    </marker>
    <pattern
       y="0"
       x="0"
       width="8"
       patternUnits="userSpaceOnUse"
       id="Hatch-6"
       height="8">
      <path
         id="path145"
         stroke-width="0.25"
         stroke="#000000"
         linecap="square"
         d="M8 4 l-4,4" />
      <path
         id="path147"
         stroke-width="0.25"
         stroke="#000000"
         linecap="square"
         d="M6 2 l-4,4" />
      <path
         id="path149"
         stroke-width="0.25"
         stroke="#000000"
         linecap="square"
         d="M4 0 l-4,4" />
    </pattern>
    <symbol
       id="*MODEL_SPACE-8" />
    <symbol
       id="*PAPER_SPACE-0" />
  </defs>
  <sodipodi:namedview
     id="base"
     pagecolor="#ffffff"
     bordercolor="#666666"
     borderopacity="1.0"
     inkscape:pageopacity="0.0"
     inkscape:pageshadow="2"
     inkscape:zoom="0.7"
     inkscape:cx="731.37683"
     inkscape:cy="350.67162"
     inkscape:document-units="mm"
     inkscape:current-layer="layer1"
     showgrid="false"
     inkscape:window-width="2560"
     inkscape:window-height="1377"
     inkscape:window-x="-8"
     inkscape:window-y="-8"
     inkscape:window-maximized="1" />
  <metadata
     id="metadata5">
    <rdf:RDF>
      <cc:Work
         rdf:about="">
        <dc:format>image/svg+xml</dc:format>
        <dc:type
           rdf:resource="http://purl.org/dc/dcmitype/StillImage" />
        <dc:title />
      </cc:Work>
    </rdf:RDF>
  </metadata>
  <g
     inkscape:label="Layer 1"
     inkscape:groupmode="layer"
     id="layer1"
     transform="translate(0,-157)">
    <g
       id="g392"
       inkscape:label="0"
       transform="matrix(0,0.26458333,-0.26458333,0,282.50019,29.272376)">
      <path
         id="path156"
         style="fill:none;stroke:#000000"
         d="m 913.0813,1056.0007 15.1181,-15.1181"
         inkscape:connector-curvature="0" />
      <path
         id="path158"
         style="fill:none;stroke:#000000"
         d="M 928.1994,1040.8826 V 740.6621"
         inkscape:connector-curvature="0" />
      <path
         id="path160"
         style="fill:none;stroke:#000000"
         d="M 928.1994,740.6621 993.45875,433.64243"
         inkscape:connector-curvature="0" />
      <path
         id="path162"
         style="fill:none;stroke:#000000"
         d="M 993.45875,433.64243 V 360.05981"
         inkscape:connector-curvature="0" />
      <path
         id="path164"
         style="fill:none;stroke:#000000"
         d="M 993.45875,360.05981 928.1994,53.040164"
         inkscape:connector-curvature="0" />
      <path
         id="path166"
         style="fill:none;stroke:#000000"
         d="M 928.1994,53.040164 V -247.18037"
         inkscape:connector-curvature="0" />
      <path
         id="path168"
         style="fill:none;stroke:#000000"
         d="m 928.1994,-247.18037 -15.11811,-15.1181"
         inkscape:connector-curvature="0" />
      <path
         id="path170"
         style="fill:none;stroke:#000000"
         d="M 913.08129,-262.29847 H 516.29339"
         inkscape:connector-curvature="0" />
      <path
         id="path172"
         style="fill:none;stroke:#000000"
         d="m 516.29339,-262.29847 -15.11811,15.1181"
         inkscape:connector-curvature="0" />
      <path
         id="path174"
         style="fill:none;stroke:#000000"
         d="m 501.17528,-247.18037 v 623.811"
         inkscape:connector-curvature="0" />
      <path
         id="path176"
         style="fill:none;stroke:#000000"
         d="m 501.17528,376.63063 0.55349,1.33629"
         inkscape:connector-curvature="0" />
      <path
         id="path178"
         style="fill:none;stroke:#000000"
         d="m 501.72877,377.96692 1.33628,0.55351"
         inkscape:connector-curvature="0" />
      <path
         id="path180"
         style="fill:none;stroke:#000000"
         d="m 503.06505,378.52043 h 38.79973"
         inkscape:connector-curvature="0" />
      <path
         id="path182"
         style="fill:none;stroke:#000000"
         d="m 541.86478,378.52043 1.88976,1.8897"
         inkscape:connector-curvature="0" />
      <path
         id="path184"
         style="fill:none;stroke:#000000"
         d="m 543.75454,380.41013 v 32.8819"
         inkscape:connector-curvature="0" />
      <path
         id="path186"
         style="fill:none;stroke:#000000"
         d="m 543.75454,413.29203 -0.55348,1.33629"
         inkscape:connector-curvature="0" />
      <path
         id="path188"
         style="fill:none;stroke:#000000"
         d="m 543.20106,414.62832 -1.33628,0.55351"
         inkscape:connector-curvature="0" />
      <path
         id="path190"
         style="fill:none;stroke:#000000"
         d="M 541.86478,415.18183 H 503.06505"
         inkscape:connector-curvature="0" />
      <path
         id="path192"
         style="fill:none;stroke:#000000"
         d="m 503.06505,415.18183 -1.33628,0.55351"
         inkscape:connector-curvature="0" />
      <path
         id="path194"
         style="fill:none;stroke:#000000"
         d="m 501.72877,415.73534 -0.55349,1.33629"
         inkscape:connector-curvature="0" />
      <path
         id="path196"
         style="fill:none;stroke:#000000"
         d="M 501.17528,417.07163 V 1040.8826"
         inkscape:connector-curvature="0" />
      <path
         id="path198"
         style="fill:none;stroke:#000000"
         d="m 501.17528,1040.8826 15.11811,15.1181"
         inkscape:connector-curvature="0" />
      <path
         id="path200"
         style="fill:none;stroke:#000000"
         d="m 516.29339,1056.0007 h 396.7879"
         inkscape:connector-curvature="0" />
      <path
         id="path202"
         style="fill:none;stroke:#000000"
         d="m 664.78012,958.46205 -2.67255,-1.10702 h -45.35433 l -2.67256,1.10702 -1.10697,2.67258 v 45.35427 l 3.77953,3.7795 h 45.35433 l 3.77953,-3.7795 v -45.35427 z"
         inkscape:connector-curvature="0" />
      <path
         id="path204"
         style="fill:none;stroke:#000000"
         d="m 900.64968,685.49533 -44.36324,-9.4297 -4.48273,2.9111 -9.4297,44.3632 0.52713,2.84432 2.384,1.63848 44.36322,9.4297 2.84431,-0.52719 1.63844,-2.38401 9.4297,-44.3632 z"
         inkscape:connector-curvature="0" />
      <path
         id="path206"
         style="fill:none;stroke:#000000"
         d="m 768.84142,-233.83387 -3.77952,3.7795 v 45.3543 l 3.77952,3.7795 h 45.35434 l 3.77952,-3.7795 v -45.3543 l -3.77952,-3.7795 z"
         inkscape:connector-curvature="0" />
      <path
         id="path208"
         style="fill:none;stroke:#000000"
         d="m 688.75324,1025.6511 h 45.35433 l 3.77953,-3.7795 v -45.35437 l -3.77953,-3.7795 h -45.35433 l -3.77953,3.7795 v 45.35437 z"
         inkscape:connector-curvature="0" />
      <path
         id="path210"
         style="fill:none;stroke:#000000"
         d="m 765.0619,-85.700069 3.77952,3.779501 h 45.35434 l 3.77952,-3.779501 v -45.354301 l -3.77952,-3.7795 h -45.35434 l -3.77952,3.7795 z"
         inkscape:connector-curvature="0" />
      <path
         id="path212"
         style="fill:none;stroke:#000000"
         d="m 673.97528,-134.81497 v -45.3544 l -3.77952,-3.7795 h -45.35434 l -3.77952,3.7795 v 45.3544 l 3.77952,3.7795 h 45.35434 z"
         inkscape:connector-curvature="0" />
      <path
         id="path214"
         style="fill:none;stroke:#000000"
         d="m 842.37401,105.24733 9.4297,44.3632 1.63843,2.38402 2.8443,0.52718 44.36324,-9.4297 2.38399,-1.63848 0.52714,-2.84432 -9.4297,-44.363199 -4.48275,-2.911098 -44.36322,9.429697 z"
         inkscape:connector-curvature="0" />
      <path
         id="path216"
         style="fill:none;stroke:#000000"
         d="m 889.97529,932.59913 v -45.3543 l -3.77953,-3.7795 h -45.35434 l -3.77952,3.7795 v 45.3543 l 1.10697,2.67258 2.67255,1.10702 h 45.35434 l 2.67255,-1.10702 z"
         inkscape:connector-curvature="0" />
      <path
         id="path218"
         style="fill:none;stroke:#000000"
         d="m 544.75323,28.234832 -3.77953,3.779497 V 77.36863 l 2.17304,3.4211 2.09045,2.6354 4.90992,23.0993 -2.91112,4.4827 h -0.004 l -2.91113,4.4827 54.33862,255.6431 1.63843,2.38402 2.84431,0.52718 63.01507,-13.3943 4.48275,2.9111 5.9155,27.8303 4.48275,2.9111 44.36322,-9.4297 2.91113,-4.4827 -2.17039,-10.2109 0.52713,-2.84432 2.384,-1.63848 81.70864,-17.3677 2.8443,0.52718 1.63844,2.38402 5.91551,27.8302 1.63843,2.38402 2.84431,0.52718 44.36323,-9.4297 2.38399,-1.63848 0.52714,-2.84432 -4.67865,-22.0113 2.91113,-4.4827 70.45338,-14.9754 2.91113,-4.4827 -4.32195,-20.3331 -1.63844,-2.38401 -2.8443,-0.52719 -1.84845,0.3929 -2.24138,-1.4555 -12.18002,-57.3026 1.45556,-2.2413 1.84845,-0.3929 2.38399,-1.63848 0.52714,-2.84432 -4.32194,-20.3331 -4.48275,-2.9111 -70.45338,14.9753 -4.48275,-2.9111 -25.00513,-117.64 -0.0215,-1.4626 -0.0215,-1.4625 -1.99538,-9.3876 1.51123,-3.8692 1.59382,-3.083498 v -117.3543 l -3.77952,-3.779501 h -64.44095 l -3.77953,-3.779501 v -12.6993 l -3.77952,-3.779497 -64.44096,9.98e-4 -3.77953,-3.779501 v -30.273997 l -1.10697,-2.672576 -2.67255,-1.107027 h -45.35434 l -2.67255,1.107023 -1.10697,2.67258 v 44.182598 l -1.10697,2.672575 -2.67256,1.107024 h -64.44095 l -3.77952,3.779501 v 62.853502 l -1.10697,2.672576 -2.67256,1.107023 z"
         inkscape:connector-curvature="0" />
      <path
         id="path220"
         style="fill:none;stroke:#000000"
         d="m 696.84095,858.73742 -3.77953,3.7795 4.8e-4,63.35471 3.77952,3.7795 h 45.35434 l 3.77952,-3.7795 v -63.3544 l -3.77952,-3.7795 h -1.6e-4 l -3.2e-4,-3.1e-4 z"
         inkscape:connector-curvature="0" />
      <path
         id="path222"
         style="fill:none;stroke:#000000"
         d="m 549.38758,-183.96888 -4.10521,0.71921 -3.77953,3.7795 v 20.7874 l 1.10697,2.67258 2.67256,1.10702 h 1.88976 l 1.88977,1.8897 v 58.5827 l -0.55349,1.336289 -1.33628,0.553512 h -1.88976 l -3.77953,3.779501 v 20.787398 l 3.77953,3.779501 4.11177,0.719531 a 3.779528,3.779528 0 0 0 0.0167,0.03583 l 0.18793,-2.4e-5 2.9291,2.929081 h 45.98054 l 2.92912,-2.929104 10.29968,6.11e-4 4.22234,-4.222317 V -179.78327 l -4.22231,-4.22229 -10.29968,-3.2e-4 -2.92915,-2.92913 h -45.98054 l -2.92917,2.92915 -0.19408,1e-5 a 3.779528,3.779528 0 0 0 -0.017,0.037 z"
         inkscape:connector-curvature="0" />
      <path
         id="path224"
         style="fill:none;stroke:#000000"
         d="m 891.03355,1034.2684 7.55036,-7.559 -7.55036,-7.5591 h -34.01576 l -7.55035,7.5591 7.55035,7.559 z"
         inkscape:connector-curvature="0" />
      <path
         id="path226"
         style="fill:none;stroke:#000000"
         d="m 520.07292,181.32353 -5.31891,3.07088 v 6.14174 l 5.31891,3.07088 5.31891,-3.07088 v -6.14174 z"
         inkscape:connector-curvature="0" />
      <path
         id="path228"
         style="fill:none;stroke:#000000"
         d="m 525.39183,603.16611 -5.31891,-3.07088 -5.31891,3.07088 v 6.14175 l 5.31891,3.07087 5.31891,-3.07087 z"
         inkscape:connector-curvature="0" />
      <path
         id="path230"
         style="fill:none;stroke:#000000"
         d="m 520.07292,-249.54257 -5.31891,3.07088 v 6.14175 l 5.31891,3.07087 5.31891,-3.07087 v -6.14175 z"
         inkscape:connector-curvature="0" />
      <path
         id="path232"
         style="fill:none;stroke:#000000"
         d="m 831.20363,938.68423 v -111.4961 l -3.77953,-3.7795 h -66.14173 l -3.77953,3.7795 v 20.7874 l 3.77953,3.7795 h 1.88977 l 1.33627,0.55352 0.55349,1.33628 v 58.5827 l -1.88976,1.8897 h -1.88977 l -2.67255,1.10703 -1.10697,2.67257 v 20.7874 l 3.77952,3.7795 h 66.14174 z"
         inkscape:connector-curvature="0" />
      <path
         id="path234"
         style="fill:none;stroke:#000000"
         d="m 753.53434,-181.56777 v -20.7874 l -3.77953,-3.7795 h -66.14173 l -3.77953,3.7795 v 111.496102 l 3.77953,3.779498 h 66.14173 l 3.77953,-3.779498 v -20.787402 l -1.10698,-2.67258 -2.67255,-1.10702 h -1.88976 l -1.88977,-1.8897 v -58.5827 l 0.55349,-1.33629 1.33628,-0.55351 h 1.88976 z"
         inkscape:connector-curvature="0" />
      <path
         id="path236"
         style="fill:none;stroke:#000000"
         d="m 525.39183,1034.0322 -5.31891,-3.0709 -5.31891,3.0709 v 6.1418 l 5.31891,3.0708 5.31891,-3.0708 z"
         inkscape:connector-curvature="0" />
      <path
         id="path238"
         style="fill:none;stroke:#000000"
         d="m 621.0619,856.13933 v 45.3543 l 3.77952,3.7795 h 45.35434 l 3.77952,-3.7795 v -45.3543 l -3.77952,-3.7795 h -45.35434 z"
         inkscape:connector-curvature="0" />
      <path
         id="path240"
         style="fill:none;stroke:#000000"
         d="m 544.75324,994.54563 h 45.35433 l 3.77952,-3.7795 v -45.3544 l -3.77952,-3.7795 h -45.35433 l -3.77953,3.7795 v 45.3544 z"
         inkscape:connector-curvature="0" />
      <path
         id="path242"
         style="fill:none;stroke:#000000"
         d="m 550.16887,906.43391 2.67255,1.10702 h 45.35434 l 2.67255,-1.10702 1.10697,-2.67258 v -45.3543 l -3.77952,-3.7795 h -45.35434 l -3.77952,3.7795 v 45.3543 z"
         inkscape:connector-curvature="0" />
      <path
         id="path244"
         style="fill:none;stroke:#000000"
         d="m 890.1567,-152.78897 v -45.3543 l -3.77954,-3.7795 h -45.35432 l -3.77952,3.7795 v 45.3543 l 1.10696,2.67258 2.67256,1.10702 h 45.35432 l 2.67256,-1.10702 z"
         inkscape:connector-curvature="0" />
      <path
         id="path246"
         style="fill:none;stroke:#000000"
         d="m 914.62067,1040.174 v -6.1418 l -5.31891,-3.0709 -5.31891,3.0709 v 6.1418 l 5.31891,3.0708 z"
         inkscape:connector-curvature="0" />
      <path
         id="path248"
         style="fill:none;stroke:#000000"
         d="m 903.98285,-240.32994 5.31891,3.07087 5.31891,-3.07087 v -6.14176 l -5.31891,-3.07087 -5.31891,3.07087 z"
         inkscape:connector-curvature="0" />
      <path
         id="path250"
         style="fill:none;stroke:#000000"
         d="m 940.14975,606.237 -5.3189,3.07086 v 6.14174 l 5.3189,3.07086 5.3189,-3.07086 v -6.14174 z"
         inkscape:connector-curvature="0" />
      <path
         id="path252"
         style="fill:none;stroke:#000000"
         d="m 945.46865,178.25266 -5.3189,-3.07086 -5.3189,3.07086 v 6.14174 l 5.3189,3.07086 5.3189,-3.07086 z"
         inkscape:connector-curvature="0" />
      <path
         id="path254"
         style="fill:none;stroke:#000000"
         d="m 940.32246,526.06057 -5.91928,27.84816"
         inkscape:connector-curvature="0" />
      <path
         id="path256"
         style="fill:none;stroke:#000000"
         d="m 934.40318,553.90873 -4.48274,2.9111"
         inkscape:connector-curvature="0" />
      <path
         id="path258"
         style="fill:none;stroke:#000000"
         d="m 929.92044,556.81983 -1.84847,-0.3929"
         inkscape:connector-curvature="0" />
      <path
         id="path260"
         style="fill:none;stroke:#000000"
         d="m 928.07197,556.42693 -2.24137,1.4555"
         inkscape:connector-curvature="0" />
      <path
         id="path262"
         style="fill:none;stroke:#000000"
         d="m 925.8306,557.88243 -10.48525,49.32926"
         inkscape:connector-curvature="0" />
      <path
         id="path264"
         style="fill:none;stroke:#000000"
         d="m 915.34534,607.21169 1.45559,2.24132"
         inkscape:connector-curvature="0" />
      <path
         id="path266"
         style="fill:none;stroke:#000000"
         d="m 916.80093,609.45301 1.84847,0.3929"
         inkscape:connector-curvature="0" />
      <path
         id="path268"
         style="fill:none;stroke:#000000"
         d="m 918.6494,609.84591 2.91113,4.48272"
         inkscape:connector-curvature="0" />
      <path
         id="path270"
         style="fill:none;stroke:#000000"
         d="m 921.56054,614.32863 -6.01675,28.3065"
         inkscape:connector-curvature="0" />
      <path
         id="path272"
         style="fill:none;stroke:#000000"
         d="m 915.54379,642.63513 -1.63844,2.38402"
         inkscape:connector-curvature="0" />
      <path
         id="path274"
         style="fill:none;stroke:#000000"
         d="m 913.90535,645.01915 -2.8443,0.52718"
         inkscape:connector-curvature="0" />
      <path
         id="path276"
         style="fill:none;stroke:#000000"
         d="m 911.06105,645.54633 -64.69638,-13.7517"
         inkscape:connector-curvature="0" />
      <path
         id="path278"
         style="fill:none;stroke:#000000"
         d="m 846.36467,631.79463 -5.83584,-1.2404"
         inkscape:connector-curvature="0" />
      <path
         id="path280"
         style="fill:none;stroke:#000000"
         d="m 840.52883,630.55423 -4.48227,2.9088"
         inkscape:connector-curvature="0" />
      <path
         id="path282"
         style="fill:none;stroke:#000000"
         d="m 836.04656,633.46303 -17.61222,82.612"
         inkscape:connector-curvature="0" />
      <path
         id="path284"
         style="fill:none;stroke:#000000"
         d="m 818.43434,716.07503 -0.18824,0.6191"
         inkscape:connector-curvature="0" />
      <path
         id="path286"
         style="fill:none;stroke:#000000"
         d="m 818.2461,716.69413 -0.27082,1.4049"
         inkscape:connector-curvature="0" />
      <path
         id="path288"
         style="fill:none;stroke:#000000"
         d="m 817.97528,718.09903 v 70.5379"
         inkscape:connector-curvature="0" />
      <path
         id="path290"
         style="fill:none;stroke:#000000"
         d="m 817.97528,788.63693 -3.77952,3.7795"
         inkscape:connector-curvature="0" />
      <path
         id="path292"
         style="fill:none;stroke:#000000"
         d="M 814.19576,792.41643 H 768.84142"
         inkscape:connector-curvature="0" />
      <path
         id="path294"
         style="fill:none;stroke:#000000"
         d="m 768.84142,792.41643 -2.67255,1.10703"
         inkscape:connector-curvature="0" />
      <path
         id="path296"
         style="fill:none;stroke:#000000"
         d="m 766.16887,793.52346 -1.10697,2.67257"
         inkscape:connector-curvature="0" />
      <path
         id="path298"
         style="fill:none;stroke:#000000"
         d="m 765.0619,796.19603 v 12.6614"
         inkscape:connector-curvature="0" />
      <path
         id="path300"
         style="fill:none;stroke:#000000"
         d="m 765.0619,808.85743 -3.77953,3.7795"
         inkscape:connector-curvature="0" />
      <path
         id="path302"
         style="fill:none;stroke:#000000"
         d="M 761.28237,812.63693 H 675.94014"
         inkscape:connector-curvature="0" />
      <path
         id="path304"
         style="fill:none;stroke:#000000"
         d="m 675.94014,812.63693 -2.87219,1.3229"
         inkscape:connector-curvature="0" />
      <path
         id="path306"
         style="fill:none;stroke:#000000"
         d="m 673.06795,813.95983 -2.87219,1.3228"
         inkscape:connector-curvature="0" />
      <path
         id="path308"
         style="fill:none;stroke:#000000"
         d="M 670.19576,815.28263 H 605.75481"
         inkscape:connector-curvature="0" />
      <path
         id="path310"
         style="fill:none;stroke:#000000"
         d="m 605.75481,815.28263 -3.77953,3.7795"
         inkscape:connector-curvature="0" />
      <path
         id="path312"
         style="fill:none;stroke:#000000"
         d="m 601.97528,819.06213 v 12.6992"
         inkscape:connector-curvature="0" />
      <path
         id="path314"
         style="fill:none;stroke:#000000"
         d="m 601.97528,831.76133 -1.10697,2.67258"
         inkscape:connector-curvature="0" />
      <path
         id="path316"
         style="fill:none;stroke:#000000"
         d="m 600.86831,834.43391 -2.67255,1.10702"
         inkscape:connector-curvature="0" />
      <path
         id="path318"
         style="fill:none;stroke:#000000"
         d="M 598.19576,835.54093 H 552.84142"
         inkscape:connector-curvature="0" />
      <path
         id="path320"
         style="fill:none;stroke:#000000"
         d="m 552.84142,835.54093 -2.67255,-1.10702"
         inkscape:connector-curvature="0" />
      <path
         id="path322"
         style="fill:none;stroke:#000000"
         d="m 550.16887,834.43391 -1.10697,-2.67258"
         inkscape:connector-curvature="0" />
      <path
         id="path324"
         style="fill:none;stroke:#000000"
         d="m 549.0619,831.76133 v -62.8913"
         inkscape:connector-curvature="0" />
      <path
         id="path326"
         style="fill:none;stroke:#000000"
         d="m 549.0619,768.87003 -3.77953,-3.7795"
         inkscape:connector-curvature="0" />
      <path
         id="path328"
         style="fill:none;stroke:#000000"
         d="m 545.28237,765.09053 h -0.52913"
         inkscape:connector-curvature="0" />
      <path
         id="path330"
         style="fill:none;stroke:#000000"
         d="m 544.75324,765.09053 -2.67256,-1.10702"
         inkscape:connector-curvature="0" />
      <path
         id="path332"
         style="fill:none;stroke:#000000"
         d="m 542.08068,763.98351 -1.10697,-2.67258"
         inkscape:connector-curvature="0" />
      <path
         id="path334"
         style="fill:none;stroke:#000000"
         d="m 540.97371,761.31093 v -45.3543"
         inkscape:connector-curvature="0" />
      <path
         id="path336"
         style="fill:none;stroke:#000000"
         d="m 540.97371,715.95663 2.03387,-3.3522"
         inkscape:connector-curvature="0" />
      <path
         id="path338"
         style="fill:none;stroke:#000000"
         d="m 543.00758,712.60443 1.95128,-2.5665"
         inkscape:connector-curvature="0" />
      <path
         id="path340"
         style="fill:none;stroke:#000000"
         d="m 544.95886,710.03793 6.84507,-32.2035"
         inkscape:connector-curvature="0" />
      <path
         id="path342"
         style="fill:none;stroke:#000000"
         d="m 551.80393,677.83443 54.33862,-255.6431"
         inkscape:connector-curvature="0" />
      <path
         id="path344"
         style="fill:none;stroke:#000000"
         d="m 606.14255,422.19133 4.48275,-2.9111"
         inkscape:connector-curvature="0" />
      <path
         id="path346"
         style="fill:none;stroke:#000000"
         d="m 610.6253,419.28023 44.36322,9.4297"
         inkscape:connector-curvature="0" />
      <path
         id="path348"
         style="fill:none;stroke:#000000"
         d="m 654.98852,428.70993 2.91113,4.4827"
         inkscape:connector-curvature="0" />
      <path
         id="path350"
         style="fill:none;stroke:#000000"
         d="m 657.89965,433.19263 -5.91562,27.8308"
         inkscape:connector-curvature="0" />
      <path
         id="path352"
         style="fill:none;stroke:#000000"
         d="m 651.98403,461.02343 0.52714,2.84432"
         inkscape:connector-curvature="0" />
      <path
         id="path354"
         style="fill:none;stroke:#000000"
         d="m 652.51117,463.86775 2.38399,1.63848"
         inkscape:connector-curvature="0" />
      <path
         id="path356"
         style="fill:none;stroke:#000000"
         d="m 654.89516,465.50623 81.71236,17.3684"
         inkscape:connector-curvature="0" />
      <path
         id="path358"
         style="fill:none;stroke:#000000"
         d="m 736.60752,482.87463 4.48273,-2.9111"
         inkscape:connector-curvature="0" />
      <path
         id="path360"
         style="fill:none;stroke:#000000"
         d="m 741.09025,479.96353 2.17356,-10.2257"
         inkscape:connector-curvature="0" />
      <path
         id="path362"
         style="fill:none;stroke:#000000"
         d="m 743.26381,469.73783 1.63843,-2.38402"
         inkscape:connector-curvature="0" />
      <path
         id="path364"
         style="fill:none;stroke:#000000"
         d="m 744.90224,467.35381 2.84431,-0.52718"
         inkscape:connector-curvature="0" />
      <path
         id="path366"
         style="fill:none;stroke:#000000"
         d="m 747.74655,466.82663 63.02276,13.3959"
         inkscape:connector-curvature="0" />
      <path
         id="path368"
         style="fill:none;stroke:#000000"
         d="m 810.76931,480.22253 4.48275,-2.9111"
         inkscape:connector-curvature="0" />
      <path
         id="path370"
         style="fill:none;stroke:#000000"
         d="m 815.25206,477.31143 5.90782,-27.7941"
         inkscape:connector-curvature="0" />
      <path
         id="path372"
         style="fill:none;stroke:#000000"
         d="m 821.15988,449.51733 4.48274,-2.9111"
         inkscape:connector-curvature="0" />
      <path
         id="path374"
         style="fill:none;stroke:#000000"
         d="m 825.64262,446.60623 44.36323,9.4297"
         inkscape:connector-curvature="0" />
      <path
         id="path376"
         style="fill:none;stroke:#000000"
         d="m 870.00585,456.03593 2.91112,4.4827"
         inkscape:connector-curvature="0" />
      <path
         id="path378"
         style="fill:none;stroke:#000000"
         d="M 872.91697,460.51863 868.239,482.46114"
         inkscape:connector-curvature="0" />
      <path
         id="path380"
         style="fill:none;stroke:#000000"
         d="m 868.239,482.46114 -3.39335,15.96445"
         inkscape:connector-curvature="0" />
      <path
         id="path382"
         style="fill:none;stroke:#000000"
         d="m 864.84565,498.42559 a 7.559055,7.559055 0 0 0 5.82226,8.96549"
         inkscape:connector-curvature="0" />
      <path
         id="path384"
         style="fill:none;stroke:#000000"
         d="m 870.66791,507.39108 53.64867,11.40338"
         inkscape:connector-curvature="0" />
      <path
         id="path386"
         style="fill:none;stroke:#000000"
         d="m 924.31658,518.79446 12.95298,2.56507"
         inkscape:connector-curvature="0" />
      <path
         id="path388"
         style="fill:none;stroke:#000000"
         d="m 937.26956,521.35953 3.0529,4.70104"
         inkscape:connector-curvature="0" />
      <path
         id="path390"
         style="fill:none;stroke:#000000"
         d="m 948.77299,449.87866 1.86828,-8.78955 -2.91113,-4.48275 -44.36323,-9.42969 -4.48274,2.91112 -11.29992,53.16194 a 3.779528,3.779528 0 0 0 2.91113,4.48275 l 0.003,6.7e-4 0.009,0.006 44.36322,9.4297 4.48275,-2.9111 9.4297,-44.3633 z"
         inkscape:connector-curvature="0" />
    </g>
  </g>
</svg>
