<?xml version="1.0" encoding="UTF-8" standalone="no"?>
<!-- Created with Inkscape (http://www.inkscape.org/) -->

<svg
   xmlns:dc="http://purl.org/dc/elements/1.1/"
   xmlns:cc="http://creativecommons.org/ns#"
   xmlns:rdf="http://www.w3.org/1999/02/22-rdf-syntax-ns#"
   xmlns:svg="http://www.w3.org/2000/svg"
   xmlns="http://www.w3.org/2000/svg"
   xmlns:sodipodi="http://sodipodi.sourceforge.net/DTD/sodipodi-0.dtd"
   xmlns:inkscape="http://www.inkscape.org/namespaces/inkscape"
   width="355mm"
   height="140mm"
   viewBox="0 0 355 140"
   version="1.1"
   id="svg8"
   inkscape:version="0.92.4 (5da689c313, 2019-01-14)"
   sodipodi:docname="L4.svg">
  <defs
     id="defs2">
    <marker
       style="overflow:visible"
       refY="0.0"
       refX="0.0"
       orient="auto"
       id="DistanceX">
      <path
         id="path12"
         style="stroke:#000000; stroke-width:0.5"
         d="M 3,-3 L -3,3 M 0,-5 L  0,5" />
    </marker>
    <pattern
       y="0"
       x="0"
       width="8"
       patternUnits="userSpaceOnUse"
       id="Hatch"
       height="8">
      <path
         id="path15"
         stroke-width="0.25"
         stroke="#000000"
         linecap="square"
         d="M8 4 l-4,4" />
      <path
         id="path17"
         stroke-width="0.25"
         stroke="#000000"
         linecap="square"
         d="M6 2 l-4,4" />
      <path
         id="path19"
         stroke-width="0.25"
         stroke="#000000"
         linecap="square"
         d="M4 0 l-4,4" />
    </pattern>
    <symbol
       id="*MODEL_SPACE" />
    <symbol
       id="*PAPER_SPACE" />
  </defs>
  <sodipodi:namedview
     id="base"
     pagecolor="#ffffff"
     bordercolor="#666666"
     borderopacity="1.0"
     inkscape:pageopacity="0.0"
     inkscape:pageshadow="2"
     inkscape:zoom="0.35"
     inkscape:cx="400"
     inkscape:cy="217.14286"
     inkscape:document-units="mm"
     inkscape:current-layer="layer1"
     showgrid="false"
     inkscape:window-width="1920"
     inkscape:window-height="1017"
     inkscape:window-x="2552"
     inkscape:window-y="250"
     inkscape:window-maximized="1" />
  <metadata
     id="metadata5">
    <rdf:RDF>
      <cc:Work
         rdf:about="">
        <dc:format>image/svg+xml</dc:format>
        <dc:type
           rdf:resource="http://purl.org/dc/dcmitype/StillImage" />
        <dc:title></dc:title>
      </cc:Work>
    </rdf:RDF>
  </metadata>
  <g
     inkscape:label="Layer 1"
     inkscape:groupmode="layer"
     id="layer1"
     transform="translate(0,-157)">
    <g
       id="g128"
       inkscape:label="0"
       transform="matrix(0,0.26458333,-0.26458333,0,281.89304,29.724752)">
      <path
         id="path26"
         style="fill:none;stroke:#000000"
         d="m 913.0813,1056.0007 15.1181,-15.1181"
         inkscape:connector-curvature="0" />
      <path
         id="path28"
         style="fill:none;stroke:#000000"
         d="M 928.1994,1040.8826 V 740.6621"
         inkscape:connector-curvature="0" />
      <path
         id="path30"
         style="fill:none;stroke:#000000"
         d="M 928.1994,740.6621 993.45875,433.64243"
         inkscape:connector-curvature="0" />
      <path
         id="path32"
         style="fill:none;stroke:#000000"
         d="M 993.45875,433.64243 V 360.05981"
         inkscape:connector-curvature="0" />
      <path
         id="path34"
         style="fill:none;stroke:#000000"
         d="M 993.45875,360.05981 928.1994,53.040164"
         inkscape:connector-curvature="0" />
      <path
         id="path36"
         style="fill:none;stroke:#000000"
         d="M 928.1994,53.040164 V -247.18037"
         inkscape:connector-curvature="0" />
      <path
         id="path38"
         style="fill:none;stroke:#000000"
         d="m 928.1994,-247.18037 -15.11811,-15.1181"
         inkscape:connector-curvature="0" />
      <path
         id="path40"
         style="fill:none;stroke:#000000"
         d="M 913.08129,-262.29847 H 516.29339"
         inkscape:connector-curvature="0" />
      <path
         id="path42"
         style="fill:none;stroke:#000000"
         d="m 516.29339,-262.29847 -15.11811,15.1181"
         inkscape:connector-curvature="0" />
      <path
         id="path44"
         style="fill:none;stroke:#000000"
         d="m 501.17528,-247.18037 v 623.811"
         inkscape:connector-curvature="0" />
      <path
         id="path46"
         style="fill:none;stroke:#000000"
         d="m 501.17528,376.63063 0.55349,1.33629"
         inkscape:connector-curvature="0" />
      <path
         id="path48"
         style="fill:none;stroke:#000000"
         d="m 501.72877,377.96692 1.33628,0.55351"
         inkscape:connector-curvature="0" />
      <path
         id="path50"
         style="fill:none;stroke:#000000"
         d="m 503.06505,378.52043 h 38.79973"
         inkscape:connector-curvature="0" />
      <path
         id="path52"
         style="fill:none;stroke:#000000"
         d="m 541.86478,378.52043 1.88976,1.8897"
         inkscape:connector-curvature="0" />
      <path
         id="path54"
         style="fill:none;stroke:#000000"
         d="m 543.75454,380.41013 v 32.8819"
         inkscape:connector-curvature="0" />
      <path
         id="path56"
         style="fill:none;stroke:#000000"
         d="m 543.75454,413.29203 -0.55348,1.33629"
         inkscape:connector-curvature="0" />
      <path
         id="path58"
         style="fill:none;stroke:#000000"
         d="m 543.20106,414.62832 -1.33628,0.55351"
         inkscape:connector-curvature="0" />
      <path
         id="path60"
         style="fill:none;stroke:#000000"
         d="M 541.86478,415.18183 H 503.06505"
         inkscape:connector-curvature="0" />
      <path
         id="path62"
         style="fill:none;stroke:#000000"
         d="m 503.06505,415.18183 -1.33628,0.55351"
         inkscape:connector-curvature="0" />
      <path
         id="path64"
         style="fill:none;stroke:#000000"
         d="m 501.72877,415.73534 -0.55349,1.33629"
         inkscape:connector-curvature="0" />
      <path
         id="path66"
         style="fill:none;stroke:#000000"
         d="M 501.17528,417.07163 V 1040.8826"
         inkscape:connector-curvature="0" />
      <path
         id="path68"
         style="fill:none;stroke:#000000"
         d="m 501.17528,1040.8826 15.11811,15.1181"
         inkscape:connector-curvature="0" />
      <path
         id="path70"
         style="fill:none;stroke:#000000"
         d="m 516.29339,1056.0007 h 396.7879"
         inkscape:connector-curvature="0" />
      <path
         id="path72"
         style="fill:none;stroke:#000000"
         d="m 664.78012,958.46205 -2.67255,-1.10702 h -45.35433 l -2.67256,1.10702 -1.10697,2.67258 v 45.35427 l 3.77953,3.7795 h 45.35433 l 3.77953,-3.7795 v -45.35427 z"
         inkscape:connector-curvature="0" />
      <path
         id="path74"
         style="fill:none;stroke:#000000"
         d="m 900.64968,685.49533 -44.36324,-9.4297 -4.48273,2.9111 -9.4297,44.3632 0.52713,2.84432 2.384,1.63848 44.36322,9.4297 2.84431,-0.52719 1.63844,-2.38401 9.4297,-44.3632 z"
         inkscape:connector-curvature="0" />
      <path
         id="path76"
         style="fill:none;stroke:#000000"
         d="m 768.84142,-233.83387 -3.77952,3.7795 v 45.3543 l 3.77952,3.7795 h 45.35434 l 3.77952,-3.7795 v -45.3543 l -3.77952,-3.7795 z"
         inkscape:connector-curvature="0" />
      <path
         id="path78"
         style="fill:none;stroke:#000000"
         d="m 688.75324,1025.6511 h 45.35433 l 3.77953,-3.7795 v -45.35437 l -3.77953,-3.7795 h -45.35433 l -3.77953,3.7795 v 45.35437 z"
         inkscape:connector-curvature="0" />
      <path
         id="path80"
         style="fill:none;stroke:#000000"
         d="m 765.0619,-85.700069 3.77952,3.779501 h 45.35434 l 3.77952,-3.779501 v -45.354301 l -3.77952,-3.7795 h -45.35434 l -3.77952,3.7795 z"
         inkscape:connector-curvature="0" />
      <path
         id="path82"
         style="fill:none;stroke:#000000"
         d="m 673.97528,-134.81497 v -45.3544 l -3.77952,-3.7795 h -45.35434 l -3.77952,3.7795 v 45.3544 l 3.77952,3.7795 h 45.35434 z"
         inkscape:connector-curvature="0" />
      <path
         id="path84"
         style="fill:none;stroke:#000000"
         d="m 842.37401,105.24733 9.4297,44.3632 1.63843,2.38402 2.8443,0.52718 44.36324,-9.4297 2.38399,-1.63848 0.52714,-2.84432 -9.4297,-44.363199 -4.48275,-2.911098 -44.36322,9.429697 z"
         inkscape:connector-curvature="0" />
      <path
         id="path86"
         style="fill:none;stroke:#000000"
         d="m 889.97529,932.59913 v -45.3543 l -3.77953,-3.7795 h -45.35434 l -3.77952,3.7795 v 45.3543 l 1.10697,2.67258 2.67255,1.10702 h 45.35434 l 2.67255,-1.10702 z"
         inkscape:connector-curvature="0" />
      <path
         id="path88"
         style="fill:none;stroke:#000000"
         d="m 544.75323,28.234832 -3.77953,3.779497 V 77.36863 l 2.17304,3.4211 2.09045,2.6354 4.90992,23.0993 -2.91112,4.4827 h -0.004 l -2.91113,4.4827 54.33862,255.6431 1.63843,2.38402 2.84431,0.52718 63.01507,-13.3943 4.48275,2.9111 5.9155,27.8303 4.48275,2.9111 44.36322,-9.4297 2.91113,-4.4827 -2.17039,-10.2109 0.52713,-2.84432 2.384,-1.63848 81.70864,-17.3677 2.8443,0.52718 1.63844,2.38402 5.91551,27.8302 1.63843,2.38402 2.84431,0.52718 44.36323,-9.4297 2.38399,-1.63848 0.52714,-2.84432 -4.67865,-22.0113 2.91113,-4.4827 70.45338,-14.9754 2.91113,-4.4827 -4.32195,-20.3331 -1.63844,-2.38401 -2.8443,-0.52719 -1.84845,0.3929 -2.24138,-1.4555 -12.18002,-57.3026 1.45556,-2.2413 1.84845,-0.3929 2.38399,-1.63848 0.52714,-2.84432 -4.32194,-20.3331 -4.48275,-2.9111 -70.45338,14.9753 -4.48275,-2.9111 -25.00513,-117.64 -0.0215,-1.4626 -0.0215,-1.4625 -1.99538,-9.3876 1.51123,-3.8692 1.59382,-3.083498 v -117.3543 l -3.77952,-3.779501 h -64.44095 l -3.77953,-3.779501 v -12.6993 l -3.77952,-3.779497 -64.44096,9.98e-4 -3.77953,-3.779501 v -30.273997 l -1.10697,-2.672576 -2.67255,-1.107027 h -45.35434 l -2.67255,1.107023 -1.10697,2.67258 v 44.182598 l -1.10697,2.672575 -2.67256,1.107024 h -64.44095 l -3.77952,3.779501 v 62.853502 l -1.10697,2.672576 -2.67256,1.107023 z"
         inkscape:connector-curvature="0" />
      <path
         id="path90"
         style="fill:none;stroke:#000000"
         d="m 864.84565,498.42559 3.39335,-15.96445 4.67797,-21.94251 -2.91112,-4.4827 -44.36323,-9.4297 -4.48274,2.9111 -5.90782,27.7941 -4.48275,2.9111 -63.02276,-13.3959 -2.84431,0.52718 -1.63843,2.38402 -2.17356,10.2257 -4.48273,2.9111 -81.71236,-17.3684 -2.38399,-1.63848 -0.52714,-2.84432 5.91562,-27.8308 -2.91113,-4.4827 -44.36322,-9.4297 -4.48275,2.9111 -54.33862,255.6431 -6.84507,32.2035 -1.95128,2.5665 -2.03387,3.3522 v 45.3543 l 1.10697,2.67258 2.67256,1.10702 h 0.52913 l 3.77953,3.7795 v 62.8913 l 1.10697,2.67258 2.67255,1.10702 h 45.35434 l 2.67255,-1.10702 1.10697,-2.67258 v -12.6992 l 3.77953,-3.7795 h 64.44095 l 2.87219,-1.3228 2.87219,-1.3229 h 85.34223 l 3.77953,-3.7795 v -12.6614 l 1.10697,-2.67257 2.67255,-1.10703 h 45.35434 l 3.77952,-3.7795 v -70.5379 l 0.27082,-1.4049 0.18824,-0.6191 17.61222,-82.612 4.48227,-2.9088 5.83584,1.2404 64.69638,13.7517 2.8443,-0.52718 1.63844,-2.38402 4.32195,-20.3331 -0.52714,-2.84432 -2.38399,-1.63848 -1.84847,-0.3929 -1.45557,-2.2413 12.18003,-57.3026 2.24137,-1.4555 1.84847,0.3929 4.48274,-2.9111 5.91928,-27.84816 -3.0529,-4.70104 -12.95298,-2.56507 -53.64867,-11.40338 a 7.559055,7.559055 0 0 1 -5.82226,-8.96549 z"
         inkscape:connector-curvature="0" />
      <path
         id="path92"
         style="fill:none;stroke:#000000"
         d="m 696.84095,858.73742 -3.77953,3.7795 4.8e-4,63.35471 3.77952,3.7795 h 45.35434 l 3.77952,-3.7795 v -63.3544 l -3.77952,-3.7795 h -1.6e-4 l -3.2e-4,-3.1e-4 z"
         inkscape:connector-curvature="0" />
      <path
         id="path94"
         style="fill:none;stroke:#000000"
         d="m 552.84095,-61.266058 h 45.35433 l 2.92914,-2.929122 10.29968,6.11e-4 3.77953,-3.779501 v -111.4961 l -3.77953,-3.7795 -10.29968,-3.1e-4 -2.92914,-2.92912 h -45.35433 l -2.92914,2.92912 -4.62944,3.1e-4 -3.77953,3.7795 v 20.7874 l 1.10697,2.67258 2.67256,1.10702 h 1.88976 l 1.88977,1.8897 v 58.5827 l -0.55349,1.336289 -1.33628,0.553512 h -1.88976 l -3.77953,3.779501 v 20.787398 l 3.77953,3.779501 4.62944,-6.11e-4 z"
         inkscape:connector-curvature="0" />
      <path
         id="path96"
         style="fill:none;stroke:#000000"
         d="m 891.03355,1034.2684 7.55036,-7.559 -7.55036,-7.5591 h -34.01576 l -7.55035,7.5591 7.55035,7.559 z"
         inkscape:connector-curvature="0" />
      <path
         id="path98"
         style="fill:none;stroke:#000000"
         d="m 520.07292,181.32353 -5.31891,3.07088 v 6.14174 l 5.31891,3.07088 5.31891,-3.07088 v -6.14174 z"
         inkscape:connector-curvature="0" />
      <path
         id="path100"
         style="fill:none;stroke:#000000"
         d="m 525.39183,603.16611 -5.31891,-3.07088 -5.31891,3.07088 v 6.14175 l 5.31891,3.07087 5.31891,-3.07087 z"
         inkscape:connector-curvature="0" />
      <path
         id="path102"
         style="fill:none;stroke:#000000"
         d="m 520.07292,-249.54257 -5.31891,3.07088 v 6.14175 l 5.31891,3.07087 5.31891,-3.07087 v -6.14175 z"
         inkscape:connector-curvature="0" />
      <path
         id="path104"
         style="fill:none;stroke:#000000"
         d="m 831.20363,938.68423 v -111.4961 l -3.77953,-3.7795 h -66.14173 l -3.77953,3.7795 v 20.7874 l 3.77953,3.7795 h 1.88977 l 1.33627,0.55352 0.55349,1.33628 v 58.5827 l -1.88976,1.8897 h -1.88977 l -2.67255,1.10703 -1.10697,2.67257 v 20.7874 l 3.77952,3.7795 h 66.14174 z"
         inkscape:connector-curvature="0" />
      <path
         id="path106"
         style="fill:none;stroke:#000000"
         d="m 753.53434,-181.56777 v -20.7874 l -3.77953,-3.7795 h -66.14173 l -3.77953,3.7795 v 111.496102 l 3.77953,3.779498 h 66.14173 l 3.77953,-3.779498 v -20.787402 l -1.10698,-2.67258 -2.67255,-1.10702 h -1.88976 l -1.88977,-1.8897 v -58.5827 l 0.55349,-1.33629 1.33628,-0.55351 h 1.88976 z"
         inkscape:connector-curvature="0" />
      <path
         id="path108"
         style="fill:none;stroke:#000000"
         d="m 525.39183,1034.0322 -5.31891,-3.0709 -5.31891,3.0709 v 6.1418 l 5.31891,3.0708 5.31891,-3.0708 z"
         inkscape:connector-curvature="0" />
      <path
         id="path110"
         style="fill:none;stroke:#000000"
         d="m 621.0619,856.13933 v 45.3543 l 3.77952,3.7795 h 45.35434 l 3.77952,-3.7795 v -45.3543 l -3.77952,-3.7795 h -45.35434 z"
         inkscape:connector-curvature="0" />
      <path
         id="path112"
         style="fill:none;stroke:#000000"
         d="m 544.75324,994.54563 h 45.35433 l 3.77952,-3.7795 v -45.3544 l -3.77952,-3.7795 h -45.35433 l -3.77953,3.7795 v 45.3544 z"
         inkscape:connector-curvature="0" />
      <path
         id="path114"
         style="fill:none;stroke:#000000"
         d="m 550.16887,906.43391 2.67255,1.10702 h 45.35434 l 2.67255,-1.10702 1.10697,-2.67258 v -45.3543 l -3.77952,-3.7795 h -45.35434 l -3.77952,3.7795 v 45.3543 z"
         inkscape:connector-curvature="0" />
      <path
         id="path116"
         style="fill:none;stroke:#000000"
         d="m 890.1567,-152.78897 v -45.3543 l -3.77954,-3.7795 h -45.35432 l -3.77952,3.7795 v 45.3543 l 1.10696,2.67258 2.67256,1.10702 h 45.35432 l 2.67256,-1.10702 z"
         inkscape:connector-curvature="0" />
      <path
         id="path118"
         style="fill:none;stroke:#000000"
         d="m 914.62067,1040.174 v -6.1418 l -5.31891,-3.0709 -5.31891,3.0709 v 6.1418 l 5.31891,3.0708 z"
         inkscape:connector-curvature="0" />
      <path
         id="path120"
         style="fill:none;stroke:#000000"
         d="m 903.98285,-240.32994 5.31891,3.07087 5.31891,-3.07087 v -6.14176 l -5.31891,-3.07087 -5.31891,3.07087 z"
         inkscape:connector-curvature="0" />
      <path
         id="path122"
         style="fill:none;stroke:#000000"
         d="m 940.14975,606.237 -5.3189,3.07086 v 6.14174 l 5.3189,3.07086 5.3189,-3.07086 v -6.14174 z"
         inkscape:connector-curvature="0" />
      <path
         id="path124"
         style="fill:none;stroke:#000000"
         d="m 945.46865,178.25266 -5.3189,-3.07086 -5.3189,3.07086 v 6.14174 l 5.3189,3.07086 5.3189,-3.07086 z"
         inkscape:connector-curvature="0" />
      <path
         id="path126"
         style="fill:none;stroke:#000000"
         d="m 948.77299,449.87866 1.86828,-8.78955 -2.91113,-4.48275 -44.36323,-9.42969 -4.48274,2.91112 -11.29992,53.16194 a 3.779528,3.779528 0 0 0 2.91113,4.48275 l 0.003,6.7e-4 0.009,0.006 44.36322,9.4297 4.48275,-2.9111 9.4297,-44.3633 z"
         inkscape:connector-curvature="0" />
    </g>
  </g>
</svg>
