0
SECTION
2
HEADER
9
$INSUNITS
70
4
9
$ACADVER
1
AC1014
9
$HANDSEED
5
FFFF
0
ENDSEC
0
SECTION
2
TABLES
0
TABLE
2
VPORT
5
8
100
AcDbSymbolTable
0
ENDTAB
0
TABLE
2
LTYPE
5
5
100
AcDbSymbolTable
0
LTYPE
5
14
100
AcDbSymbolTableRecord
100
AcDbLinetypeTableRecord
2
BYBLOCK
70
0
0
LTYPE
5
15
100
AcDbSymbolTableRecord
100
AcDbLinetypeTableRecord
2
BYLAYER
70
0
0
ENDTAB
0
TABLE
2
LAYER
5
2
100
AcDbSymbolTable
70
2
0
LAYER
5
50
100
AcDbSymbolTableRecord
100
AcDbLayerTableRecord
2
0
70
0
6
CONTINUOUS
0
ENDTAB
0
TABLE
2
STYLE
5
3
100
AcDbSymbolTable
70
1
0
STYLE
5
11
100
AcDbSymbolTableRecord
100
AcDbTextStyleTableRecord
2
STANDARD
70
0
0
ENDTAB
0
TABLE
2
VIEW
5
6
100
AcDbSymbolTable
70
0
0
ENDTAB
0
TABLE
2
UCS
5
7
100
AcDbSymbolTable
70
0
0
ENDTAB
0
TABLE
2
APPID
5
9
100
AcDbSymbolTable
70
2
0
APPID
5
12
100
AcDbSymbolTableRecord
100
AcDbRegAppTableRecord
2
ACAD
70
0
0
ENDTAB
0
TABLE
2
DIMSTYLE
5
A
100
AcDbSymbolTable
70
1
0
ENDTAB
0
TABLE
2
BLOCK_RECORD
5
1
100
AcDbSymbolTable
70
1
0
BLOCK_RECORD
5
1F
100
AcDbSymbolTableRecord
100
AcDbBlockTableRecord
2
*MODEL_SPACE
0
BLOCK_RECORD
5
1B
100
AcDbSymbolTableRecord
100
AcDbBlockTableRecord
2
*PAPER_SPACE
0
ENDTAB
0
ENDSEC
0
SECTION
2
BLOCKS
0
BLOCK
5
20
100
AcDbEntity
100
AcDbBlockBegin
2
*MODEL_SPACE
0
ENDBLK
5
21
100
AcDbEntity
100
AcDbBlockEnd
0
BLOCK
5
1C
100
AcDbEntity
100
AcDbBlockBegin
2
*PAPER_SPACE
0
ENDBLK
5
1D
100
AcDbEntity
100
AcDbBlockEnd
0
ENDSEC
0
SECTION
2
ENTITIES
0
LWPOLYLINE
5
100
100
AcDbEntity
8
0
100
AcDbPolyline
90
6
70
1
43
0.0
10
250.15524578114974
20
249.83731599999993
10
248.74795450000005
20
250.64981599999993
10
247.34066321885035
20
249.83731599999993
10
247.34066321885035
20
248.21231599999993
10
248.74795450000005
20
247.39981599999993
10
250.15524578114974
20
248.21231599999999
0
LWPOLYLINE
5
101
100
AcDbEntity
8
0
100
AcDbPolyline
90
6
70
1
43
0.0
10
248.74795449999999
20
136.59979400000003
10
247.3406632188503
20
135.78729400000003
10
247.3406632188503
20
134.16229400000003
10
248.74795449999999
20
133.34979400000006
10
250.15524578114969
20
134.16229400000003
10
250.15524578114969
20
135.78729400000003
0
LWPOLYLINE
5
102
100
AcDbEntity
8
0
100
AcDbPolyline
90
6
70
1
43
0.0
10
239.17879557520206
20
360.58729800000015
10
240.58609157520206
20
359.77479600000009
10
241.99338657520204
20
360.58729800000009
10
241.99338657520204
20
362.21230300000008
10
240.58609157520206
20
363.02480500000013
10
239.17879557520206
20
362.21230300000008
0
LWPOLYLINE
5
103
100
AcDbEntity
8
0
100
AcDbPolyline
90
6
70
1
43
0.0
10
241.99338657520204
20
21.787308000000017
10
241.99338657520204
20
23.412312000000025
10
240.58609157520206
20
24.224815000000017
10
239.17879557520206
20
23.412312000000025
10
239.17879557520206
20
21.787308000000017
10
240.58609157520206
20
20.974805000000018
0
LWPOLYLINE
5
104
100
AcDbEntity
8
0
100
AcDbPolyline
90
6
70
1
43
0.0
10
139.00992299999999
20
23.412312
10
137.60262800000001
20
24.224814000000009
10
136.19533300000001
20
23.412312
10
136.19533300000001
20
21.787307000000009
10
137.60262800000001
20
20.974805
10
139.00992299999999
20
21.787307000000009
0
LWPOLYLINE
5
105
100
AcDbEntity
8
0
100
AcDbPolyline
90
75
70
1
43
0.0
10
195.04146000000006
20
192.732463
10
195.98760800000002
20
193.38273400000006
10
196.19681400000002
20
194.511574
10
195.62213100000002
20
197.21521900000002
10
195.69186700000003
20
197.591499
10
196.00725
20
197.808256
10
212.66882800000002
20
201.34978300000003
10
213.26185699999999
20
200.96468200000004
10
214.82700199999999
20
193.601248
10
215.47726400000002
20
192.65510900000007
10
216.60608999999999
20
192.44589200000001
10
251.934079
20
199.955085
10
253.08943200000002
20
201.73417000000001
10
242.485578
20
251.62138400000003
10
242.75080400000007
20
252.17243100000007
10
243.54647499999999
20
253.82557399999999
10
238.02018100000001
20
279.82474999999999
10
237.36991900000004
20
280.77089000000001
10
236.24109100000001
20
280.98010599999998
10
220.05646300000006
20
277.53994
10
219.637843
20
277.640444
10
219.45250600000006
20
278.029023
10
219.45250600000006
20
328.12541600000003
10
219.95250800000002
20
328.62539900000002
10
237.05050700000001
20
328.62539900000002
10
238.11116800000008
20
329.06473999999997
10
238.55050700000004
20
330.12540200000001
10
238.55050700000004
20
356.72539300000005
10
238.11116800000008
20
357.78605499999998
10
237.05050700000001
20
358.22539499999999
10
219.95250800000002
20
358.22539499999999
10
219.59895000000003
20
358.37184500000001
10
219.45250600000006
20
358.72540500000008
10
219.45250600000006
20
360.39855000000011
10
219.01316700000001
20
361.45921199999998
10
217.952507
20
361.89855299999999
10
200.89250700000002
20
361.89855299999999
10
199.83184600000001
20
361.45921199999998
10
199.39250700000002
20
360.39855
10
199.39250700000002
20
358.21981300000004
10
199.24606299999999
20
357.86625199999997
10
198.89250500000003
20
357.71980300000001
10
181.84250700000004
20
357.71980300000001
10
180.78184599999997
20
357.280462
10
180.34250700000001
20
356.21980100000002
10
180.34250700000001
20
353.95980900000006
10
180.19606300000004
20
353.6062490000001
10
179.84250500000005
20
353.45979999999997
10
162.79250700000003
20
353.45979999999997
10
161.73184599999996
20
353.02045900000002
10
161.292507
20
351.95979700000009
10
161.292507
20
349.78981700000008
10
161.14606300000003
20
349.43625700000007
10
160.79250500000001
20
349.28980799999999
10
143.74250700000005
20
349.28980799999999
10
142.68184599999998
20
348.85046699999998
10
142.24250700000005
20
347.789805
10
142.24250700000005
20
293.05981700000007
10
142.09606399999996
20
292.70625700000005
10
141.74250800000004
20
292.55980699999998
10
141.60250600000001
20
292.55980699999998
10
140.54184599999996
20
292.12046600000002
10
140.102507
20
291.05980499999998
10
140.102507
20
272.52984299999997
10
140.10383000000002
20
272.469809
10
140.20749300000003
20
269.881708
10
140.239071
20
269.62987800000002
10
155.95529500000001
20
195.69084799999999
10
156.605557
20
194.744709
10
157.73438200000001
20
194.535492
10
174.41872200000006
20
198.081861
10
174.79499900000005
20
198.01211900000001
10
175.011751
20
197.69673400000002
10
176.57529499999995
20
190.34084100000004
10
178.35438300000004
20
189.18551099999999
0
LWPOLYLINE
5
106
100
AcDbEntity
8
0
100
AcDbPolyline
90
6
70
1
43
0.0
10
139.00992299999999
20
362.21230200000002
10
137.60262800000001
20
363.02480500000001
10
136.19533300000001
20
362.21230200000002
10
136.19533300000001
20
360.58729800000003
10
137.60262800000001
20
359.77479500000015
10
139.00992299999999
20
360.58729800000003
0
LWPOLYLINE
5
107
100
AcDbEntity
8
0
100
AcDbPolyline
90
34
70
1
43
0.0
10
178.77328899999995
20
46.290456000000006
10
177.712628
20
46.729796999999998
10
160.66262900000001
20
46.729796999999998
10
160.30907100000005
20
46.876246000000002
10
160.16262800000004
20
47.229805999999996
10
160.16262800000004
20
49.389812000000006
10
159.72328900000005
20
50.450473000000002
10
158.66262800000001
20
50.889814000000015
10
141.60262800000004
20
50.889814000000015
10
140.541967
20
50.450473000000009
10
140.10262800000001
20
49.389812000000006
10
140.10262800000001
20
32.329796000000002
10
140.541967
20
31.269134000000001
10
141.60262800000001
20
30.829792999999981
10
158.65262899999999
20
30.829792999999999
10
159.15262799999999
20
30.329809999999995
10
159.15262799999999
20
28.169805
10
159.59196700000001
20
27.109143000000007
10
160.65262799999999
20
26.669802999999987
10
177.70262900000003
20
26.669803000000005
10
178.05618500000006
20
26.52335200000001
10
178.202628
20
26.169793000000006
10
178.202628
20
24.099799000000001
10
178.64196700000005
20
23.039137000000004
10
179.702628
20
22.599796999999988
10
196.76262800000003
20
22.599797000000002
10
197.82328899999999
20
23.039137000000004
10
198.26262800000001
20
24.099798999999997
10
198.26262800000001
20
41.159815000000002
10
197.82328899999999
20
42.220475999999998
10
196.76262800000003
20
42.659817000000011
10
179.71262899999999
20
42.659817000000004
10
179.212628
20
43.159799999999997
10
179.212628
20
45.229794000000005
0
LWPOLYLINE
5
108
100
AcDbEntity
8
0
100
AcDbPolyline
90
6
70
1
43
0.0
10
137.60262800000001
20
134.974794
10
139.00992299999999
20
135.787296
10
139.00992299999999
20
137.41230100000001
10
137.60262800000001
20
138.22480300000001
10
136.19533300000001
20
137.41230100000001
10
136.19533300000001
20
135.787296
0
LWPOLYLINE
5
109
100
AcDbEntity
8
0
100
AcDbPolyline
90
71
70
1
43
0.0
10
219.45262800000006
20
96.740596999999994
10
219.63797500000001
20
97.129158000000018
10
220.05658400000002
20
97.229653000000013
10
236.24121299999999
20
93.789513999999997
10
237.37003999999999
20
93.998730000000009
10
238.02030300000001
20
94.944869999999995
10
243.54659400000006
20
120.94404599999999
10
242.74587800000003
20
122.59970199999998
10
242.47897399999999
20
123.15157000000001
10
255.01693500000002
20
182.13804300000004
10
253.861582
20
183.91712799999999
10
237.17438300000001
20
187.46410600000002
10
236.04555700000003
20
187.25488899999999
10
235.39529500000003
20
186.30875
10
233.876621
20
179.16396799999998
10
233.65986900000001
20
178.84858100000002
10
233.28358900000001
20
178.77884
10
216.60438300000007
20
182.32412500000007
10
215.47555700000004
20
182.11490800000004
10
214.82529600000007
20
181.168769
10
213.26218200000002
20
173.81488700000003
10
212.66915299999999
20
173.42978500000001
10
195.994384
20
176.97411700000001
10
194.86555600000003
20
176.76490100000001
10
194.215294
20
175.81876100000005
10
193.64063999999999
20
173.11522199999999
10
193.04761100000007
20
172.730121
10
176.37731299999999
20
176.27350100000004
10
175.99219299999999
20
176.86651100000003
10
177.556937
20
184.22803999999999
10
177.34772900000007
20
185.35688099999999
10
176.40158100000005
20
186.00715099999999
10
159.71438400000005
20
189.554102
10
157.935294
20
188.39877300000001
10
141.68654100000001
20
111.95437699999999
10
141.29875699999999
20
111.56869400000002
10
140.10262800000001
20
110.099807
10
140.10262800000001
20
93.039817000000014
10
140.541967
20
91.979156000000003
10
141.60262800000001
20
91.539815000000004
10
141.74263000000002
20
91.539815000000004
10
142.09618600000005
20
91.393364999999989
10
142.24262899999999
20
91.039805000000001
10
142.24262899999999
20
55.349816000000011
10
142.68196799999996
20
54.289154000000011
10
143.742628
20
53.849812999999997
10
160.79262700000001
20
53.849812999999997
10
161.14618500000003
20
53.703364000000001
10
161.29262900000001
20
53.349803999999992
10
161.29262900000001
20
51.18979800000001
10
161.73196799999999
20
50.129137
10
162.79262800000001
20
49.689796000000008
10
179.84262699999999
20
49.689796000000008
10
180.34262899999999
20
49.189812999999987
10
180.34262899999999
20
47.119819000000007
10
180.78196800000001
20
46.059156999999999
10
181.84262799999999
20
45.619817000000005
10
198.89262700000003
20
45.619816999999998
10
199.24618500000005
20
45.47336700000001
10
199.39262900000003
20
45.119807000000023
10
199.39262900000003
20
42.949800000000018
10
199.83196800000002
20
41.889139
10
200.892628
20
41.449798000000015
10
237.00262799999996
20
41.449798000000008
10
238.06328900000008
20
41.889138999999993
10
238.50262799999999
20
42.949800000000025
10
238.50262799999999
20
69.549818000000002
10
237.00262800000002
20
71.049793999999977
10
219.95263
20
71.049793999999977
10
219.59907200000004
20
71.196243000000038
10
219.452628
20
71.549802999999983
0
LWPOLYLINE
5
110
100
AcDbEntity
8
0
100
AcDbPolyline
90
6
70
1
43
0.0
10
139.00992299999999
20
248.21231299999999
10
137.60262800000001
20
249.02481600000002
10
136.19533300000001
20
248.21231299999999
10
136.19533300000001
20
246.587309
10
137.60262800000001
20
245.77480600000001
10
139.00992299999999
20
246.587309
0
LINE
5
111
100
AcDbEntity
8
0
100
AcDbLine
10
241.58609407520245
20
17.599804500000836
30
0
11
245.58609157520195
21
21.599804000000017
31
0
0
LINE
5
112
100
AcDbEntity
8
0
100
AcDbLine
10
245.58609157520195
20
21.599804000000017
30
0
11
245.58609157520203
21
101.03315350100846
31
0
0
LINE
5
113
100
AcDbEntity
8
0
100
AcDbLine
10
245.58609157520203
20
101.03315350100846
30
0
11
262.85262799999998
21
182.2654399999999
31
0
0
LINE
5
114
100
AcDbEntity
8
0
100
AcDbLine
10
262.85262799999998
20
182.2654399999999
30
0
11
262.85262799999998
21
201.73417000000006
31
0
0
LINE
5
115
100
AcDbEntity
8
0
100
AcDbLine
10
262.85262799999998
20
201.73417000000006
30
0
11
245.58609157520206
21
282.96645649899153
31
0
0
LINE
5
116
100
AcDbEntity
8
0
100
AcDbLine
10
245.58609157520206
20
282.96645649899153
30
0
11
245.58609157520206
21
362.39980599999996
31
0
0
LINE
5
117
100
AcDbEntity
8
0
100
AcDbLine
10
245.58609157520206
20
362.39980599999996
30
0
11
241.58609157520203
21
366.39980400000007
31
0
0
LINE
5
118
100
AcDbEntity
8
0
100
AcDbLine
10
241.58609157520203
20
366.39980400000007
30
0
11
136.60262700000001
21
366.39980299999996
31
0
0
LINE
5
119
100
AcDbEntity
8
0
100
AcDbLine
10
136.60262700000001
20
366.39980299999996
30
0
11
132.60262700000001
21
362.39980600000001
31
0
0
LINE
5
120
100
AcDbEntity
8
0
100
AcDbLine
10
132.60262700000001
20
362.39980600000001
30
0
11
132.60262699999998
21
21.59980400000002
31
0
0
LINE
5
121
100
AcDbEntity
8
0
100
AcDbLine
10
132.60262699999998
20
21.59980400000002
30
0
11
136.60262700000001
21
17.599807000000006
31
0
0
LINE
5
122
100
AcDbEntity
8
0
100
AcDbLine
10
136.60262700000001
20
17.599807000000006
30
0
11
241.58609157520203
21
17.599807000000006
31
0
0
ENDSEC
0
SECTION
2
OBJECTS
0
DICTIONARY
5
C
100
AcDbDictionary
3
ACAD_GROUP
350
D
3
ACAD_MLINESTYLE
350
17
0
DICTIONARY
5
D
100
AcDbDictionary
0
DICTIONARY
5
1A
330
C
100
AcDbDictionary
0
DICTIONARY
5
17
100
AcDbDictionary
0
ENDSEC
0
EOF
