0
SECTION
2
HEADER
9
$INSUNITS
70
4
9
$ACADVER
1
AC1014
9
$HANDSEED
5
FFFF
0
ENDSEC
0
SECTION
2
TABLES
0
TABLE
2
VPORT
5
8
100
AcDbSymbolTable
0
ENDTAB
0
TABLE
2
LTYPE
5
5
100
AcDbSymbolTable
0
LTYPE
5
14
100
AcDbSymbolTableRecord
100
AcDbLinetypeTableRecord
2
BYBLOCK
70
0
0
LTYPE
5
15
100
AcDbSymbolTableRecord
100
AcDbLinetypeTableRecord
2
BYLAYER
70
0
0
ENDTAB
0
TABLE
2
LAYER
5
2
100
AcDbSymbolTable
70
2
0
LAYER
5
50
100
AcDbSymbolTableRecord
100
AcDbLayerTableRecord
2
0
70
0
6
CONTINUOUS
0
ENDTAB
0
TABLE
2
STYLE
5
3
100
AcDbSymbolTable
70
1
0
STYLE
5
11
100
AcDbSymbolTableRecord
100
AcDbTextStyleTableRecord
2
STANDARD
70
0
0
ENDTAB
0
TABLE
2
VIEW
5
6
100
AcDbSymbolTable
70
0
0
ENDTAB
0
TABLE
2
UCS
5
7
100
AcDbSymbolTable
70
0
0
ENDTAB
0
TABLE
2
APPID
5
9
100
AcDbSymbolTable
70
2
0
APPID
5
12
100
AcDbSymbolTableRecord
100
AcDbRegAppTableRecord
2
ACAD
70
0
0
ENDTAB
0
TABLE
2
DIMSTYLE
5
A
100
AcDbSymbolTable
70
1
0
ENDTAB
0
TABLE
2
BLOCK_RECORD
5
1
100
AcDbSymbolTable
70
1
0
BLOCK_RECORD
5
1F
100
AcDbSymbolTableRecord
100
AcDbBlockTableRecord
2
*MODEL_SPACE
0
BLOCK_RECORD
5
1B
100
AcDbSymbolTableRecord
100
AcDbBlockTableRecord
2
*PAPER_SPACE
0
ENDTAB
0
ENDSEC
0
SECTION
2
BLOCKS
0
BLOCK
5
20
100
AcDbEntity
100
AcDbBlockBegin
2
*MODEL_SPACE
0
ENDBLK
5
21
100
AcDbEntity
100
AcDbBlockEnd
0
BLOCK
5
1C
100
AcDbEntity
100
AcDbBlockBegin
2
*PAPER_SPACE
0
ENDBLK
5
1D
100
AcDbEntity
100
AcDbBlockEnd
0
ENDSEC
0
SECTION
2
ENTITIES
0
LWPOLYLINE
5
100
100
AcDbEntity
8
0
100
AcDbPolyline
90
6
70
1
43
0.0
10
250.15524578114974
20
249.83731599999993
10
248.74795450000005
20
250.64981599999993
10
247.34066321885035
20
249.83731599999993
10
247.34066321885035
20
248.21231599999993
10
248.74795450000005
20
247.39981599999993
10
250.15524578114974
20
248.21231599999999
0
LWPOLYLINE
5
101
100
AcDbEntity
8
0
100
AcDbPolyline
90
6
70
1
43
0.0
10
248.74795449999999
20
136.59979400000003
10
247.3406632188503
20
135.78729400000003
10
247.3406632188503
20
134.16229400000003
10
248.74795449999999
20
133.34979400000006
10
250.15524578114969
20
134.16229400000003
10
250.15524578114969
20
135.78729400000003
0
LWPOLYLINE
5
102
100
AcDbEntity
8
0
100
AcDbPolyline
90
6
70
1
43
0.0
10
239.17879557520206
20
360.58729800000015
10
240.58609157520206
20
359.77479600000009
10
241.99338657520204
20
360.58729800000009
10
241.99338657520204
20
362.21230300000008
10
240.58609157520206
20
363.02480500000013
10
239.17879557520206
20
362.21230300000008
0
LWPOLYLINE
5
103
100
AcDbEntity
8
0
100
AcDbPolyline
90
6
70
1
43
0.0
10
241.99338657520204
20
21.787308000000017
10
241.99338657520204
20
23.412312000000025
10
240.58609157520206
20
24.224815000000017
10
239.17879557520206
20
23.412312000000025
10
239.17879557520206
20
21.787308000000017
10
240.58609157520206
20
20.974805000000018
0
LWPOLYLINE
5
104
100
AcDbEntity
8
0
100
AcDbPolyline
90
75
70
1
43
0.0
10
142.68184599999995
20
348.85046700000009
10
142.24250699999996
20
347.78980600000006
10
142.24250699999996
20
293.05981700000001
10
142.09606399999996
20
292.7062580000001
10
141.74250799999996
20
292.55980800000003
10
141.60250599999995
20
292.55980800000003
10
140.54184599999996
20
292.12046700000002
10
140.10250699999997
20
291.05980500000004
10
140.10250699999997
20
272.52984400000008
10
140.10382999999996
20
272.46981000000005
10
140.20749399999997
20
269.88170900000006
10
140.23907199999996
20
269.62987800000008
10
155.95529499999995
20
195.69084900000004
10
156.60555699999998
20
194.74470900000006
10
157.73438299999998
20
194.53549300000003
10
174.41872199999995
20
198.08186200000006
10
174.79499999999996
20
198.0121190000001
10
175.01175099999998
20
197.69673400000002
10
176.57529599999998
20
190.34084100000007
10
178.35438299999996
20
189.18551200000002
10
195.041461
20
192.73246300000008
10
195.98760799999997
20
193.38273400000003
10
196.19681399999996
20
194.51157400000005
10
195.62213099999997
20
197.21521900000002
10
195.69186699999995
20
197.59150000000002
10
196.007251
20
197.80825600000003
10
212.66882799999993
20
201.34978300000012
10
213.26185699999996
20
200.96468200000001
10
214.82700199999996
20
193.60124900000002
10
215.47726399999993
20
192.65511000000004
10
216.60608999999997
20
192.44589300000007
10
251.93407899999997
20
199.95508500000005
10
253.08943299999999
20
201.73417000000006
10
242.485578
20
251.62138400000006
10
242.75080500000001
20
252.1724320000001
10
243.54647499999999
20
253.82557500000001
10
238.02018199999998
20
279.82475000000005
10
237.36991899999995
20
280.77089000000001
10
236.24109099999998
20
280.98010600000009
10
220.05646299999998
20
277.53994100000006
10
219.63784299999992
20
277.64044399999995
10
219.45250600000003
20
278.02902300000005
10
219.45250600000003
20
328.12541700000008
10
219.95250799999997
20
328.62540000000001
10
237.05050699999998
20
328.62540000000001
10
238.11116799999996
20
329.06474100000003
10
238.55050699999998
20
330.12540200000001
10
238.55050699999998
20
356.72539300000017
10
238.11116799999996
20
357.78605500000003
10
237.05050699999998
20
358.22539600000005
10
219.95250800000002
20
358.22539600000005
10
219.59894999999992
20
358.37184500000001
10
219.45250600000003
20
358.72540500000008
10
219.45250600000003
20
360.39855100000017
10
219.01316699999998
20
361.45921200000009
10
217.95250699999997
20
361.89855300000011
10
200.89250699999997
20
361.89855300000011
10
199.83184599999998
20
361.45921200000009
10
199.39250699999997
20
360.39855100000017
10
199.39250699999997
20
358.2198130000001
10
199.24606299999996
20
357.86625300000003
10
198.89250499999997
20
357.71980300000001
10
181.84250700000001
20
357.71980300000001
10
180.781846
20
357.28046300000005
10
180.34250699999998
20
356.21980100000007
10
180.34250699999998
20
353.95981000000018
10
180.19606299999998
20
353.6062490000001
10
179.84250499999996
20
353.45980000000003
10
162.792507
20
353.45980000000003
10
161.73184599999996
20
353.02045900000007
10
161.29250699999997
20
351.95979800000009
10
161.29250699999997
20
349.78981800000014
10
161.14606299999997
20
349.43625700000018
10
160.79250499999998
20
349.28980800000011
10
143.74250699999999
20
349.28980800000011
0
LWPOLYLINE
5
105
100
AcDbEntity
8
0
100
AcDbPolyline
90
6
70
1
43
0.0
10
137.60262799999995
20
245.77480700000007
10
139.00992399999996
20
246.58730900000006
10
139.00992399999996
20
248.21231400000002
10
137.60262799999995
20
249.02481600000002
10
136.19533299999998
20
248.21231400000002
10
136.19533299999998
20
246.58730900000006
0
LWPOLYLINE
5
106
100
AcDbEntity
8
0
100
AcDbPolyline
90
6
70
1
43
0.0
10
139.00992399999996
20
135.787297
10
139.00992399999996
20
137.41230100000001
10
137.60262799999995
20
138.22480400000001
10
136.19533299999998
20
137.41230099999999
10
136.19533299999998
20
135.787297
10
137.60262799999995
20
134.97479400000003
0
LWPOLYLINE
5
107
100
AcDbEntity
8
0
100
AcDbPolyline
90
34
70
1
43
0.0
10
160.16262799999996
20
49.389812000000035
10
159.72328899999997
20
50.450473000000031
10
158.66262799999998
20
50.889814000000015
10
141.60262799999995
20
50.889814000000015
10
140.54196699999997
20
50.450473000000038
10
140.10262899999998
20
49.389812000000042
10
140.10262899999998
20
32.329796000000037
10
140.54196699999997
20
31.26913500000002
10
141.60262799999995
20
30.829794000000028
10
158.65262999999996
20
30.829794000000028
10
159.15262899999996
20
30.329811000000042
10
159.15262899999996
20
28.169805000000018
10
159.59196699999995
20
27.109144000000018
10
160.65262799999996
20
26.669803000000023
10
177.70262999999997
20
26.669803000000019
10
178.05618599999997
20
26.523353000000025
10
178.20262899999994
20
26.169793000000006
10
178.20262899999994
20
24.099799000000019
10
178.64196699999994
20
23.039138000000019
10
179.70262799999998
20
22.599797000000059
10
196.76262799999995
20
22.59979700000002
10
197.82328899999996
20
23.039138000000019
10
198.26262799999998
20
24.099798999999997
10
198.26262799999998
20
41.15981500000003
10
197.82328899999996
20
42.220477000000017
10
196.76262799999995
20
42.659817000000011
10
179.71262899999999
20
42.659817000000018
10
179.21262799999997
20
43.159800000000033
10
179.21262799999997
20
45.229795000000017
10
178.77328899999998
20
46.29045600000002
10
177.71262799999994
20
46.729797000000026
10
160.66262899999998
20
46.729797000000019
10
160.30907199999999
20
46.87624600000003
10
160.16262799999996
20
47.229806000000032
0
LWPOLYLINE
5
108
100
AcDbEntity
8
0
100
AcDbPolyline
90
6
70
1
43
0.0
10
137.60262799999995
20
20.974805000000018
10
139.00992399999996
20
21.787308000000017
10
139.00992399999996
20
23.412312000000025
10
137.60262799999995
20
24.224815000000017
10
136.19533299999998
20
23.412312000000025
10
136.19533299999998
20
21.787308000000017
0
LWPOLYLINE
5
109
100
AcDbEntity
8
0
100
AcDbPolyline
90
71
70
1
43
0.0
10
160.79262699999998
20
53.849814000000038
10
161.146185
20
53.703364000000029
10
161.29262899999998
20
53.349804000000027
10
161.29262899999998
20
51.189799000000029
10
161.73196799999999
20
50.129137000000021
10
162.79262799999998
20
49.689796000000008
10
179.84262699999994
20
49.68979600000003
10
180.34262899999993
20
49.189813000000022
10
180.34262899999993
20
47.119819000000021
10
180.78196799999998
20
46.059158000000018
10
181.84262799999999
20
45.619817000000005
10
198.89262699999995
20
45.619817000000026
10
199.24618499999997
20
45.473367000000017
10
199.39262899999994
20
45.119807000000023
10
199.39262899999994
20
42.949801000000008
10
199.83196799999999
20
41.889139000000021
10
200.89262799999997
20
41.449798000000015
10
237.00262799999996
20
41.449798000000015
10
238.06328900000005
20
41.889139000000021
10
238.50262799999999
20
42.949801000000001
10
238.50262799999999
20
69.549818000000016
10
237.00262799999996
20
71.04979400000002
10
219.95263
20
71.04979400000002
10
219.59907199999998
20
71.196244000000021
10
219.45262799999995
20
71.549804000000023
10
219.45262799999995
20
96.74059800000002
10
219.63797499999998
20
97.129159000000016
10
220.05658499999998
20
97.229654000000039
10
236.24121299999999
20
93.789514999999994
10
237.37004100000001
20
93.998729999999995
10
238.02030299999998
20
94.944871000000035
10
243.54659399999997
20
120.94404600000001
10
242.745878
20
122.59970299999999
10
242.47897399999999
20
123.15157100000005
10
255.01693500000002
20
182.13804400000009
10
253.86158199999997
20
183.91712799999999
10
237.17438299999998
20
187.46410600000002
10
236.04555699999997
20
187.25488900000002
10
235.395295
20
186.30875000000003
10
233.876621
20
179.16396800000007
10
233.65986899999999
20
178.84858200000008
10
233.28359
20
178.77884100000003
10
216.60438299999998
20
182.32412500000004
10
215.47555699999998
20
182.11490800000001
10
214.82529599999995
20
181.168769
10
213.26218199999997
20
173.81488700000006
10
212.66915299999997
20
173.42978600000004
10
195.99438399999997
20
176.97411800000003
10
194.86555699999997
20
176.76490199999995
10
194.21529399999997
20
175.81876200000005
10
193.64063999999999
20
173.11522300000004
10
193.04761100000002
20
172.73012200000005
10
176.37731299999999
20
176.27350100000007
10
175.99219399999996
20
176.86651200000006
10
177.55693699999995
20
184.22804000000002
10
177.34772999999996
20
185.35688099999999
10
176.40158099999996
20
186.00715100000002
10
159.71438399999997
20
189.55410300000005
10
157.93529399999997
20
188.39877300000006
10
141.68654099999995
20
111.95437800000005
10
141.29875699999997
20
111.56869400000002
10
140.10262899999998
20
110.09980700000003
10
140.10262899999998
20
93.039817999999997
10
140.54196699999997
20
91.979156000000017
10
141.60262799999995
20
91.539815000000033
10
141.74262999999996
20
91.539815000000004
10
142.09618599999996
20
91.393364999999989
10
142.24262899999997
20
91.039806000000027
10
142.24262899999997
20
55.349816000000025
10
142.68196799999996
20
54.289155000000029
10
143.74262799999997
20
53.849814000000045
0
LWPOLYLINE
5
110
100
AcDbEntity
8
0
100
AcDbPolyline
90
6
70
1
43
0.0
10
137.60262799999995
20
359.77479600000009
10
139.00992399999996
20
360.58729800000015
10
139.00992399999996
20
362.21230300000008
10
137.60262799999995
20
363.02480500000013
10
136.19533299999998
20
362.21230300000008
10
136.19533299999998
20
360.58729800000009
0
LINE
5
111
100
AcDbEntity
8
0
100
AcDbLine
10
241.58609157520203
20
17.59980199999919
30
0
11
245.58609157520195
21
21.599804000000017
31
0
0
LINE
5
112
100
AcDbEntity
8
0
100
AcDbLine
10
245.58609157520195
20
21.599804000000017
30
0
11
245.58609157520203
21
101.03315350100846
31
0
0
LINE
5
113
100
AcDbEntity
8
0
100
AcDbLine
10
245.58609157520203
20
101.03315350100846
30
0
11
262.85262799999998
21
182.2654399999999
31
0
0
LINE
5
114
100
AcDbEntity
8
0
100
AcDbLine
10
262.85262799999998
20
182.2654399999999
30
0
11
262.85262799999998
21
201.73417000000006
31
0
0
LINE
5
115
100
AcDbEntity
8
0
100
AcDbLine
10
262.85262799999998
20
201.73417000000006
30
0
11
245.58609157520206
21
282.96645649899153
31
0
0
LINE
5
116
100
AcDbEntity
8
0
100
AcDbLine
10
245.58609157520206
20
282.96645649899153
30
0
11
245.58609157520206
21
362.39980599999996
31
0
0
LINE
5
117
100
AcDbEntity
8
0
100
AcDbLine
10
245.58609157520206
20
362.39980599999996
30
0
11
241.58609157520203
21
366.39980400000007
31
0
0
LINE
5
118
100
AcDbEntity
8
0
100
AcDbLine
10
241.58609157520203
20
366.39980400000007
30
0
11
136.60262799999995
21
366.39980400000007
31
0
0
LINE
5
119
100
AcDbEntity
8
0
100
AcDbLine
10
136.60262799999995
20
366.39980400000007
30
0
11
132.60262799999995
21
362.39980600000001
31
0
0
LINE
5
120
100
AcDbEntity
8
0
100
AcDbLine
10
132.60262799999995
20
362.39980600000001
30
0
11
132.60262799999995
21
21.59980400000002
31
0
0
LINE
5
121
100
AcDbEntity
8
0
100
AcDbLine
10
132.60262799999995
20
21.59980400000002
30
0
11
136.60262799999995
21
17.599807000000016
31
0
0
LINE
5
122
100
AcDbEntity
8
0
100
AcDbLine
10
136.60262799999995
20
17.599807000000016
30
0
11
241.58609157520203
21
17.599807000000016
31
0
0
ENDSEC
0
SECTION
2
OBJECTS
0
DICTIONARY
5
C
100
AcDbDictionary
3
ACAD_GROUP
350
D
3
ACAD_MLINESTYLE
350
17
0
DICTIONARY
5
D
100
AcDbDictionary
0
DICTIONARY
5
1A
330
C
100
AcDbDictionary
0
DICTIONARY
5
17
100
AcDbDictionary
0
ENDSEC
0
EOF
