<?xml version="1.0" encoding="UTF-8" standalone="no"?>
<!-- Created with Inkscape (http://www.inkscape.org/) -->

<svg
   xmlns:dc="http://purl.org/dc/elements/1.1/"
   xmlns:cc="http://creativecommons.org/ns#"
   xmlns:rdf="http://www.w3.org/1999/02/22-rdf-syntax-ns#"
   xmlns:svg="http://www.w3.org/2000/svg"
   xmlns="http://www.w3.org/2000/svg"
   xmlns:sodipodi="http://sodipodi.sourceforge.net/DTD/sodipodi-0.dtd"
   xmlns:inkscape="http://www.inkscape.org/namespaces/inkscape"
   width="210mm"
   height="297mm"
   viewBox="0 0 210 297"
   version="1.1"
   id="svg8"
   inkscape:version="0.92.4 (5da689c313, 2019-01-14)"
   sodipodi:docname="L6.svg">
  <defs
     id="defs2">
    <marker
       style="overflow:visible"
       refY="0.0"
       refX="0.0"
       orient="auto"
       id="DistanceX">
      <path
         id="path12"
         style="stroke:#000000; stroke-width:0.5"
         d="M 3,-3 L -3,3 M 0,-5 L  0,5" />
    </marker>
    <pattern
       y="0"
       x="0"
       width="8"
       patternUnits="userSpaceOnUse"
       id="Hatch"
       height="8">
      <path
         id="path15"
         stroke-width="0.25"
         stroke="#000000"
         linecap="square"
         d="M8 4 l-4,4" />
      <path
         id="path17"
         stroke-width="0.25"
         stroke="#000000"
         linecap="square"
         d="M6 2 l-4,4" />
      <path
         id="path19"
         stroke-width="0.25"
         stroke="#000000"
         linecap="square"
         d="M4 0 l-4,4" />
    </pattern>
    <symbol
       id="*MODEL_SPACE" />
    <symbol
       id="*PAPER_SPACE" />
    <marker
       style="overflow:visible"
       refY="0.0"
       refX="0.0"
       orient="auto"
       id="DistanceX-8">
      <path
         id="path114"
         style="stroke:#000000; stroke-width:0.5"
         d="M 3,-3 L -3,3 M 0,-5 L  0,5" />
    </marker>
    <pattern
       y="0"
       x="0"
       width="8"
       patternUnits="userSpaceOnUse"
       id="Hatch-1"
       height="8">
      <path
         id="path117"
         stroke-width="0.25"
         stroke="#000000"
         linecap="square"
         d="M8 4 l-4,4" />
      <path
         id="path119"
         stroke-width="0.25"
         stroke="#000000"
         linecap="square"
         d="M6 2 l-4,4" />
      <path
         id="path121"
         stroke-width="0.25"
         stroke="#000000"
         linecap="square"
         d="M4 0 l-4,4" />
    </pattern>
    <symbol
       id="*MODEL_SPACE-7" />
    <symbol
       id="*PAPER_SPACE-3" />
    <marker
       style="overflow:visible"
       refY="0.0"
       refX="0.0"
       orient="auto"
       id="DistanceX-1">
      <path
         id="path210"
         style="stroke:#000000; stroke-width:0.5"
         d="M 3,-3 L -3,3 M 0,-5 L  0,5" />
    </marker>
    <pattern
       y="0"
       x="0"
       width="8"
       patternUnits="userSpaceOnUse"
       id="Hatch-8"
       height="8">
      <path
         id="path213"
         stroke-width="0.25"
         stroke="#000000"
         linecap="square"
         d="M8 4 l-4,4" />
      <path
         id="path215"
         stroke-width="0.25"
         stroke="#000000"
         linecap="square"
         d="M6 2 l-4,4" />
      <path
         id="path217"
         stroke-width="0.25"
         stroke="#000000"
         linecap="square"
         d="M4 0 l-4,4" />
    </pattern>
    <symbol
       id="*MODEL_SPACE-1" />
    <symbol
       id="*PAPER_SPACE-5" />
    <marker
       style="overflow:visible"
       refY="0.0"
       refX="0.0"
       orient="auto"
       id="DistanceX-2">
      <path
         id="path306"
         style="stroke:#000000; stroke-width:0.5"
         d="M 3,-3 L -3,3 M 0,-5 L  0,5" />
    </marker>
    <pattern
       y="0"
       x="0"
       width="8"
       patternUnits="userSpaceOnUse"
       id="Hatch-5"
       height="8">
      <path
         id="path309"
         stroke-width="0.25"
         stroke="#000000"
         linecap="square"
         d="M8 4 l-4,4" />
      <path
         id="path311"
         stroke-width="0.25"
         stroke="#000000"
         linecap="square"
         d="M6 2 l-4,4" />
      <path
         id="path313"
         stroke-width="0.25"
         stroke="#000000"
         linecap="square"
         d="M4 0 l-4,4" />
    </pattern>
    <symbol
       id="*MODEL_SPACE-2" />
    <symbol
       id="*PAPER_SPACE-1" />
    <marker
       style="overflow:visible"
       refY="0.0"
       refX="0.0"
       orient="auto"
       id="DistanceX-16">
      <path
         id="path495"
         style="stroke:#000000; stroke-width:0.5"
         d="M 3,-3 L -3,3 M 0,-5 L  0,5" />
    </marker>
    <pattern
       y="0"
       x="0"
       width="8"
       patternUnits="userSpaceOnUse"
       id="Hatch-89"
       height="8">
      <path
         id="path498"
         stroke-width="0.25"
         stroke="#000000"
         linecap="square"
         d="M8 4 l-4,4" />
      <path
         id="path500"
         stroke-width="0.25"
         stroke="#000000"
         linecap="square"
         d="M6 2 l-4,4" />
      <path
         id="path502"
         stroke-width="0.25"
         stroke="#000000"
         linecap="square"
         d="M4 0 l-4,4" />
    </pattern>
    <symbol
       id="*MODEL_SPACE-72" />
    <symbol
       id="*PAPER_SPACE-9" />
    <marker
       style="overflow:visible"
       refY="0.0"
       refX="0.0"
       orient="auto"
       id="DistanceX-0">
      <path
         id="path681"
         style="stroke:#000000; stroke-width:0.5"
         d="M 3,-3 L -3,3 M 0,-5 L  0,5" />
    </marker>
    <pattern
       y="0"
       x="0"
       width="8"
       patternUnits="userSpaceOnUse"
       id="Hatch-0"
       height="8">
      <path
         id="path684"
         stroke-width="0.25"
         stroke="#000000"
         linecap="square"
         d="M8 4 l-4,4" />
      <path
         id="path686"
         stroke-width="0.25"
         stroke="#000000"
         linecap="square"
         d="M6 2 l-4,4" />
      <path
         id="path688"
         stroke-width="0.25"
         stroke="#000000"
         linecap="square"
         d="M4 0 l-4,4" />
    </pattern>
    <symbol
       id="*MODEL_SPACE-6" />
    <symbol
       id="*PAPER_SPACE-8" />
    <marker
       style="overflow:visible"
       refY="0.0"
       refX="0.0"
       orient="auto"
       id="DistanceX-4">
      <path
         id="path783"
         style="stroke:#000000; stroke-width:0.5"
         d="M 3,-3 L -3,3 M 0,-5 L  0,5" />
    </marker>
    <pattern
       y="0"
       x="0"
       width="8"
       patternUnits="userSpaceOnUse"
       id="Hatch-4"
       height="8">
      <path
         id="path786"
         stroke-width="0.25"
         stroke="#000000"
         linecap="square"
         d="M8 4 l-4,4" />
      <path
         id="path788"
         stroke-width="0.25"
         stroke="#000000"
         linecap="square"
         d="M6 2 l-4,4" />
      <path
         id="path790"
         stroke-width="0.25"
         stroke="#000000"
         linecap="square"
         d="M4 0 l-4,4" />
    </pattern>
    <symbol
       id="*MODEL_SPACE-67" />
    <symbol
       id="*PAPER_SPACE-85" />
  </defs>
  <sodipodi:namedview
     id="base"
     pagecolor="#ffffff"
     bordercolor="#666666"
     borderopacity="1.0"
     inkscape:pageopacity="0.0"
     inkscape:pageshadow="2"
     inkscape:zoom="0.35"
     inkscape:cx="1018.5714"
     inkscape:cy="771.42857"
     inkscape:document-units="mm"
     inkscape:current-layer="layer1"
     showgrid="false"
     inkscape:window-width="2560"
     inkscape:window-height="1361"
     inkscape:window-x="2551"
     inkscape:window-y="-9"
     inkscape:window-maximized="1" />
  <metadata
     id="metadata5">
    <rdf:RDF>
      <cc:Work
         rdf:about="">
        <dc:format>image/svg+xml</dc:format>
        <dc:type
           rdf:resource="http://purl.org/dc/dcmitype/StillImage" />
        <dc:title></dc:title>
      </cc:Work>
    </rdf:RDF>
  </metadata>
  <g
     inkscape:label="Layer 1"
     inkscape:groupmode="layer"
     id="layer1">
    <g
       id="g843"
       inkscape:label="0"
       transform="matrix(0,0.26458333,-0.26458333,0,220.6609,-50.406197)">
      <path
         id="path797"
         style="fill:none;stroke:#000000"
         d="m 945.46865,178.25266 -5.3189,-3.07086 -5.3189,3.07086 v 6.14174 l 5.3189,3.07086 5.3189,-3.07086 z"
         inkscape:connector-curvature="0" />
      <path
         id="path799"
         style="fill:none;stroke:#000000"
         d="m 940.14975,606.237 -5.3189,3.07086 v 6.14174 l 5.3189,3.07086 5.3189,-3.07086 v -6.14174 z"
         inkscape:connector-curvature="0" />
      <path
         id="path801"
         style="fill:none;stroke:#000000"
         d="m 903.98285,-240.32994 5.31891,3.07087 5.31891,-3.07087 v -6.14176 l -5.31891,-3.07087 -5.31891,3.07087 z"
         inkscape:connector-curvature="0" />
      <path
         id="path803"
         style="fill:none;stroke:#000000"
         d="m 914.62067,1040.174 v -6.1418 l -5.31891,-3.0709 -5.31891,3.0709 v 6.1418 l 5.31891,3.0708 z"
         inkscape:connector-curvature="0" />
      <path
         id="path805"
         style="fill:none;stroke:#000000"
         d="m 539.26997,-195.97027 -1.6605,4.0088 v 206.8535 l -0.55348,1.336286 -1.33628,0.553512 h -0.52914 l -4.00879,1.660501 -1.66049,4.008802 v 70.034498 l 0.005,0.2269 0.3918,9.781801 0.11935,0.9518 59.39989,279.4546 2.45769,3.57596 4.26643,0.79074 63.05892,-13.4036 1.42215,0.26359 0.81922,1.19201 5.90946,27.8018 6.72411,4.3666 63.06927,-13.4058 3.57599,-2.45772 0.7907,-4.26648 -2.17204,-10.2185 0.26357,-1.42216 1.19201,-0.81924 62.97289,-13.3853 2.24137,1.4555 5.9155,27.8303 2.45769,3.57596 4.26643,0.79074 133.5231,-28.3812 4.3667,-6.7241 -40.07757,-188.5501 1.00244,-2.0827 3.00725,-6.2481 -20.88677,-98.264599 -2.45769,-3.575962 -4.26644,-0.790738 -61.17024,13.002198 -1.58219,-0.379854 -0.70049,-1.468645 v -189.3407 l 1.88978,-1.8897 h 64.62235 l 4.0088,-1.6605 1.66049,-4.0088 v -100.5354 l -1.66049,-4.0088 -4.0088,-1.6605 h -64.62235 l -1.33629,-0.55351 -0.55349,-1.33629 v -6.3237 l -1.66049,-4.0088 -4.00879,-1.6605 h -64.47874 l -4.0088,1.6605 -1.6605,4.0088 v 8.2346 l -0.55348,1.33629 -1.33629,0.55351 h -64.44093 l -4.0088,1.6605 -1.6605,4.0088 v 8.5417 l -0.55348,1.33629 -1.33629,0.55351 h -64.44093 l -4.0088,1.6605 -1.6605,4.0088 v 8.2015 l -0.55348,1.33629 -1.33629,0.55351 h -64.44093 z"
         inkscape:connector-curvature="0" />
      <path
         id="path807"
         style="fill:none;stroke:#000000"
         d="m 520.07293,193.60703 5.31891,-3.07088 v -6.14175 l -5.31891,-3.07087 -5.31892,3.07087 v 6.14175 z"
         inkscape:connector-curvature="0" />
      <path
         id="path809"
         style="fill:none;stroke:#000000"
         d="m 525.39184,609.30785 v -6.14174 l -5.31891,-3.07088 -5.31892,3.07088 v 6.14174 l 5.31892,3.07088 z"
         inkscape:connector-curvature="0" />
      <path
         id="path811"
         style="fill:none;stroke:#000000"
         d="m 605.33907,935.84953 -1.6605,-4.0088 -4.0088,-1.6605 h -64.47873 l -4.0088,1.6605 -1.66049,4.0088 v 64.47877 l 1.66049,4.0088 4.0088,1.6605 h 64.44095 l 1.88976,1.8897 v 8.1638 l 1.66049,4.0088 4.0088,1.6605 h 64.44095 l 1.33627,0.5535 0.55349,1.3363 v 7.8236 l 1.66049,4.0088 4.0088,1.6605 h 64.47873 l 4.0088,-1.6605 1.6605,-4.0088 v -64.47877 l -1.6605,-4.0088 -4.0088,-1.6605 h -64.44094 l -1.88976,-1.8897 v -7.8236 l -1.6605,-4.0088 -4.0088,-1.6605 h -64.44094 l -1.33627,-0.55351 -0.55349,-1.33629 z"
         inkscape:connector-curvature="0" />
      <path
         id="path813"
         style="fill:none;stroke:#000000"
         d="m 520.07293,1043.2448 5.31891,-3.0708 v -6.1418 l -5.31891,-3.0709 -5.31892,3.0709 v 6.1418 z"
         inkscape:connector-curvature="0" />
      <path
         id="path815"
         style="fill:none;stroke:#000000"
         d="m 607.72016,918.99283 1.33629,0.55351 0.55349,1.33629 v 8.1638 l 1.66049,4.0088 4.00879,1.6605 h 64.44094 l 1.88978,1.8897 v 7.8236 l 1.66049,4.0088 4.00879,1.6605 h 64.44094 l 1.33629,0.55351 0.55349,1.33629 v 8.2016 l 1.66049,4.0088 4.00879,1.6605 h 136.47874 l 4.0088,-1.6605 1.66049,-4.0088 v -100.5355 l -5.66929,-5.6692 h -64.44093 l -1.33629,-0.55351 -0.55349,-1.33629 v -95.2093 l 0.70053,-1.46858 1.58215,-0.37982 61.17024,13.0021 4.26644,-0.79074 2.45768,-3.57596 20.88677,-98.2646 -3.02632,-6.2576 -1.00878,-2.0858 47.38757,-222.941 -4.36668,-6.7241 -63.06973,-13.4059 -4.26643,0.79074 -2.45769,3.57596 -5.73987,27.0039 -0.81922,1.19201 -1.42215,0.26359 -63.03953,-13.3995 -4.26642,0.79074 -2.45768,3.57596 -5.90784,27.7942 -2.24137,1.4555 -63.02274,-13.3959 -4.26644,0.79074 -2.45768,3.57596 -2.17193,10.2181 -2.24136,1.4555 -63.00585,-13.3923 -1.45557,-2.2413 5.91399,-27.8231 -0.79071,-4.26649 -3.57599,-2.45771 -63.06972,-13.4058 -6.72412,4.3666 -61.41261,288.9237 -1.46564,1.4577 -4.5208,5.5517 v 64.4787 l 1.66049,4.0088 4.0088,1.6605 h 0.52914 l 1.33627,0.55351 0.55349,1.33629 v 134.8913 l 1.66049,4.0088 4.00879,1.6605 z"
         inkscape:connector-curvature="0" />
      <path
         id="path817"
         style="fill:none;stroke:#000000"
         d="m 520.07293,-237.25907 5.31891,-3.07087 v -6.14176 l -5.31891,-3.07087 -5.31892,3.07087 v 6.14176 z"
         inkscape:connector-curvature="0" />
      <path
         id="path819"
         style="fill:none;stroke:#000000"
         d="m 913.08129,1056.0007 15.11811,-15.1181"
         inkscape:connector-curvature="0" />
      <path
         id="path821"
         style="fill:none;stroke:#000000"
         d="M 928.1994,1040.8826 V 740.6621"
         inkscape:connector-curvature="0" />
      <path
         id="path823"
         style="fill:none;stroke:#000000"
         d="M 928.1994,740.6621 993.45875,433.64243"
         inkscape:connector-curvature="0" />
      <path
         id="path825"
         style="fill:none;stroke:#000000"
         d="m 993.45875,433.64243 v -73.5826"
         inkscape:connector-curvature="0" />
      <path
         id="path827"
         style="fill:none;stroke:#000000"
         d="M 993.45875,360.05983 928.1994,53.040164"
         inkscape:connector-curvature="0" />
      <path
         id="path829"
         style="fill:none;stroke:#000000"
         d="M 928.1994,53.040164 V -247.18037"
         inkscape:connector-curvature="0" />
      <path
         id="path831"
         style="fill:none;stroke:#000000"
         d="m 928.1994,-247.18037 -15.11811,-15.1181"
         inkscape:connector-curvature="0" />
      <path
         id="path833"
         style="fill:none;stroke:#000000"
         d="M 913.08129,-262.29847 H 516.2934"
         inkscape:connector-curvature="0" />
      <path
         id="path835"
         style="fill:none;stroke:#000000"
         d="m 516.2934,-262.29847 -15.11811,15.1181"
         inkscape:connector-curvature="0" />
      <path
         id="path837"
         style="fill:none;stroke:#000000"
         d="M 501.17529,-247.18037 V 1040.8826"
         inkscape:connector-curvature="0" />
      <path
         id="path839"
         style="fill:none;stroke:#000000"
         d="m 501.17529,1040.8826 15.11811,15.1181"
         inkscape:connector-curvature="0" />
      <path
         id="path841"
         style="fill:none;stroke:#000000"
         d="M 516.2934,1056.0007 H 913.08129"
         inkscape:connector-curvature="0" />
    </g>
  </g>
</svg>
