0
SECTION
2
HEADER
9
$INSUNITS
70
4
9
$ACADVER
1
AC1014
9
$HANDSEED
5
FFFF
0
ENDSEC
0
SECTION
2
TABLES
0
TABLE
2
VPORT
5
8
100
AcDbSymbolTable
0
ENDTAB
0
TABLE
2
LTYPE
5
5
100
AcDbSymbolTable
0
LTYPE
5
14
100
AcDbSymbolTableRecord
100
AcDbLinetypeTableRecord
2
BYBLOCK
70
0
0
LTYPE
5
15
100
AcDbSymbolTableRecord
100
AcDbLinetypeTableRecord
2
BYLAYER
70
0
0
ENDTAB
0
TABLE
2
LAYER
5
2
100
AcDbSymbolTable
70
2
0
LAYER
5
50
100
AcDbSymbolTableRecord
100
AcDbLayerTableRecord
2
0
70
0
6
CONTINUOUS
0
ENDTAB
0
TABLE
2
STYLE
5
3
100
AcDbSymbolTable
70
1
0
STYLE
5
11
100
AcDbSymbolTableRecord
100
AcDbTextStyleTableRecord
2
STANDARD
70
0
0
ENDTAB
0
TABLE
2
VIEW
5
6
100
AcDbSymbolTable
70
0
0
ENDTAB
0
TABLE
2
UCS
5
7
100
AcDbSymbolTable
70
0
0
ENDTAB
0
TABLE
2
APPID
5
9
100
AcDbSymbolTable
70
2
0
APPID
5
12
100
AcDbSymbolTableRecord
100
AcDbRegAppTableRecord
2
ACAD
70
0
0
ENDTAB
0
TABLE
2
DIMSTYLE
5
A
100
AcDbSymbolTable
70
1
0
ENDTAB
0
TABLE
2
BLOCK_RECORD
5
1
100
AcDbSymbolTable
70
1
0
BLOCK_RECORD
5
1F
100
AcDbSymbolTableRecord
100
AcDbBlockTableRecord
2
*MODEL_SPACE
0
BLOCK_RECORD
5
1B
100
AcDbSymbolTableRecord
100
AcDbBlockTableRecord
2
*PAPER_SPACE
0
ENDTAB
0
ENDSEC
0
SECTION
2
BLOCKS
0
BLOCK
5
20
100
AcDbEntity
100
AcDbBlockBegin
2
*MODEL_SPACE
0
ENDBLK
5
21
100
AcDbEntity
100
AcDbBlockEnd
0
BLOCK
5
1C
100
AcDbEntity
100
AcDbBlockBegin
2
*PAPER_SPACE
0
ENDBLK
5
1D
100
AcDbEntity
100
AcDbBlockEnd
0
ENDSEC
0
SECTION
2
ENTITIES
0
LWPOLYLINE
5
100
100
AcDbEntity
8
0
100
AcDbPolyline
90
6
70
1
43
0.0
10
785.31992199999991
20
21.787307000000009
10
785.31992199999991
20
23.412312
10
783.91262700000027
20
24.224814000000009
10
782.50533100000007
20
23.412312
10
782.50533100000007
20
21.787307000000009
10
783.91262700000027
20
20.974805
0
LWPOLYLINE
5
101
100
AcDbEntity
8
0
100
AcDbPolyline
90
6
70
1
43
0.0
10
665.06992200000002
20
248.21231299999999
10
663.66262600000005
20
249.02481600000002
10
662.25533100000007
20
248.21231299999999
10
662.25533100000007
20
246.587309
10
663.66262600000005
20
245.77480600000001
10
665.06992200000002
20
246.587309
0
LWPOLYLINE
5
102
100
AcDbEntity
8
0
100
AcDbPolyline
90
6
70
1
43
0.0
10
783.91262700000027
20
134.974794
10
785.31992199999991
20
135.787296
10
785.31992199999991
20
137.41230100000001
10
783.91262700000027
20
138.22480300000001
10
782.50533100000007
20
137.41230100000001
10
782.50533100000007
20
135.787296
0
LWPOLYLINE
5
103
100
AcDbEntity
8
0
100
AcDbPolyline
90
6
70
1
43
0.0
10
662.25533100000007
20
362.21230200000002
10
662.25533100000007
20
360.58729800000003
10
663.66262600000005
20
359.77479500000015
10
665.06992200000002
20
360.58729800000003
10
665.06992200000002
20
362.21230200000002
10
663.66262600000005
20
363.02480500000001
0
LWPOLYLINE
5
104
100
AcDbEntity
8
0
100
AcDbPolyline
90
6
70
1
43
0.0
10
783.91262700000027
20
249.02481600000002
10
782.50533100000007
20
248.21231299999999
10
782.50533100000007
20
246.587309
10
783.91262700000027
20
245.77480600000001
10
785.31992199999991
20
246.587309
10
785.31992199999991
20
248.21231299999999
0
LWPOLYLINE
5
105
100
AcDbEntity
8
0
100
AcDbPolyline
90
6
70
1
43
0.0
10
662.25533100000007
20
23.412312
10
662.25533100000007
20
21.787307000000009
10
663.66262600000005
20
20.974805
10
665.06992200000002
20
21.787307000000009
10
665.06992200000002
20
23.412312
10
663.66262600000005
20
24.224814000000009
0
LWPOLYLINE
5
106
100
AcDbEntity
8
0
100
AcDbPolyline
90
18
70
1
43
0.0
10
666.6926269999999
20
359.86856400000011
10
666.6926269999999
20
24.629812000000001
10
667.13196600000003
20
23.569151000000002
10
668.19262600000002
20
23.129810000000003
10
762.53262600000028
20
23.129810000000006
10
763.5932889999998
20
23.569150000000004
10
764.03262900000016
20
24.629811999999998
10
764.03262900000016
20
97.164645000000007
10
764.05448300000012
20
97.37255500000002
10
784.12393300000019
20
191.79189500000004
10
784.12393300000019
20
192.20771400000004
10
764.05448300000012
20
286.6270550000001
10
764.03262900000016
20
286.83496500000001
10
764.03262900000016
20
359.86856399999999
10
763.5932889999998
20
360.92922600000003
10
762.53262600000028
20
361.36856599999999
10
668.19262600000002
20
361.36856599999999
10
667.13196600000003
20
360.92922499999997
0
LWPOLYLINE
5
107
100
AcDbEntity
8
0
100
AcDbPolyline
90
6
70
1
43
0.0
10
785.31992199999991
20
362.21230200000002
10
783.91262700000027
20
363.02480500000001
10
782.50533100000007
20
362.21230200000002
10
782.50533100000007
20
360.58729800000003
10
783.91262700000027
20
359.77479500000015
10
785.31992199999991
20
360.58729800000003
0
LWPOLYLINE
5
108
100
AcDbEntity
8
0
100
AcDbPolyline
90
6
70
1
43
0.0
10
663.66262600000005
20
134.974794
10
665.06992200000002
20
135.787296
10
665.06992200000002
20
137.41230100000001
10
663.66262600000005
20
138.22480300000001
10
662.25533100000007
20
137.41230100000001
10
662.25533100000007
20
135.787296
0
LWPOLYLINE
5
109
100
AcDbEntity
8
0
100
AcDbPolyline
90
8
70
1
43
0.0
10
658.66262800000015
20
21.59980400000002
10
658.66262800000015
20
362.39980600000001
10
662.66262800000027
20
366.39980299999996
10
784.91262700000016
20
366.39980300000002
10
788.91262700000027
20
362.39980600000001
10
788.91262700000027
20
21.599803999999999
10
784.91262700000016
20
17.599807000000006
10
662.66262800000027
20
17.599807000000006
0
ENDSEC
0
SECTION
2
OBJECTS
0
DICTIONARY
5
C
100
AcDbDictionary
3
ACAD_GROUP
350
D
3
ACAD_MLINESTYLE
350
17
0
DICTIONARY
5
D
100
AcDbDictionary
0
DICTIONARY
5
1A
330
C
100
AcDbDictionary
0
DICTIONARY
5
17
100
AcDbDictionary
0
ENDSEC
0
EOF
