0
SECTION
2
HEADER
9
$INSUNITS
70
4
9
$ACADVER
1
AC1014
9
$HANDSEED
5
FFFF
0
ENDSEC
0
SECTION
2
TABLES
0
TABLE
2
VPORT
5
8
100
AcDbSymbolTable
0
ENDTAB
0
TABLE
2
LTYPE
5
5
100
AcDbSymbolTable
0
LTYPE
5
14
100
AcDbSymbolTableRecord
100
AcDbLinetypeTableRecord
2
BYBLOCK
70
0
0
LTYPE
5
15
100
AcDbSymbolTableRecord
100
AcDbLinetypeTableRecord
2
BYLAYER
70
0
0
ENDTAB
0
TABLE
2
LAYER
5
2
100
AcDbSymbolTable
70
2
0
LAYER
5
50
100
AcDbSymbolTableRecord
100
AcDbLayerTableRecord
2
0
70
0
6
CONTINUOUS
0
ENDTAB
0
TABLE
2
STYLE
5
3
100
AcDbSymbolTable
70
1
0
STYLE
5
11
100
AcDbSymbolTableRecord
100
AcDbTextStyleTableRecord
2
STANDARD
70
0
0
ENDTAB
0
TABLE
2
VIEW
5
6
100
AcDbSymbolTable
70
0
0
ENDTAB
0
TABLE
2
UCS
5
7
100
AcDbSymbolTable
70
0
0
ENDTAB
0
TABLE
2
APPID
5
9
100
AcDbSymbolTable
70
2
0
APPID
5
12
100
AcDbSymbolTableRecord
100
AcDbRegAppTableRecord
2
ACAD
70
0
0
ENDTAB
0
TABLE
2
DIMSTYLE
5
A
100
AcDbSymbolTable
70
1
0
ENDTAB
0
TABLE
2
BLOCK_RECORD
5
1
100
AcDbSymbolTable
70
1
0
BLOCK_RECORD
5
1F
100
AcDbSymbolTableRecord
100
AcDbBlockTableRecord
2
*MODEL_SPACE
0
BLOCK_RECORD
5
1B
100
AcDbSymbolTableRecord
100
AcDbBlockTableRecord
2
*PAPER_SPACE
0
ENDTAB
0
ENDSEC
0
SECTION
2
BLOCKS
0
BLOCK
5
20
100
AcDbEntity
100
AcDbBlockBegin
2
*MODEL_SPACE
0
ENDBLK
5
21
100
AcDbEntity
100
AcDbBlockEnd
0
BLOCK
5
1C
100
AcDbEntity
100
AcDbBlockBegin
2
*PAPER_SPACE
0
ENDBLK
5
1D
100
AcDbEntity
100
AcDbBlockEnd
0
ENDSEC
0
SECTION
2
ENTITIES
0
LWPOLYLINE
5
100
100
AcDbEntity
8
0
100
AcDbPolyline
90
6
70
1
43
0.0
10
650.99033099999997
20
362.21230200000002
10
650.99033099999997
20
360.58729800000003
10
652.39762700000017
20
359.77479500000015
10
653.80492199999981
20
360.58729800000003
10
653.80492199999981
20
362.21230200000002
10
652.39762700000017
20
363.02480500000001
0
LWPOLYLINE
5
101
100
AcDbEntity
8
0
100
AcDbPolyline
90
6
70
1
43
0.0
10
533.55492199999992
20
135.787296
10
533.55492199999992
20
137.41230100000001
10
532.14762599999995
20
138.22480300000001
10
530.74033099999997
20
137.41230100000001
10
530.74033099999997
20
135.787296
10
532.14762599999995
20
134.974794
0
LWPOLYLINE
5
102
100
AcDbEntity
8
0
100
AcDbPolyline
90
6
70
1
43
0.0
10
650.99033099999997
20
248.21231299999999
10
650.99033099999997
20
246.58730899999998
10
652.39762700000017
20
245.77480600000001
10
653.80492199999981
20
246.587309
10
653.80492199999981
20
248.21231299999999
10
652.39762700000017
20
249.02481600000002
0
LWPOLYLINE
5
103
100
AcDbEntity
8
0
100
AcDbPolyline
90
6
70
1
43
0.0
10
530.74033099999997
20
21.787307000000009
10
532.14762599999995
20
20.974805
10
533.55492199999992
20
21.787307000000009
10
533.55492199999992
20
23.412312
10
532.14762599999995
20
24.224814000000009
10
530.74033099999997
20
23.412312
0
LWPOLYLINE
5
104
100
AcDbEntity
8
0
100
AcDbPolyline
90
6
70
1
43
0.0
10
652.39762700000017
20
24.224814000000009
10
650.99033099999997
20
23.412312
10
650.99033099999997
20
21.787307000000009
10
652.39762700000017
20
20.974805
10
653.80492199999981
20
21.787307000000009
10
653.80492199999981
20
23.412312
0
LWPOLYLINE
5
105
100
AcDbEntity
8
0
100
AcDbPolyline
90
6
70
1
43
0.0
10
652.39762700000017
20
138.22480300000001
10
650.99033099999997
20
137.41230100000001
10
650.99033099999997
20
135.787296
10
652.39762700000017
20
134.974794
10
653.80492199999981
20
135.787296
10
653.80492199999981
20
137.41230100000001
0
LWPOLYLINE
5
106
100
AcDbEntity
8
0
100
AcDbPolyline
90
28
70
1
43
0.0
10
535.61696600000005
20
23.569151000000002
10
536.67762599999992
20
23.129810000000003
10
631.01762600000018
20
23.129810000000006
10
632.07828899999981
20
23.569150000000004
10
632.51762900000017
20
24.629812000000015
10
632.51762900000017
20
97.164645000000007
10
632.53948300000002
20
97.372555000000034
10
652.60893300000021
20
191.79189500000004
10
652.60893300000021
20
192.20771400000004
10
632.53948300000002
20
286.6270550000001
10
632.51762900000017
20
286.83496500000001
10
632.51762900000017
20
359.86856399999999
10
632.07828899999981
20
360.92922600000003
10
631.01762600000029
20
361.36856599999999
10
536.67762600000003
20
361.36856599999999
10
535.61696600000005
20
360.92922499999997
10
535.17762699999992
20
359.86856400000011
10
535.17762699999992
20
198.27500700000002
10
534.17762900000002
20
197.275014
10
530.00572899999997
20
197.275014
10
529.29861500000004
20
196.98211499999999
10
529.00572799999986
20
196.27499499999999
10
529.00572799999998
20
187.724614
10
529.29861500000004
20
187.01749500000003
10
530.00572899999997
20
186.72459499999999
10
534.17762900000002
20
186.72459499999999
10
535.17762699999992
20
185.724603
10
535.17762699999992
20
24.629812000000001
0
LWPOLYLINE
5
107
100
AcDbEntity
8
0
100
AcDbPolyline
90
6
70
1
43
0.0
10
530.74033099999997
20
362.21230200000002
10
530.74033099999997
20
360.58729800000003
10
532.14762599999995
20
359.77479500000015
10
533.55492199999992
20
360.58729800000003
10
533.55492199999992
20
362.21230200000002
10
532.14762599999995
20
363.02480500000001
0
LWPOLYLINE
5
108
100
AcDbEntity
8
0
100
AcDbPolyline
90
6
70
1
43
0.0
10
530.74033099999997
20
246.587309
10
532.14762599999995
20
245.77480600000001
10
533.55492199999992
20
246.587309
10
533.55492199999992
20
248.21231299999999
10
532.14762599999995
20
249.02481600000002
10
530.74033099999997
20
248.21231299999999
0
LWPOLYLINE
5
109
100
AcDbEntity
8
0
100
AcDbPolyline
90
8
70
1
43
0.0
10
531.14762800000005
20
17.599807000000006
10
527.14762800000005
20
21.59980400000002
10
527.14762800000005
20
362.39980600000001
10
531.14762800000017
20
366.39980299999996
10
653.39762700000006
20
366.39980300000002
10
657.39762700000017
20
362.39980600000001
10
657.39762700000017
20
21.599803999999999
10
653.39762700000006
20
17.599806999999998
0
ENDSEC
0
SECTION
2
OBJECTS
0
DICTIONARY
5
C
100
AcDbDictionary
3
ACAD_GROUP
350
D
3
ACAD_MLINESTYLE
350
17
0
DICTIONARY
5
D
100
AcDbDictionary
0
DICTIONARY
5
1A
330
C
100
AcDbDictionary
0
DICTIONARY
5
17
100
AcDbDictionary
0
ENDSEC
0
EOF
