0
SECTION
2
HEADER
9
$INSUNITS
70
4
9
$ACADVER
1
AC1014
9
$HANDSEED
5
FFFF
0
ENDSEC
0
SECTION
2
TABLES
0
TABLE
2
VPORT
5
8
100
AcDbSymbolTable
0
ENDTAB
0
TABLE
2
LTYPE
5
5
100
AcDbSymbolTable
0
LTYPE
5
14
100
AcDbSymbolTableRecord
100
AcDbLinetypeTableRecord
2
BYBLOCK
70
0
0
LTYPE
5
15
100
AcDbSymbolTableRecord
100
AcDbLinetypeTableRecord
2
BYLAYER
70
0
0
ENDTAB
0
TABLE
2
LAYER
5
2
100
AcDbSymbolTable
70
2
0
LAYER
5
50
100
AcDbSymbolTableRecord
100
AcDbLayerTableRecord
2
0
70
0
6
CONTINUOUS
0
ENDTAB
0
TABLE
2
STYLE
5
3
100
AcDbSymbolTable
70
1
0
STYLE
5
11
100
AcDbSymbolTableRecord
100
AcDbTextStyleTableRecord
2
STANDARD
70
0
0
ENDTAB
0
TABLE
2
VIEW
5
6
100
AcDbSymbolTable
70
0
0
ENDTAB
0
TABLE
2
UCS
5
7
100
AcDbSymbolTable
70
0
0
ENDTAB
0
TABLE
2
APPID
5
9
100
AcDbSymbolTable
70
2
0
APPID
5
12
100
AcDbSymbolTableRecord
100
AcDbRegAppTableRecord
2
ACAD
70
0
0
ENDTAB
0
TABLE
2
DIMSTYLE
5
A
100
AcDbSymbolTable
70
1
0
ENDTAB
0
TABLE
2
BLOCK_RECORD
5
1
100
AcDbSymbolTable
70
1
0
BLOCK_RECORD
5
1F
100
AcDbSymbolTableRecord
100
AcDbBlockTableRecord
2
*MODEL_SPACE
0
BLOCK_RECORD
5
1B
100
AcDbSymbolTableRecord
100
AcDbBlockTableRecord
2
*PAPER_SPACE
0
ENDTAB
0
ENDSEC
0
SECTION
2
BLOCKS
0
BLOCK
5
20
100
AcDbEntity
100
AcDbBlockBegin
2
*MODEL_SPACE
0
ENDBLK
5
21
100
AcDbEntity
100
AcDbBlockEnd
0
BLOCK
5
1C
100
AcDbEntity
100
AcDbBlockBegin
2
*PAPER_SPACE
0
ENDBLK
5
1D
100
AcDbEntity
100
AcDbBlockEnd
0
ENDSEC
0
SECTION
2
ENTITIES
0
LWPOLYLINE
5
100
100
AcDbEntity
8
0
100
AcDbPolyline
90
6
70
1
43
0.0
10
400.63024400000012
20
249.02648300000007
10
399.22294800000003
20
248.21398000000002
10
399.22294800000003
20
246.588975
10
400.63024400000012
20
245.77647300000001
10
402.03754000000004
20
246.588975
10
402.03754000000004
20
248.21398000000002
0
LWPOLYLINE
5
101
100
AcDbEntity
8
0
100
AcDbPolyline
90
6
70
1
43
0.0
10
400.63024400000012
20
138.22647000000001
10
399.21858200000003
20
137.415493
10
399.21858200000003
20
135.787465
10
400.63024400000012
20
134.97648700000002
10
402.04190600000004
20
135.787465
10
402.04190600000004
20
137.415493
0
LWPOLYLINE
5
102
100
AcDbEntity
8
0
100
AcDbPolyline
90
6
70
1
43
0.0
10
520.88024400000006
20
24.226481
10
519.47294800000009
20
23.413979000000001
10
519.47294800000009
20
21.788974
10
520.88024400000006
20
20.976472000000005
10
522.28753899999992
20
21.788974
10
522.28753899999992
20
23.413979000000001
0
LWPOLYLINE
5
103
100
AcDbEntity
8
0
100
AcDbPolyline
90
6
70
1
43
0.0
10
520.88024400000006
20
359.77648900000014
10
522.29194000000007
20
360.58745399999998
10
522.29194000000007
20
362.215506
10
520.88024400000006
20
363.02647200000001
10
519.46854800000006
20
362.215506
10
519.46854800000006
20
360.58745399999998
0
LWPOLYLINE
5
104
100
AcDbEntity
8
0
100
AcDbPolyline
90
6
70
1
43
0.0
10
522.28753899999992
20
248.21398000000002
10
520.88024400000006
20
249.02648300000007
10
519.47294800000009
20
248.21398000000002
10
519.47294800000009
20
246.588975
10
520.88024400000006
20
245.77647300000001
10
522.28753899999992
20
246.588975
0
LWPOLYLINE
5
105
100
AcDbEntity
8
0
100
AcDbPolyline
90
6
70
1
43
0.0
10
402.03754000000004
20
21.788974
10
402.03754000000004
20
23.413979000000001
10
400.63024400000012
20
24.226481
10
399.22294900000003
20
23.413979000000001
10
399.22294900000003
20
21.788974
10
400.63024400000012
20
20.976472000000005
0
LWPOLYLINE
5
106
100
AcDbEntity
8
0
100
AcDbPolyline
90
6
70
1
43
0.0
10
400.63024400000012
20
363.02647200000001
10
399.21854800000006
20
362.215506
10
399.21854800000006
20
360.58745399999998
10
400.63024400000012
20
359.77648900000014
10
402.04194000000001
20
360.58745399999998
10
402.04194000000001
20
362.215506
0
LWPOLYLINE
5
107
100
AcDbEntity
8
0
100
AcDbPolyline
90
6
70
1
43
0.0
10
519.46858200000008
20
137.415493
10
519.46858200000008
20
135.78746500000003
10
520.88024400000006
20
134.97648700000002
10
522.29190499999993
20
135.787465
10
522.29190499999993
20
137.415493
10
520.88024400000006
20
138.22647000000001
0
LWPOLYLINE
5
108
100
AcDbEntity
8
0
100
AcDbPolyline
90
40
70
1
43
0.0
10
501.00024300000001
20
286.836658
10
501.00024300000001
20
359.87022999999999
10
500.56090400000011
20
360.93089200000003
10
499.50024300000007
20
361.37023300000004
10
405.16024399999998
20
361.37023300000004
10
404.099583
20
360.93089200000003
10
403.66024400000003
20
359.87023000000011
10
403.66024400000003
20
198.27667400000001
10
402.66024399999998
20
197.27668100000002
10
398.48834500000009
20
197.27668100000002
10
397.66888200000011
20
196.84980300000007
10
396.13262800000001
20
196.84980300000007
10
395.77907199999999
20
196.99625300000002
10
395.63262800000007
20
197.34981200000007
10
395.63262800000007
20
362.39980600000001
10
399.63262900000012
20
366.39980300000002
10
521.88262800000007
20
366.39980299999996
10
525.88262800000007
20
362.39980599999996
10
525.88262799999995
20
21.599803999999999
10
521.88262800000007
20
17.599806999999998
10
399.63262900000018
20
17.599807000000006
10
395.63262800000007
20
21.599803999999985
10
395.63262800000007
20
186.649824
10
396.13262800000001
20
187.14980700000001
10
397.67122499999999
20
187.14980700000001
10
398.48834500000009
20
186.72628900000004
10
402.66024399999998
20
186.72628900000004
10
403.36735800000008
20
186.43338900000001
10
403.66024400000003
20
185.72626900000003
10
403.66024400000003
20
24.631479000000009
10
404.099583
20
23.570817000000002
10
405.16024399999992
20
23.131477000000018
10
499.50024300000001
20
23.131477
10
500.56090400000011
20
23.570817000000002
10
501.00024300000001
20
24.631479000000027
10
501.00024300000001
20
97.166312000000019
10
501.02209800000003
20
97.374222000000003
10
521.09154799999999
20
191.79356200000001
10
521.09154799999999
20
192.20938100000001
10
501.02209800000003
20
286.62874799999997
0
ENDSEC
0
SECTION
2
OBJECTS
0
DICTIONARY
5
C
100
AcDbDictionary
3
ACAD_GROUP
350
D
3
ACAD_MLINESTYLE
350
17
0
DICTIONARY
5
D
100
AcDbDictionary
0
DICTIONARY
5
1A
330
C
100
AcDbDictionary
0
DICTIONARY
5
17
100
AcDbDictionary
0
ENDSEC
0
EOF
