0
SECTION
2
HEADER
9
$INSUNITS
70
4
9
$ACADVER
1
AC1014
9
$HANDSEED
5
FFFF
0
ENDSEC
0
SECTION
2
TABLES
0
TABLE
2
VPORT
5
8
100
AcDbSymbolTable
0
ENDTAB
0
TABLE
2
LTYPE
5
5
100
AcDbSymbolTable
0
LTYPE
5
14
100
AcDbSymbolTableRecord
100
AcDbLinetypeTableRecord
2
BYBLOCK
70
0
0
LTYPE
5
15
100
AcDbSymbolTableRecord
100
AcDbLinetypeTableRecord
2
BYLAYER
70
0
0
ENDTAB
0
TABLE
2
LAYER
5
2
100
AcDbSymbolTable
70
2
0
LAYER
5
50
100
AcDbSymbolTableRecord
100
AcDbLayerTableRecord
2
0
70
0
6
CONTINUOUS
0
ENDTAB
0
TABLE
2
STYLE
5
3
100
AcDbSymbolTable
70
1
0
STYLE
5
11
100
AcDbSymbolTableRecord
100
AcDbTextStyleTableRecord
2
STANDARD
70
0
0
ENDTAB
0
TABLE
2
VIEW
5
6
100
AcDbSymbolTable
70
0
0
ENDTAB
0
TABLE
2
UCS
5
7
100
AcDbSymbolTable
70
0
0
ENDTAB
0
TABLE
2
APPID
5
9
100
AcDbSymbolTable
70
2
0
APPID
5
12
100
AcDbSymbolTableRecord
100
AcDbRegAppTableRecord
2
ACAD
70
0
0
ENDTAB
0
TABLE
2
DIMSTYLE
5
A
100
AcDbSymbolTable
70
1
0
ENDTAB
0
TABLE
2
BLOCK_RECORD
5
1
100
AcDbSymbolTable
70
1
0
BLOCK_RECORD
5
1F
100
AcDbSymbolTableRecord
100
AcDbBlockTableRecord
2
*MODEL_SPACE
0
BLOCK_RECORD
5
1B
100
AcDbSymbolTableRecord
100
AcDbBlockTableRecord
2
*PAPER_SPACE
0
ENDTAB
0
ENDSEC
0
SECTION
2
BLOCKS
0
BLOCK
5
20
100
AcDbEntity
100
AcDbBlockBegin
2
*MODEL_SPACE
0
ENDBLK
5
21
100
AcDbEntity
100
AcDbBlockEnd
0
BLOCK
5
1C
100
AcDbEntity
100
AcDbBlockBegin
2
*PAPER_SPACE
0
ENDBLK
5
1D
100
AcDbEntity
100
AcDbBlockEnd
0
ENDSEC
0
SECTION
2
ENTITIES
0
LWPOLYLINE
5
100
100
AcDbEntity
8
0
100
AcDbPolyline
90
10
70
1
43
0.0
10
307.40474399999999
20
43.406915000000012
10
306.69763
20
43.699815000000008
10
294.69763
20
43.699815000000008
10
293.99051600000007
20
43.406915000000012
10
293.69763
20
42.699795000000009
10
293.69763
20
30.699804
10
294.69763
20
29.699811
10
306.69763000000006
20
29.699810999999997
10
307.697631
20
30.699804
10
307.69763099999994
20
42.699795000000009
0
LWPOLYLINE
5
101
100
AcDbEntity
8
0
100
AcDbPolyline
90
10
70
1
43
0.0
10
369.81189700000016
20
115.62936000000001
10
358.07412499999998
20
118.12430200000001
10
356.88806699999998
20
117.354073
10
354.393126
20
105.61631000000004
10
354.53259700000001
20
104.86375000000001
10
355.16336200000006
20
104.43023600000001
10
366.90113300000002
20
101.93529400000001
10
367.65368899999999
20
102.07477900000001
10
368.08719200000007
20
102.705549
10
370.582133
20
114.443313
0
LWPOLYLINE
5
102
100
AcDbEntity
8
0
100
AcDbPolyline
90
8
70
1
43
0.0
10
334.93762999999996
20
358.86854399999999
10
333.93763000000001
20
357.86855200000002
10
333.93763000000001
20
345.86856000000006
10
334.93763000000001
20
344.86856699999998
10
346.93763000000001
20
344.86856699999998
10
347.93762800000002
20
345.86856000000006
10
347.93762800000002
20
357.86855200000002
10
346.93763000000001
20
358.86854399999999
0
LWPOLYLINE
5
103
100
AcDbEntity
8
0
100
AcDbPolyline
90
8
70
1
43
0.0
10
313.74763000000002
20
25.629805000000001
10
325.74763000000013
20
25.629805000000001
10
326.74763100000001
20
26.629798000000005
10
326.74763100000007
20
38.629815999999998
10
325.74763000000007
20
39.629809000000002
10
313.74762999999996
20
39.629808999999995
10
312.74763000000002
20
38.629815999999998
10
312.74763000000002
20
26.629798000000005
0
LWPOLYLINE
5
104
100
AcDbEntity
8
0
100
AcDbPolyline
90
8
70
1
43
0.0
10
333.93763000000001
20
319.67481000000009
10
334.93763000000001
20
318.67481700000002
10
346.93763000000001
20
318.67481699999996
10
347.93762800000002
20
319.67481000000009
10
347.93762800000002
20
331.674802
10
346.93763000000001
20
332.67479400000008
10
334.93762999999996
20
332.67479400000008
10
333.93763000000001
20
331.674802
0
LWPOLYLINE
5
105
100
AcDbEntity
8
0
100
AcDbPolyline
90
8
70
1
43
0.0
10
309.837628
20
332.66979400000002
10
309.837628
20
344.66981200000015
10
308.83762999999999
20
345.669805
10
296.83762999999993
20
345.669805
10
295.83762999999999
20
344.66981200000015
10
295.83762999999999
20
332.66979400000002
10
296.83762999999999
20
331.66980099999995
10
308.83762999999999
20
331.66980099999989
0
LWPOLYLINE
5
106
100
AcDbEntity
8
0
100
AcDbPolyline
90
10
70
1
43
0.0
10
354.393126
20
269.15331000000003
10
356.88806699999998
20
257.41554700000006
10
357.32157000000001
20
256.78477600000002
10
358.07412499999998
20
256.64529199999998
10
369.81189700000016
20
259.14023300000008
10
370.44266200000004
20
259.57374700000003
10
370.582133
20
260.32630799999998
10
368.08719200000007
20
272.06407099999996
10
366.90113300000002
20
272.83429900000004
10
355.16336200000006
20
270.339358
0
LWPOLYLINE
5
107
100
AcDbEntity
8
0
100
AcDbPolyline
90
10
70
1
43
0.0
10
366.98763100000002
20
50.249813000000003
10
366.98763100000008
20
62.249805000000009
10
365.98763000000008
20
63.249798000000013
10
353.98762999999997
20
63.249798000000013
10
352.98763000000002
20
62.249805000000009
10
352.98763000000002
20
50.249813000000003
10
353.28051699999997
20
49.542694000000004
10
353.98763000000002
20
49.249794000000016
10
365.98763000000008
20
49.249794000000016
10
366.69474400000007
20
49.542694000000004
0
LWPOLYLINE
5
108
100
AcDbEntity
8
0
100
AcDbPolyline
90
76
70
1
43
0.0
10
275.64762700000006
20
289.52953400000001
10
274.647627
20
288.52954199999999
10
274.647627
20
276.52955000000009
10
275.22257800000006
20
275.62438400000008
10
275.77567700000003
20
274.92710099999999
10
277.07475899999997
20
268.81541099999993
10
276.30452400000001
20
267.62936300000001
10
276.30336
20
267.62936300000001
10
275.53312400000004
20
266.44331499999998
10
289.91021699999999
20
198.80441200000007
10
290.34372000000008
20
198.17364100000006
10
291.09627599999999
20
198.03415700000002
10
307.76901299999997
20
201.57806500000004
10
308.95507400000002
20
200.80783700000001
10
310.520216
20
193.44440300000002
10
311.706277
20
192.67417499999999
10
323.44404800000007
20
195.169116
10
324.21428200000008
20
196.355164
10
323.64003300000002
20
199.05679799999999
10
323.77950400000003
20
199.809358
10
324.41027000000014
20
200.24287200000003
10
346.02901400000002
20
204.83807600000006
10
346.7815700000001
20
204.69859200000002
10
347.21507200000013
20
204.06782100000001
10
348.78021799999999
20
196.70441400000001
10
349.21372000000014
20
196.073643
10
349.96627600000005
20
195.93415899999999
10
361.70404700000006
20
198.42910000000003
10
362.334813
20
198.86261400000001
10
362.47428400000001
20
199.61517499999999
10
361.23639100000014
20
205.43899800000005
10
362.00662700000004
20
206.625045
10
380.64741800000007
20
210.58728700000003
10
381.41765400000003
20
211.77333400000003
10
380.27413799999999
20
217.15313399999999
10
379.84063600000007
20
217.78390400000006
10
379.08807999999999
20
217.92338900000004
10
378.59901100000002
20
217.819434
10
378.00597900000008
20
218.20453499999999
10
374.78334899999999
20
233.365848
10
375.16846600000002
20
233.95885899999999
10
375.657535
20
234.06281300000003
10
376.28829999999999
20
234.49632700000001
10
376.42777100000001
20
235.24888799999999
10
375.28425800000002
20
240.62868699999999
10
374.09819700000008
20
241.39891500000002
10
355.4574070000001
20
237.436701
10
354.27134799999999
20
238.206929
10
347.65540499999997
20
269.33251300000001
10
347.64971700000012
20
269.719492
10
347.64402799999999
20
270.10644500000001
10
347.116084
20
272.59024800000009
10
347.51593000000014
20
273.61397400000004
10
347.93762800000002
20
274.42981600000002
10
347.93762800000002
20
305.47980799999999
10
346.93763000000001
20
306.4798009999999
10
329.88762900000006
20
306.4798009999999
10
328.88762800000001
20
307.47979400000008
10
328.88762800000001
20
310.83981699999998
10
327.88763000000012
20
311.839809
10
310.83762599999994
20
311.83954500000016
10
309.837626
20
312.839538
10
309.83762599999994
20
320.84953300000006
10
309.54473999999999
20
321.55665199999999
10
308.837628
20
321.84955300000007
10
296.837627
20
321.84955300000007
10
296.13051300000001
20
321.5566530000001
10
295.837627
20
320.84953300000001
10
295.83762699999994
20
309.15955400000007
10
295.54474099999999
20
308.45243500000009
10
294.837627
20
308.15953500000001
10
277.78762700000004
20
308.15953500000001
10
276.78762699999999
20
307.15954199999999
10
276.78762699999993
20
290.52955299999996
10
276.49474100000009
20
289.8224340000001
10
275.78762699999999
20
289.52953400000001
0
LWPOLYLINE
5
109
100
AcDbEntity
8
0
100
AcDbPolyline
90
69
70
1
43
0.0
10
373.63683500000002
20
133.63928300000003
10
373.2517150000001
20
134.232294
10
376.47434800000008
20
149.39360700000003
10
377.06737800000008
20
149.77870800000002
10
377.55645199999998
20
149.67475300000001
10
378.74251000000004
20
150.44498200000004
10
379.88602299999997
20
155.82480699999999
10
379.11579000000012
20
157.01085500000002
10
361.99820600000004
20
160.64932600000003
10
360.47406799999999
20
160.97328200000007
10
359.843143
20
161.40704600000004
10
359.703959
20
162.15993800000004
10
362.47428600000001
20
175.15444499999998
10
361.70405000000011
20
176.34049299999998
10
349.96627899999999
20
178.83543500000005
10
348.78022000000016
20
178.06520600000005
10
347.21710999999999
20
170.71135000000004
10
346.031049
20
169.94112200000001
10
329.35627900000014
20
173.48545400000003
10
328.603722
20
173.34597000000002
10
328.17021899999997
20
172.71519900000001
10
327.59513300000009
20
170.00964900000002
10
326.40907499999997
20
169.23942
10
304.78934800000002
20
173.83481
10
304.15858300000002
20
174.26832399999998
10
304.01911200000001
20
175.02088400000005
10
305.58428600000002
20
182.38444999999999
10
304.81405000000001
20
183.57049700000002
10
293.076279
20
186.06543900000003
10
291.89022
20
185.29521
10
277.513126
20
117.65630700000004
10
275.70203499999997
20
109.135797
10
275.18575900000002
20
108.456744
10
274.64762999999999
20
107.56980800000001
10
274.64762999999999
20
95.569816000000003
10
274.940516
20
94.862696999999997
10
275.64762999999999
20
94.569796999999994
10
275.78762999999998
20
94.569796999999994
10
276.78762999999998
20
93.569804000000005
10
276.78762999999998
20
76.929814000000007
10
277.08051599999999
20
76.222695000000002
10
277.78762999999998
20
75.929794999999999
10
289.78763000000009
20
75.929794999999999
10
290.49474300000003
20
76.222694999999987
10
290.78762999999998
20
76.929813999999993
10
290.78762999999998
20
80.289811000000014
10
291.78762999999998
20
81.289804000000032
10
308.83762999999999
20
81.289804000000032
10
309.59756400000015
20
81.639794999999978
10
310.35749800000008
20
81.989812000000001
10
332.93762900000013
20
81.989812000000001
10
333.93763000000001
20
82.989805000000004
10
333.93763000000001
20
86.339799999999997
10
334.23051700000002
20
87.046919000000003
10
334.93763000000001
20
87.33981900000002
10
346.93763000000001
20
87.33981900000002
10
347.93762800000002
20
88.339811999999981
10
347.93762800000002
20
107.002965
10
348.00928500000003
20
107.37467800000003
10
348.05908799999997
20
107.538481
10
352.71898800000002
20
129.39623999999995
10
353.90492200000006
20
130.16586000000004
10
355.44898799999999
20
129.83767
10
372.56657200000001
20
126.1992
10
373.31912699999998
20
126.33868400000004
10
373.75263000000007
20
126.96945500000001
10
374.89614600000004
20
132.34925400000003
10
374.75667500000009
20
133.10181499999999
10
374.12590899999998
20
133.53532799999999
0
LWPOLYLINE
5
110
100
AcDbEntity
8
0
100
AcDbPolyline
90
10
70
1
43
0.0
10
315.88750489787321
20
69.792391832554742
10
314.88750489787327
20
68.792398832554738
10
314.88763
20
52.029798000000014
10
315.88763
20
51.02980500000001
10
327.88763000000012
20
51.02980500000001
10
328.88762800000001
20
52.029798000000014
10
328.88762800000001
20
68.792316000000014
10
327.88763000000012
20
69.792309000000017
10
327.88758773084226
20
69.792308999999989
10
327.88750489787333
20
69.792391832554742
0
LWPOLYLINE
5
111
100
AcDbEntity
8
0
100
AcDbPolyline
90
26
70
1
43
0.0
10
277.7875048978733
20
313.20997776853949
10
289.7875048978733
20
313.2099777685396
10
290.56250577288546
20
313.98497476853947
10
293.28763000000004
20
313.98481300000009
10
294.28762999999998
20
314.98480599999999
10
294.28762999999998
20
344.48481500000008
10
293.28762999999998
20
345.48480799999999
10
290.56250577288546
20
345.48489083255419
10
289.78750489787336
20
346.25988783255411
10
277.7875048978733
20
346.25988783255417
10
277.01250247285634
20
345.48489083255419
10
275.78762999999992
20
345.48480799999999
10
274.78763000000004
20
344.48481500000008
10
274.78763000000004
20
338.98481600000014
10
275.08051599999999
20
338.2776970000001
10
275.78762999999998
20
337.98479700000001
10
276.28762999999998
20
337.98479700000007
10
276.78762999999998
20
337.48481400000009
10
276.78762999999998
20
321.98480799999999
10
276.641186
20
321.63124800000014
10
276.28762999999998
20
321.48479800000013
10
275.78763099999998
20
321.48479800000013
10
274.78763000000004
20
320.48480500000005
10
274.78763000000004
20
314.98480599999999
10
275.78763100000003
20
313.98481300000009
10
277.01250247285628
20
313.98497476853947
0
LWPOLYLINE
5
112
100
AcDbEntity
8
0
100
AcDbPolyline
90
6
70
1
43
0.0
10
367.26762900000006
20
23.349810999999999
10
369.26532900000007
20
25.349810000000002
10
367.26762900000006
20
27.34980800000001
10
358.26762800000006
20
27.34980800000001
10
356.26992900000005
20
25.349810000000002
10
358.26762800000006
20
23.349810999999999
0
LWPOLYLINE
5
113
100
AcDbEntity
8
0
100
AcDbPolyline
90
6
70
1
43
0.0
10
269.11763000000002
20
249.02481600000002
10
267.71033399999999
20
248.21231299999999
10
267.71033399999999
20
246.587309
10
269.11763000000002
20
245.77480600000001
10
270.524925
20
246.587309
10
270.524925
20
248.21231299999999
0
LWPOLYLINE
5
114
100
AcDbEntity
8
0
100
AcDbPolyline
90
6
70
1
43
0.0
10
390.77492400000011
20
135.787296
10
390.77492400000011
20
137.41230100000001
10
389.36762900000014
20
138.22480300000001
10
387.96033399999999
20
137.41230100000001
10
387.96033399999999
20
135.787296
10
389.36762900000014
20
134.974794
0
LWPOLYLINE
5
115
100
AcDbEntity
8
0
100
AcDbPolyline
90
6
70
1
43
0.0
10
270.524925
20
137.41230100000001
10
269.11762999999996
20
138.22480300000001
10
267.71033399999999
20
137.41230100000001
10
267.71033399999999
20
135.787296
10
269.11763000000002
20
134.974794
10
270.524925
20
135.787296
0
LWPOLYLINE
5
116
100
AcDbEntity
8
0
100
AcDbPolyline
90
6
70
1
43
0.0
10
390.77492400000011
20
360.58729800000003
10
390.77492400000011
20
362.21230200000002
10
389.36762900000014
20
363.02480500000001
10
387.96033399999999
20
362.21230200000002
10
387.96033399999999
20
360.58729800000003
10
389.36762900000014
20
359.77479500000015
0
LWPOLYLINE
5
117
100
AcDbEntity
8
0
100
AcDbPolyline
90
6
70
1
43
0.0
10
269.11763000000002
20
363.02480500000001
10
267.71033399999999
20
362.21230200000002
10
267.71033399999999
20
360.58729800000003
10
269.11763000000002
20
359.77479500000015
10
270.524925
20
360.58729800000003
10
270.524925
20
362.21230200000002
0
LWPOLYLINE
5
118
100
AcDbEntity
8
0
100
AcDbPolyline
90
6
70
1
43
0.0
10
390.77492400000011
20
246.587309
10
390.77492400000011
20
248.21231300000005
10
389.36762900000014
20
249.02481600000002
10
387.96033399999999
20
248.21231299999999
10
387.96033399999999
20
246.587309
10
389.36762900000014
20
245.77480600000001
0
LWPOLYLINE
5
119
100
AcDbEntity
8
0
100
AcDbPolyline
90
18
70
1
43
0.0
10
351.43762900000007
20
48.639797000000009
10
351.43762900000007
20
78.13980699999999
10
350.43762900000002
20
79.13979999999998
10
332.93762899999996
20
79.13979999999998
10
331.93762900000002
20
78.13980699999999
10
331.93762900000002
20
72.639806999999976
10
332.93762900000002
20
71.639814999999999
10
333.43763100000001
20
71.639814999999984
10
333.79118700000004
20
71.493363999999985
10
333.93763000000001
20
71.139805000000024
10
333.93763000000001
20
55.639798999999996
10
333.43763100000001
20
55.13981600000001
10
332.93762899999996
20
55.13981600000001
10
332.23051700000013
20
54.846915000000003
10
331.93763100000007
20
54.139797000000002
10
331.93763100000007
20
48.639797000000002
10
332.93762900000002
20
47.639804000000012
10
350.43763100000001
20
47.639804000000012
0
LWPOLYLINE
5
120
100
AcDbEntity
8
0
100
AcDbPolyline
90
6
70
1
43
0.0
10
389.36762900000014
20
20.974805
10
390.77492400000006
20
21.787307000000009
10
390.77492400000011
20
23.412312
10
389.36762900000014
20
24.224814000000009
10
387.96033399999999
20
23.412312
10
387.96033399999999
20
21.787307000000009
0
LWPOLYLINE
5
121
100
AcDbEntity
8
0
100
AcDbPolyline
90
18
70
1
43
0.0
10
330.88763
20
345.03980500000006
10
330.88763000000006
20
350.539805
10
329.88762900000006
20
351.53979800000002
10
312.38762999999994
20
351.53979800000002
10
311.38762900000006
20
350.539805
10
311.38762900000012
20
321.03979500000008
10
312.38763
20
320.03980300000001
10
329.88762900000012
20
320.03980300000001
10
330.88763
20
321.03979500000008
10
330.88762999999994
20
326.53979500000003
10
330.59474299999999
20
327.24691400000006
10
329.88762900000006
20
327.53981400000009
10
329.38762999999994
20
327.53981400000009
10
328.88762800000001
20
328.03979700000008
10
328.88762800000001
20
343.53980300000001
10
329.03407200000009
20
343.89336300000002
10
329.38763
20
344.03981299999998
10
329.88762900000012
20
344.03981299999998
0
LWPOLYLINE
5
122
100
AcDbEntity
8
0
100
AcDbPolyline
90
6
70
1
43
0.0
10
270.524925
20
23.412312
10
269.11762999999996
20
24.224814000000009
10
267.71033399999999
20
23.412312
10
267.71033399999999
20
21.787307000000009
10
269.11763000000002
20
20.974805
10
270.524925
20
21.787307000000009
0
LWPOLYLINE
5
123
100
AcDbEntity
8
0
100
AcDbPolyline
90
9
70
1
43
0.0
10
382.547303
20
177.96532600000003
10
381.77706699999999
20
179.15137400000003
10
370.03929499999998
20
181.64631499999999
10
368.85323700000009
20
180.87608700000001
10
366.358296
20
169.13832300000001
10
366.49776700000012
20
168.385763
10
367.12853200000006
20
167.95224899999999
10
378.86630300000002
20
165.45730799999998
10
380.05236200000007
20
166.22753600000007
0
LWPOLYLINE
5
124
100
AcDbEntity
8
0
100
AcDbPolyline
90
8
70
1
43
0.0
10
295.83762999999999
20
70.479802000000021
10
295.83762999999999
20
58.479810000000008
10
296.83762999999999
20
57.479817000000004
10
308.83762999999999
20
57.479817000000004
10
309.837628
20
58.479810000000008
10
309.837628
20
70.479802000000007
10
308.83762999999999
20
71.479794999999996
10
296.83762999999993
20
71.479794999999996
0
LWPOLYLINE
5
125
100
AcDbEntity
8
0
100
AcDbPolyline
90
8
70
1
43
0.0
10
275.64762999999999
20
33.859802000000002
10
287.64763000000011
20
33.859802000000002
10
288.64762999999999
20
34.859794000000001
10
288.64762999999999
20
46.859813000000017
10
287.64763000000005
20
47.859805000000001
10
275.64762999999994
20
47.859805000000001
10
274.64762999999999
20
46.85981300000001
10
274.64762999999999
20
34.859793999999994
0
LWPOLYLINE
5
126
100
AcDbEntity
8
0
100
AcDbPolyline
90
10
70
1
43
0.0
10
277.08051599999999
20
57.172695000000004
10
277.78762999999998
20
56.879795000000009
10
289.78763000000009
20
56.879795000000009
10
290.49474300000003
20
57.172695000000004
10
290.78762999999998
20
57.879814000000003
10
290.78762999999998
20
69.879806000000002
10
289.78763000000009
20
70.87979900000002
10
277.78762999999992
20
70.87979900000002
10
276.78762999999998
20
69.879806000000002
10
276.78762999999998
20
57.87981400000001
0
LWPOLYLINE
5
127
100
AcDbEntity
8
0
100
AcDbPolyline
90
10
70
1
43
0.0
10
367.03562900000003
20
337.4254150000001
10
367.03562900000003
20
349.42540700000001
10
366.03562799999997
20
350.42539900000008
10
354.03562900000003
20
350.42539900000008
10
353.03563100000014
20
349.42540700000001
10
353.03563100000014
20
337.4254150000001
10
353.32851600000015
20
336.71829600000001
10
354.03562900000009
20
336.42539500000009
10
366.03562799999997
20
336.42539500000009
10
366.74274200000002
20
336.71829500000001
0
LWPOLYLINE
5
128
100
AcDbEntity
8
0
100
AcDbPolyline
90
19
70
1
43
0.0
10
264.26407299999994
20
187.00335699999999
10
264.61763000000008
20
187.14980700000001
10
274.88339300000001
20
187.14980700000001
10
275.23694900000004
20
187.296257
10
275.38339200000001
20
187.64981700000004
10
275.38339200000001
20
196.349819
10
274.88339300000001
20
196.84980300000004
10
264.61763000000008
20
196.84980300000007
10
264.264073
20
196.99625300000002
10
264.11763000000002
20
197.34981200000007
10
264.11763000000002
20
362.39980600000001
10
268.11763000000002
20
366.39980300000002
10
390.36763000000002
20
366.39980299999996
10
394.36763000000008
20
362.39980600000001
10
394.36763000000008
20
21.599803999999999
10
390.36763000000008
20
17.599807000000006
10
268.11763000000002
20
17.599807000000006
10
264.11763000000002
20
21.599803999999985
10
264.11763000000002
20
186.649798
0
ENDSEC
0
SECTION
2
OBJECTS
0
DICTIONARY
5
C
100
AcDbDictionary
3
ACAD_GROUP
350
D
3
ACAD_MLINESTYLE
350
17
0
DICTIONARY
5
D
100
AcDbDictionary
0
DICTIONARY
5
1A
330
C
100
AcDbDictionary
0
DICTIONARY
5
17
100
AcDbDictionary
0
ENDSEC
0
EOF
