<?xml version="1.0" encoding="UTF-8" standalone="no"?>
<!-- Created with Inkscape (http://www.inkscape.org/) -->

<svg
   xmlns:dc="http://purl.org/dc/elements/1.1/"
   xmlns:cc="http://creativecommons.org/ns#"
   xmlns:rdf="http://www.w3.org/1999/02/22-rdf-syntax-ns#"
   xmlns:svg="http://www.w3.org/2000/svg"
   xmlns="http://www.w3.org/2000/svg"
   xmlns:sodipodi="http://sodipodi.sourceforge.net/DTD/sodipodi-0.dtd"
   xmlns:inkscape="http://www.inkscape.org/namespaces/inkscape"
   width="210mm"
   height="297mm"
   viewBox="0 0 210 297"
   version="1.1"
   id="svg8"
   inkscape:version="0.92.4 (5da689c313, 2019-01-14)"
   sodipodi:docname="L4.svg">
  <defs
     id="defs2">
    <marker
       style="overflow:visible"
       refY="0.0"
       refX="0.0"
       orient="auto"
       id="DistanceX">
      <path
         id="path3715"
         style="stroke:#000000; stroke-width:0.5"
         d="M 3,-3 L -3,3 M 0,-5 L  0,5" />
    </marker>
    <pattern
       y="0"
       x="0"
       width="8"
       patternUnits="userSpaceOnUse"
       id="Hatch"
       height="8">
      <path
         id="path3718"
         stroke-width="0.25"
         stroke="#000000"
         linecap="square"
         d="M8 4 l-4,4" />
      <path
         id="path3720"
         stroke-width="0.25"
         stroke="#000000"
         linecap="square"
         d="M6 2 l-4,4" />
      <path
         id="path3722"
         stroke-width="0.25"
         stroke="#000000"
         linecap="square"
         d="M4 0 l-4,4" />
    </pattern>
    <symbol
       id="*MODEL_SPACE" />
    <symbol
       id="*PAPER_SPACE" />
    <marker
       style="overflow:visible"
       refY="0.0"
       refX="0.0"
       orient="auto"
       id="DistanceX-6">
      <path
         id="path3809"
         style="stroke:#000000; stroke-width:0.5"
         d="M 3,-3 L -3,3 M 0,-5 L  0,5" />
    </marker>
    <pattern
       y="0"
       x="0"
       width="8"
       patternUnits="userSpaceOnUse"
       id="Hatch-9"
       height="8">
      <path
         id="path3812"
         stroke-width="0.25"
         stroke="#000000"
         linecap="square"
         d="M8 4 l-4,4" />
      <path
         id="path3814"
         stroke-width="0.25"
         stroke="#000000"
         linecap="square"
         d="M6 2 l-4,4" />
      <path
         id="path3816"
         stroke-width="0.25"
         stroke="#000000"
         linecap="square"
         d="M4 0 l-4,4" />
    </pattern>
    <symbol
       id="*MODEL_SPACE-1" />
    <symbol
       id="*PAPER_SPACE-4" />
    <marker
       style="overflow:visible"
       refY="0.0"
       refX="0.0"
       orient="auto"
       id="DistanceX-9">
      <path
         id="path3872"
         style="stroke:#000000; stroke-width:0.5"
         d="M 3,-3 L -3,3 M 0,-5 L  0,5" />
    </marker>
    <pattern
       y="0"
       x="0"
       width="8"
       patternUnits="userSpaceOnUse"
       id="Hatch-6"
       height="8">
      <path
         id="path3875"
         stroke-width="0.25"
         stroke="#000000"
         linecap="square"
         d="M8 4 l-4,4" />
      <path
         id="path3877"
         stroke-width="0.25"
         stroke="#000000"
         linecap="square"
         d="M6 2 l-4,4" />
      <path
         id="path3879"
         stroke-width="0.25"
         stroke="#000000"
         linecap="square"
         d="M4 0 l-4,4" />
    </pattern>
    <symbol
       id="*MODEL_SPACE-6" />
    <symbol
       id="*PAPER_SPACE-41" />
    <marker
       style="overflow:visible"
       refY="0.0"
       refX="0.0"
       orient="auto"
       id="DistanceX-0">
      <path
         id="path4096"
         style="stroke:#000000; stroke-width:0.5"
         d="M 3,-3 L -3,3 M 0,-5 L  0,5" />
    </marker>
    <pattern
       y="0"
       x="0"
       width="8"
       patternUnits="userSpaceOnUse"
       id="Hatch-0"
       height="8">
      <path
         id="path4099"
         stroke-width="0.25"
         stroke="#000000"
         linecap="square"
         d="M8 4 l-4,4" />
      <path
         id="path4101"
         stroke-width="0.25"
         stroke="#000000"
         linecap="square"
         d="M6 2 l-4,4" />
      <path
         id="path4103"
         stroke-width="0.25"
         stroke="#000000"
         linecap="square"
         d="M4 0 l-4,4" />
    </pattern>
    <symbol
       id="*MODEL_SPACE-7" />
    <symbol
       id="*PAPER_SPACE-2" />
    <marker
       style="overflow:visible"
       refY="0.0"
       refX="0.0"
       orient="auto"
       id="DistanceX-1">
      <path
         id="path4165"
         style="stroke:#000000; stroke-width:0.5"
         d="M 3,-3 L -3,3 M 0,-5 L  0,5" />
    </marker>
    <pattern
       y="0"
       x="0"
       width="8"
       patternUnits="userSpaceOnUse"
       id="Hatch-05"
       height="8">
      <path
         id="path4168"
         stroke-width="0.25"
         stroke="#000000"
         linecap="square"
         d="M8 4 l-4,4" />
      <path
         id="path4170"
         stroke-width="0.25"
         stroke="#000000"
         linecap="square"
         d="M6 2 l-4,4" />
      <path
         id="path4172"
         stroke-width="0.25"
         stroke="#000000"
         linecap="square"
         d="M4 0 l-4,4" />
    </pattern>
    <symbol
       id="*MODEL_SPACE-19" />
    <symbol
       id="*PAPER_SPACE-7" />
    <marker
       style="overflow:visible"
       refY="0.0"
       refX="0.0"
       orient="auto"
       id="DistanceX-8">
      <path
         id="path4228"
         style="stroke:#000000; stroke-width:0.5"
         d="M 3,-3 L -3,3 M 0,-5 L  0,5" />
    </marker>
    <pattern
       y="0"
       x="0"
       width="8"
       patternUnits="userSpaceOnUse"
       id="Hatch-67"
       height="8">
      <path
         id="path4231"
         stroke-width="0.25"
         stroke="#000000"
         linecap="square"
         d="M8 4 l-4,4" />
      <path
         id="path4233"
         stroke-width="0.25"
         stroke="#000000"
         linecap="square"
         d="M6 2 l-4,4" />
      <path
         id="path4235"
         stroke-width="0.25"
         stroke="#000000"
         linecap="square"
         d="M4 0 l-4,4" />
    </pattern>
    <symbol
       id="*MODEL_SPACE-9" />
    <symbol
       id="*PAPER_SPACE-9" />
    <marker
       style="overflow:visible"
       refY="0.0"
       refX="0.0"
       orient="auto"
       id="DistanceX-2">
      <path
         id="path4288"
         style="stroke:#000000; stroke-width:0.5"
         d="M 3,-3 L -3,3 M 0,-5 L  0,5" />
    </marker>
    <pattern
       y="0"
       x="0"
       width="8"
       patternUnits="userSpaceOnUse"
       id="Hatch-8"
       height="8">
      <path
         id="path4291"
         stroke-width="0.25"
         stroke="#000000"
         linecap="square"
         d="M8 4 l-4,4" />
      <path
         id="path4293"
         stroke-width="0.25"
         stroke="#000000"
         linecap="square"
         d="M6 2 l-4,4" />
      <path
         id="path4295"
         stroke-width="0.25"
         stroke="#000000"
         linecap="square"
         d="M4 0 l-4,4" />
    </pattern>
    <symbol
       id="*MODEL_SPACE-98" />
    <symbol
       id="*PAPER_SPACE-91" />
    <marker
       style="overflow:visible"
       refY="0.0"
       refX="0.0"
       orient="auto"
       id="DistanceX-93">
      <path
         id="path4351"
         style="stroke:#000000; stroke-width:0.5"
         d="M 3,-3 L -3,3 M 0,-5 L  0,5" />
    </marker>
    <pattern
       y="0"
       x="0"
       width="8"
       patternUnits="userSpaceOnUse"
       id="Hatch-80"
       height="8">
      <path
         id="path4354"
         stroke-width="0.25"
         stroke="#000000"
         linecap="square"
         d="M8 4 l-4,4" />
      <path
         id="path4356"
         stroke-width="0.25"
         stroke="#000000"
         linecap="square"
         d="M6 2 l-4,4" />
      <path
         id="path4358"
         stroke-width="0.25"
         stroke="#000000"
         linecap="square"
         d="M4 0 l-4,4" />
    </pattern>
    <symbol
       id="*MODEL_SPACE-2" />
    <symbol
       id="*PAPER_SPACE-416" />
    <marker
       style="overflow:visible"
       refY="0.0"
       refX="0.0"
       orient="auto"
       id="DistanceX-4">
      <path
         id="path4411"
         style="stroke:#000000; stroke-width:0.5"
         d="M 3,-3 L -3,3 M 0,-5 L  0,5" />
    </marker>
    <pattern
       y="0"
       x="0"
       width="8"
       patternUnits="userSpaceOnUse"
       id="Hatch-08"
       height="8">
      <path
         id="path4414"
         stroke-width="0.25"
         stroke="#000000"
         linecap="square"
         d="M8 4 l-4,4" />
      <path
         id="path4416"
         stroke-width="0.25"
         stroke="#000000"
         linecap="square"
         d="M6 2 l-4,4" />
      <path
         id="path4418"
         stroke-width="0.25"
         stroke="#000000"
         linecap="square"
         d="M4 0 l-4,4" />
    </pattern>
    <symbol
       id="*MODEL_SPACE-8" />
    <symbol
       id="*PAPER_SPACE-5" />
    <marker
       style="overflow:visible"
       refY="0.0"
       refX="0.0"
       orient="auto"
       id="DistanceX-26">
      <path
         id="path4471"
         style="stroke:#000000; stroke-width:0.5"
         d="M 3,-3 L -3,3 M 0,-5 L  0,5" />
    </marker>
    <pattern
       y="0"
       x="0"
       width="8"
       patternUnits="userSpaceOnUse"
       id="Hatch-5"
       height="8">
      <path
         id="path4474"
         stroke-width="0.25"
         stroke="#000000"
         linecap="square"
         d="M8 4 l-4,4" />
      <path
         id="path4476"
         stroke-width="0.25"
         stroke="#000000"
         linecap="square"
         d="M6 2 l-4,4" />
      <path
         id="path4478"
         stroke-width="0.25"
         stroke="#000000"
         linecap="square"
         d="M4 0 l-4,4" />
    </pattern>
    <symbol
       id="*MODEL_SPACE-4" />
    <symbol
       id="*PAPER_SPACE-8" />
    <marker
       style="overflow:visible"
       refY="0.0"
       refX="0.0"
       orient="auto"
       id="DistanceX-99">
      <path
         id="path4534"
         style="stroke:#000000; stroke-width:0.5"
         d="M 3,-3 L -3,3 M 0,-5 L  0,5" />
    </marker>
    <pattern
       y="0"
       x="0"
       width="8"
       patternUnits="userSpaceOnUse"
       id="Hatch-7"
       height="8">
      <path
         id="path4537"
         stroke-width="0.25"
         stroke="#000000"
         linecap="square"
         d="M8 4 l-4,4" />
      <path
         id="path4539"
         stroke-width="0.25"
         stroke="#000000"
         linecap="square"
         d="M6 2 l-4,4" />
      <path
         id="path4541"
         stroke-width="0.25"
         stroke="#000000"
         linecap="square"
         d="M4 0 l-4,4" />
    </pattern>
    <symbol
       id="*MODEL_SPACE-76" />
    <symbol
       id="*PAPER_SPACE-6" />
    <marker
       style="overflow:visible"
       refY="0.0"
       refX="0.0"
       orient="auto"
       id="DistanceX-92">
      <path
         id="path4600"
         style="stroke:#000000; stroke-width:0.5"
         d="M 3,-3 L -3,3 M 0,-5 L  0,5" />
    </marker>
    <pattern
       y="0"
       x="0"
       width="8"
       patternUnits="userSpaceOnUse"
       id="Hatch-76"
       height="8">
      <path
         id="path4603"
         stroke-width="0.25"
         stroke="#000000"
         linecap="square"
         d="M8 4 l-4,4" />
      <path
         id="path4605"
         stroke-width="0.25"
         stroke="#000000"
         linecap="square"
         d="M6 2 l-4,4" />
      <path
         id="path4607"
         stroke-width="0.25"
         stroke="#000000"
         linecap="square"
         d="M4 0 l-4,4" />
    </pattern>
    <symbol
       id="*MODEL_SPACE-13" />
    <symbol
       id="*PAPER_SPACE-0" />
    <marker
       style="overflow:visible"
       refY="0.0"
       refX="0.0"
       orient="auto"
       id="DistanceX-7">
      <path
         id="path4714"
         style="stroke:#000000; stroke-width:0.5"
         d="M 3,-3 L -3,3 M 0,-5 L  0,5" />
    </marker>
    <pattern
       y="0"
       x="0"
       width="8"
       patternUnits="userSpaceOnUse"
       id="Hatch-91"
       height="8">
      <path
         id="path4717"
         stroke-width="0.25"
         stroke="#000000"
         linecap="square"
         d="M8 4 l-4,4" />
      <path
         id="path4719"
         stroke-width="0.25"
         stroke="#000000"
         linecap="square"
         d="M6 2 l-4,4" />
      <path
         id="path4721"
         stroke-width="0.25"
         stroke="#000000"
         linecap="square"
         d="M4 0 l-4,4" />
    </pattern>
    <symbol
       id="*MODEL_SPACE-62" />
    <symbol
       id="*PAPER_SPACE-48" />
    <marker
       style="overflow:visible"
       refY="0.0"
       refX="0.0"
       orient="auto"
       id="DistanceX-98">
      <path
         id="path4783"
         style="stroke:#000000; stroke-width:0.5"
         d="M 3,-3 L -3,3 M 0,-5 L  0,5" />
    </marker>
    <pattern
       y="0"
       x="0"
       width="8"
       patternUnits="userSpaceOnUse"
       id="Hatch-3"
       height="8">
      <path
         id="path4786"
         stroke-width="0.25"
         stroke="#000000"
         linecap="square"
         d="M8 4 l-4,4" />
      <path
         id="path4788"
         stroke-width="0.25"
         stroke="#000000"
         linecap="square"
         d="M6 2 l-4,4" />
      <path
         id="path4790"
         stroke-width="0.25"
         stroke="#000000"
         linecap="square"
         d="M4 0 l-4,4" />
    </pattern>
    <symbol
       id="*MODEL_SPACE-84" />
    <symbol
       id="*PAPER_SPACE-70" />
    <marker
       style="overflow:visible"
       refY="0.0"
       refX="0.0"
       orient="auto"
       id="DistanceX-44">
      <path
         id="path4846"
         style="stroke:#000000; stroke-width:0.5"
         d="M 3,-3 L -3,3 M 0,-5 L  0,5" />
    </marker>
    <pattern
       y="0"
       x="0"
       width="8"
       patternUnits="userSpaceOnUse"
       id="Hatch-64"
       height="8">
      <path
         id="path4849"
         stroke-width="0.25"
         stroke="#000000"
         linecap="square"
         d="M8 4 l-4,4" />
      <path
         id="path4851"
         stroke-width="0.25"
         stroke="#000000"
         linecap="square"
         d="M6 2 l-4,4" />
      <path
         id="path4853"
         stroke-width="0.25"
         stroke="#000000"
         linecap="square"
         d="M4 0 l-4,4" />
    </pattern>
    <symbol
       id="*MODEL_SPACE-139" />
    <symbol
       id="*PAPER_SPACE-82" />
    <marker
       style="overflow:visible"
       refY="0.0"
       refX="0.0"
       orient="auto"
       id="DistanceX-82">
      <path
         id="path4909"
         style="stroke:#000000; stroke-width:0.5"
         d="M 3,-3 L -3,3 M 0,-5 L  0,5" />
    </marker>
    <pattern
       y="0"
       x="0"
       width="8"
       patternUnits="userSpaceOnUse"
       id="Hatch-72"
       height="8">
      <path
         id="path4912"
         stroke-width="0.25"
         stroke="#000000"
         linecap="square"
         d="M8 4 l-4,4" />
      <path
         id="path4914"
         stroke-width="0.25"
         stroke="#000000"
         linecap="square"
         d="M6 2 l-4,4" />
      <path
         id="path4916"
         stroke-width="0.25"
         stroke="#000000"
         linecap="square"
         d="M4 0 l-4,4" />
    </pattern>
    <symbol
       id="*MODEL_SPACE-5" />
    <symbol
       id="*PAPER_SPACE-3" />
    <marker
       style="overflow:visible"
       refY="0.0"
       refX="0.0"
       orient="auto"
       id="DistanceX-85">
      <path
         id="path4969"
         style="stroke:#000000; stroke-width:0.5"
         d="M 3,-3 L -3,3 M 0,-5 L  0,5" />
    </marker>
    <pattern
       y="0"
       x="0"
       width="8"
       patternUnits="userSpaceOnUse"
       id="Hatch-32"
       height="8">
      <path
         id="path4972"
         stroke-width="0.25"
         stroke="#000000"
         linecap="square"
         d="M8 4 l-4,4" />
      <path
         id="path4974"
         stroke-width="0.25"
         stroke="#000000"
         linecap="square"
         d="M6 2 l-4,4" />
      <path
         id="path4976"
         stroke-width="0.25"
         stroke="#000000"
         linecap="square"
         d="M4 0 l-4,4" />
    </pattern>
    <symbol
       id="*MODEL_SPACE-85" />
    <symbol
       id="*PAPER_SPACE-06" />
  </defs>
  <sodipodi:namedview
     id="base"
     pagecolor="#ffffff"
     bordercolor="#666666"
     borderopacity="1.0"
     inkscape:pageopacity="0.0"
     inkscape:pageshadow="2"
     inkscape:zoom="0.35"
     inkscape:cx="519.13007"
     inkscape:cy="780.64997"
     inkscape:document-units="mm"
     inkscape:current-layer="g3843"
     showgrid="false"
     inkscape:window-width="2560"
     inkscape:window-height="1361"
     inkscape:window-x="2551"
     inkscape:window-y="-9"
     inkscape:window-maximized="1" />
  <metadata
     id="metadata5">
    <rdf:RDF>
      <cc:Work
         rdf:about="">
        <dc:format>image/svg+xml</dc:format>
        <dc:type
           rdf:resource="http://purl.org/dc/dcmitype/StillImage" />
        <dc:title></dc:title>
      </cc:Work>
    </rdf:RDF>
  </metadata>
  <g
     inkscape:label="Layer 1"
     inkscape:groupmode="layer"
     id="layer1">
    <g
       id="g3843"
       inkscape:label="0"
       transform="matrix(0.26458333,0,0,0.26458333,97.669051,451.43619)">
      <g
         id="g5041"
         inkscape:label="0"
         transform="rotate(90,1476.4643,-937.32745)">
        <path
           id="path4983"
           style="fill:none;stroke:#000000"
           d="m 1161.8447,958.46205 -2.6726,-1.10702 h -45.3543 l -2.6725,1.10702 -1.107,2.67258 v 45.35427 l 3.7795,3.7795 h 45.3543 l 3.7796,-3.7795 v -45.35427 z"
           inkscape:connector-curvature="0" />
        <path
           id="path4985"
           style="fill:none;stroke:#000000"
           d="m 1397.7143,685.49533 -44.3633,-9.4297 -4.4827,2.9111 -9.4297,44.3632 0.5271,2.84432 2.384,1.63848 44.3632,9.4297 2.8444,-0.52719 1.6384,-2.38401 9.4297,-44.3632 z"
           inkscape:connector-curvature="0" />
        <path
           id="path4987"
           style="fill:none;stroke:#000000"
           d="m 1265.906,-233.83387 -3.7795,3.7795 v 45.3543 l 3.7795,3.7795 h 45.3543 l 3.7796,-3.7795 v -45.3543 l -3.7796,-3.7795 z"
           inkscape:connector-curvature="0" />
        <path
           id="path4989"
           style="fill:none;stroke:#000000"
           d="m 1185.8178,1025.6511 h 45.3543 l 3.7796,-3.7795 v -45.35437 l -3.7796,-3.7795 h -45.3543 l -3.7795,3.7795 v 45.35437 z"
           inkscape:connector-curvature="0" />
        <path
           id="path4991"
           style="fill:none;stroke:#000000"
           d="m 1262.1265,-85.700069 3.7795,3.779501 h 45.3543 l 3.7796,-3.779501 v -45.354301 l -3.7796,-3.7795 h -45.3543 l -3.7795,3.7795 z"
           inkscape:connector-curvature="0" />
        <path
           id="path4993"
           style="fill:none;stroke:#000000"
           d="m 1171.0399,-134.81497 v -45.3544 l -3.7796,-3.7795 h -45.3543 l -3.7795,3.7795 v 45.3544 l 3.7795,3.7795 h 45.3543 z"
           inkscape:connector-curvature="0" />
        <path
           id="path4995"
           style="fill:none;stroke:#000000"
           d="m 1339.4386,105.24733 9.4297,44.3632 1.6384,2.38402 2.8443,0.52718 44.3633,-9.4297 2.384,-1.63848 0.5271,-2.84432 -9.4297,-44.363199 -4.4828,-2.911098 -44.3632,9.429697 z"
           inkscape:connector-curvature="0" />
        <path
           id="path4997"
           style="fill:none;stroke:#000000"
           d="m 1387.0399,932.59913 v -45.3543 l -3.7796,-3.7795 h -45.3543 l -3.7795,3.7795 v 45.3543 l 1.107,2.67258 2.6725,1.10702 h 45.3543 l 2.6726,-1.10702 z"
           inkscape:connector-curvature="0" />
        <path
           id="path4999"
           style="fill:none;stroke:#000000"
           d="m 1041.8178,28.234832 -3.7795,3.779497 V 77.36863 l 2.173,3.4211 2.0905,2.6354 4.9099,23.0993 -2.9111,4.4827 v 0 l -2.9112,4.4827 54.3387,255.6431 1.6384,2.38402 2.8443,0.52718 63.0151,-13.3943 4.4827,2.9111 5.9155,27.8303 4.4828,2.9111 44.3632,-9.4297 2.9111,-4.4827 -2.1704,-10.2109 0.5272,-2.84432 2.384,-1.63848 81.7086,-17.3677 2.8443,0.52718 1.6384,2.38402 5.9155,27.8302 1.6385,2.38402 2.8443,0.52718 44.3632,-9.4297 2.384,-1.63848 0.5271,-2.84432 -4.6786,-22.0113 2.9111,-4.4827 70.4534,-14.9754 2.9111,-4.4827 -4.3219,-20.3331 -1.6384,-2.38401 -2.8444,-0.52719 -1.8484,0.3929 -2.2414,-1.4555 -12.18,-57.3026 1.4556,-2.2413 1.8484,-0.3929 2.384,-1.63848 0.5271,-2.84432 -4.3219,-20.3331 -4.4828,-2.9111 -70.4533,14.9753 -4.4828,-2.9111 -25.0051,-117.64 -0.021,-1.4626 -0.022,-1.4625 -1.9954,-9.3876 1.5112,-3.8692 1.5939,-3.083498 v -117.3543 l -3.7796,-3.779501 h -64.4409 l -3.7795,-3.779501 v -12.6993 l -3.7796,-3.779497 -64.4409,9.98e-4 -3.7796,-3.779501 v -30.273997 l -1.1069,-2.672576 -2.6726,-1.107027 h -45.3543 l -2.6726,1.107023 -1.1069,2.67258 v 44.182598 l -1.107,2.672575 -2.6726,1.107024 h -64.4409 l -3.7795,3.779501 v 62.853502 l -1.107,2.672576 -2.6726,1.107023 z"
           inkscape:connector-curvature="0" />
        <path
           id="path5001"
           style="fill:none;stroke:#000000"
           d="m 1412.1707,617.42633 -1.4556,-2.2413 12.1801,-57.3026 2.2413,-1.4555 1.8485,0.3929 4.4828,-2.9111 4.3219,-20.3332 -2.9111,-4.4827 -64.6964,-13.7517 -5.7605,-1.2244 -2.3846,-1.63942 -0.5261,-2.84558 10.4706,-49.1131 -2.9112,-4.4827 -44.3632,-9.4297 -4.4827,2.9111 -5.9079,27.7941 -4.4827,2.9111 -63.0228,-13.3959 -2.8443,0.52718 -1.6384,2.38402 -2.1736,10.2257 -4.4827,2.9111 -81.7124,-17.3684 -2.384,-1.63848 -0.5271,-2.84432 5.9156,-27.8308 -2.9111,-4.4827 -44.3632,-9.4297 -4.4828,2.9111 -54.3386,255.6431 -6.8451,32.2035 -1.9512,2.5665 -2.0339,3.3522 v 45.3543 l 1.107,2.67258 2.6725,1.10702 h 0.5291 l 3.7796,3.7795 v 62.8913 l 1.1069,2.67258 2.6726,1.10702 h 45.3543 l 2.6726,-1.10702 1.107,-2.67258 v -12.6992 l 3.7795,-3.7795 h 64.4409 l 2.8722,-1.3228 2.8722,-1.3229 h 85.3422 l 3.7796,-3.7795 v -12.6614 l 1.107,-2.67257 2.6725,-1.10703 h 45.3543 l 3.7796,-3.7795 v -70.5379 l 0.2708,-1.4049 0.1882,-0.6191 17.6122,-82.612 4.4823,-2.9088 5.8358,1.2404 64.6964,13.7517 2.8443,-0.52718 1.6385,-2.38402 4.3219,-20.3331 -0.5271,-2.84432 -2.384,-1.63848 z"
           inkscape:connector-curvature="0" />
        <path
           id="path5003"
           style="fill:none;stroke:#000000"
           d="m 1193.9055,858.73742 -3.7795,3.7795 5e-4,63.35471 3.7795,3.7795 h 45.3543 l 3.7796,-3.7795 v -63.3544 l -3.7796,-3.7795 h -10e-5 l -3e-4,-3.1e-4 z"
           inkscape:connector-curvature="0" />
        <path
           id="path5005"
           style="fill:none;stroke:#000000"
           d="m 1049.9055,-61.266058 h 45.3544 l 2.9291,-2.929122 10.2997,6.11e-4 3.7795,-3.779501 v -111.4961 l -3.7795,-3.7795 -10.2997,-3.1e-4 -2.9291,-2.92912 h -45.3544 l -2.9291,2.92912 -4.6295,3.1e-4 -3.7795,3.7795 v 20.7874 l 1.107,2.67258 2.6725,1.10702 h 1.8898 l 1.8898,1.8897 v 58.5827 l -0.5535,1.336289 -1.3363,0.553512 h -1.8897 l -3.7796,3.779501 v 20.787398 l 3.7796,3.779501 4.6294,-6.11e-4 z"
           inkscape:connector-curvature="0" />
        <path
           id="path5007"
           style="fill:none;stroke:#000000"
           d="m 1388.0981,1034.2684 7.5504,-7.559 -7.5504,-7.5591 h -34.0157 l -7.5504,7.5591 7.5504,7.559 z"
           inkscape:connector-curvature="0" />
        <path
           id="path5009"
           style="fill:none;stroke:#000000"
           d="m 1017.1375,181.32353 -5.3189,3.07088 v 6.14174 l 5.3189,3.07088 5.3189,-3.07088 v -6.14174 z"
           inkscape:connector-curvature="0" />
        <path
           id="path5011"
           style="fill:none;stroke:#000000"
           d="m 1476.9446,609.30786 v -6.14175 l -5.3189,-3.07088 -5.3189,3.07088 v 6.14175 l 5.3189,3.07087 z"
           inkscape:connector-curvature="0" />
        <path
           id="path5013"
           style="fill:none;stroke:#000000"
           d="m 1022.4564,603.16611 -5.3189,-3.07088 -5.3189,3.07088 v 6.14175 l 5.3189,3.07087 5.3189,-3.07087 z"
           inkscape:connector-curvature="0" />
        <path
           id="path5015"
           style="fill:none;stroke:#000000"
           d="m 1476.9446,-240.32994 v -6.14175 l -5.3189,-3.07088 -5.3189,3.07088 v 6.14175 l 5.3189,3.07087 z"
           inkscape:connector-curvature="0" />
        <path
           id="path5017"
           style="fill:none;stroke:#000000"
           d="m 1017.1375,-249.54257 -5.3189,3.07088 v 6.14175 l 5.3189,3.07087 5.3189,-3.07087 v -6.14175 z"
           inkscape:connector-curvature="0" />
        <path
           id="path5019"
           style="fill:none;stroke:#000000"
           d="m 1476.9446,190.53615 v -6.14174 l -5.3189,-3.07088 -5.3189,3.07088 v 6.14174 l 5.3189,3.07088 z"
           inkscape:connector-curvature="0" />
        <path
           id="path5021"
           style="fill:none;stroke:#000000"
           d="m 1328.2682,938.68423 v -111.4961 l -3.7795,-3.7795 h -66.1418 l -3.7795,3.7795 v 20.7874 l 3.7795,3.7795 h 1.8898 l 1.3363,0.55352 0.5535,1.33628 v 58.5827 l -1.8898,1.8897 h -1.8898 l -2.6725,1.10703 -1.107,2.67257 v 20.7874 l 3.7795,3.7795 h 66.1418 z"
           inkscape:connector-curvature="0" />
        <path
           id="path5023"
           style="fill:none;stroke:#000000"
           d="m 1471.6257,1043.2448 5.3189,-3.0708 v -6.1418 l -5.3189,-3.0709 -5.3189,3.0709 v 6.1418 z"
           inkscape:connector-curvature="0" />
        <path
           id="path5025"
           style="fill:none;stroke:#000000"
           d="m 1250.5989,-181.56777 v -20.7874 l -3.7795,-3.7795 h -66.1417 l -3.7796,3.7795 v 111.496102 l 3.7796,3.779498 h 66.1417 l 3.7795,-3.779498 v -20.787402 l -1.107,-2.67258 -2.6725,-1.10702 h -1.8898 l -1.8897,-1.8897 v -58.5827 l 0.5534,-1.33629 1.3363,-0.55351 h 1.8898 z"
           inkscape:connector-curvature="0" />
        <path
           id="path5027"
           style="fill:none;stroke:#000000"
           d="m 1022.4564,1034.0322 -5.3189,-3.0709 -5.3189,3.0709 v 6.1418 l 5.3189,3.0708 5.3189,-3.0708 z"
           inkscape:connector-curvature="0" />
        <path
           id="path5029"
           style="fill:none;stroke:#000000"
           d="m 1445.8481,449.89483 -2.9112,-4.4827 -44.3632,-9.4297 -4.4827,2.9111 -9.4297,44.3632 0.5271,2.84432 2.384,1.63848 44.3632,9.4297 4.4828,-2.9111 z"
           inkscape:connector-curvature="0" />
        <path
           id="path5031"
           style="fill:none;stroke:#000000"
           d="m 1118.1265,856.13933 v 45.3543 l 3.7795,3.7795 h 45.3543 l 3.7796,-3.7795 v -45.3543 l -3.7796,-3.7795 h -45.3543 z"
           inkscape:connector-curvature="0" />
        <path
           id="path5033"
           style="fill:none;stroke:#000000"
           d="m 1041.8178,994.54563 h 45.3543 l 3.7796,-3.7795 v -45.3544 l -3.7796,-3.7795 h -45.3543 l -3.7795,3.7795 v 45.3544 z"
           inkscape:connector-curvature="0" />
        <path
           id="path5035"
           style="fill:none;stroke:#000000"
           d="m 1047.2334,906.43391 2.6726,1.10702 h 45.3543 l 2.6726,-1.10702 1.107,-2.67258 v -45.3543 l -3.7796,-3.7795 h -45.3543 l -3.7795,3.7795 v 45.3543 z"
           inkscape:connector-curvature="0" />
        <path
           id="path5037"
           style="fill:none;stroke:#000000"
           d="m 1387.2213,-152.78897 v -45.3543 l -3.7796,-3.7795 h -45.3543 l -3.7795,3.7795 v 45.3543 l 1.107,2.67258 2.6725,1.10702 h 45.3543 l 2.6726,-1.10702 z"
           inkscape:connector-curvature="0" />
        <path
           id="path5039"
           style="fill:none;stroke:#000000"
           d="m 998.79335,415.73534 1.33625,-0.55351 h 38.7998 l 1.3362,-0.55351 0.5535,-1.33629 v -32.8819 l -1.8897,-1.8897 h -38.7998 l -1.33625,-0.55351 -0.55349,-1.33629 v -623.811 l 15.11814,-15.1181 h 462.0472 l 15.1181,15.1181 V 1040.8826 l -15.1181,15.1181 H 1013.358 l -15.11814,-15.1181 V 417.07163 Z"
           inkscape:connector-curvature="0" />
      </g>
    </g>
  </g>
</svg>
