0
SECTION
2
HEADER
9
$INSUNITS
70
4
9
$ACADVER
1
AC1014
9
$HANDSEED
5
FFFF
0
ENDSEC
0
SECTION
2
TABLES
0
TABLE
2
VPORT
5
8
100
AcDbSymbolTable
0
ENDTAB
0
TABLE
2
LTYPE
5
5
100
AcDbSymbolTable
0
LTYPE
5
14
100
AcDbSymbolTableRecord
100
AcDbLinetypeTableRecord
2
BYBLOCK
70
0
0
LTYPE
5
15
100
AcDbSymbolTableRecord
100
AcDbLinetypeTableRecord
2
BYLAYER
70
0
0
ENDTAB
0
TABLE
2
LAYER
5
2
100
AcDbSymbolTable
70
2
0
LAYER
5
50
100
AcDbSymbolTableRecord
100
AcDbLayerTableRecord
2
0
70
0
6
CONTINUOUS
0
ENDTAB
0
TABLE
2
STYLE
5
3
100
AcDbSymbolTable
70
1
0
STYLE
5
11
100
AcDbSymbolTableRecord
100
AcDbTextStyleTableRecord
2
STANDARD
70
0
0
ENDTAB
0
TABLE
2
VIEW
5
6
100
AcDbSymbolTable
70
0
0
ENDTAB
0
TABLE
2
UCS
5
7
100
AcDbSymbolTable
70
0
0
ENDTAB
0
TABLE
2
APPID
5
9
100
AcDbSymbolTable
70
2
0
APPID
5
12
100
AcDbSymbolTableRecord
100
AcDbRegAppTableRecord
2
ACAD
70
0
0
ENDTAB
0
TABLE
2
DIMSTYLE
5
A
100
AcDbSymbolTable
70
1
0
ENDTAB
0
TABLE
2
BLOCK_RECORD
5
1
100
AcDbSymbolTable
70
1
0
BLOCK_RECORD
5
1F
100
AcDbSymbolTableRecord
100
AcDbBlockTableRecord
2
*MODEL_SPACE
0
BLOCK_RECORD
5
1B
100
AcDbSymbolTableRecord
100
AcDbBlockTableRecord
2
*PAPER_SPACE
0
ENDTAB
0
ENDSEC
0
SECTION
2
BLOCKS
0
BLOCK
5
20
100
AcDbEntity
100
AcDbBlockBegin
2
*MODEL_SPACE
0
ENDBLK
5
21
100
AcDbEntity
100
AcDbBlockEnd
0
BLOCK
5
1C
100
AcDbEntity
100
AcDbBlockBegin
2
*PAPER_SPACE
0
ENDBLK
5
1D
100
AcDbEntity
100
AcDbBlockEnd
0
ENDSEC
0
SECTION
2
ENTITIES
0
LWPOLYLINE
5
100
100
AcDbEntity
8
0
100
AcDbPolyline
90
75
70
1
43
0.0
10
11.166591
20
348.85088200000007
10
10.727252
20
347.79022099999997
10
10.727251999999998
20
293.06023199999998
10
10.580809
20
292.70667300000008
10
10.227253000000001
20
292.56022300000001
10
10.087251000000002
20
292.56022300000001
10
9.0265909999999998
20
292.12088199999999
10
8.5872520000000012
20
291.06022000000002
10
8.5872519999999994
20
272.53025900000006
10
8.5885750000000005
20
272.47022500000003
10
8.6922390000000007
20
269.88212400000003
10
8.7238170000000004
20
269.63029300000005
10
24.440039999999996
20
195.69126400000002
10
25.090302000000001
20
194.74512400000006
10
26.219128000000005
20
194.53590800000001
10
42.903466999999999
20
198.08227700000003
10
43.279744999999998
20
198.01253400000007
10
43.496496
20
197.697149
10
45.060040999999998
20
190.34125600000007
10
46.839128000000009
20
189.18592700000002
10
63.526206000000023
20
192.73287800000006
10
64.472352999999998
20
193.383149
10
64.681558999999993
20
194.51198900000006
10
64.106876
20
197.21563400000002
10
64.176612000000006
20
197.591915
10
64.491996
20
197.808671
10
81.15357299999998
20
201.35019800000009
10
81.746601999999982
20
200.96509699999999
10
83.311746999999983
20
193.601664
10
83.962008999999981
20
192.65552500000001
10
85.090835000000013
20
192.44630800000007
10
120.418824
20
199.95550000000006
10
121.57417800000003
20
201.73458500000007
10
110.97032300000002
20
251.62179900000007
10
111.23555000000003
20
252.17284700000008
10
112.03122
20
253.82598999999999
10
106.50492700000001
20
279.82516500000003
10
105.854664
20
280.77130499999998
10
104.725836
20
280.98052100000007
10
88.541208000000026
20
277.54035600000003
10
88.122587999999979
20
277.64085899999992
10
87.937251000000032
20
278.02943800000003
10
87.937251000000032
20
328.12583200000006
10
88.437253000000013
20
328.62581499999999
10
105.53525200000001
20
328.62581499999999
10
106.59591300000001
20
329.065156
10
107.03525200000001
20
330.12581699999998
10
107.03525200000001
20
356.72580800000014
10
106.59591300000001
20
357.78647000000001
10
105.53525200000001
20
358.22581100000002
10
88.437253000000027
20
358.22581100000002
10
88.083694999999963
20
358.37225999999993
10
87.937251000000032
20
358.72582
10
87.937251000000032
20
360.39896600000014
10
87.497912000000028
20
361.45962700000007
10
86.437252000000001
20
361.89896800000008
10
69.377251999999999
20
361.89896800000008
10
68.316591000000003
20
361.45962700000007
10
67.877251999999999
20
360.39896600000014
10
67.877251999999999
20
358.22022800000008
10
67.730807999999996
20
357.866668
10
67.377250000000004
20
357.72021799999999
10
50.327252000000016
20
357.72021799999999
10
49.26659100000002
20
357.28087799999997
10
48.827252000000001
20
356.22021600000005
10
48.827252000000001
20
353.96022500000015
10
48.680808000000013
20
353.60666400000008
10
48.327249999999999
20
353.46021500000001
10
31.277252000000004
20
353.46021500000001
10
30.216591000000005
20
353.02087400000005
10
29.777252000000001
20
351.96021300000007
10
29.777252000000001
20
349.79023300000006
10
29.630808000000002
20
349.43667200000016
10
29.277250000000002
20
349.29022300000008
10
12.227252000000002
20
349.29022300000008
0
LWPOLYLINE
5
101
100
AcDbEntity
8
0
100
AcDbPolyline
90
6
70
1
43
0.0
10
127.744669
20
137.41271599999999
10
126.33737400000001
20
138.22521899999998
10
124.93007800000001
20
137.41271599999999
10
124.93007800000001
20
135.787712
10
126.33737400000001
20
134.97520900000001
10
127.744669
20
135.787712
0
LWPOLYLINE
5
102
100
AcDbEntity
8
0
100
AcDbPolyline
90
6
70
1
43
0.0
10
124.93007800000001
20
248.212729
10
124.93007800000001
20
246.58772400000004
10
126.33737400000001
20
245.77522200000004
10
127.744669
20
246.58772400000004
10
127.744669
20
248.212729
10
126.33737400000001
20
249.02523099999999
0
LWPOLYLINE
5
103
100
AcDbEntity
8
0
100
AcDbPolyline
90
6
70
1
43
0.0
10
6.0873730000000004
20
245.77522200000004
10
7.4946690000000018
20
246.58772400000004
10
7.494669
20
248.212729
10
6.0873730000000004
20
249.02523099999999
10
4.680078
20
248.212729
10
4.680078
20
246.58772400000004
0
LWPOLYLINE
5
104
100
AcDbEntity
8
0
100
AcDbPolyline
90
6
70
1
43
0.0
10
7.494669
20
135.787712
10
7.494669
20
137.41271600000002
10
6.0873730000000004
20
138.22521899999998
10
4.680078
20
137.41271599999999
10
4.680078
20
135.787712
10
6.0873730000000004
20
134.97520900000001
0
LWPOLYLINE
5
105
100
AcDbEntity
8
0
100
AcDbPolyline
90
34
70
1
43
0.0
10
28.647373000000002
20
49.390227000000017
10
28.208034000000008
20
50.450888000000013
10
27.147373000000002
20
50.890228999999998
10
10.087372999999999
20
50.890228999999998
10
9.0267119999999998
20
50.45088800000002
10
8.5873740000000005
20
49.390227000000024
10
8.5873740000000005
20
32.33021100000002
10
9.0267120000000016
20
31.269550000000002
10
10.087372999999999
20
30.830209000000011
10
27.137375000000002
20
30.830209000000011
10
27.637374000000001
20
30.330226000000025
10
27.637374000000001
20
28.17022
10
28.076712000000001
20
27.109559000000001
10
29.137373000000004
20
26.670218000000006
10
46.18737500000001
20
26.670218000000002
10
46.540931
20
26.523768000000008
10
46.687374000000013
20
26.170207999999988
10
46.687374000000013
20
24.100214000000001
10
47.126711999999991
20
23.039553000000002
10
48.187373000000015
20
22.600212000000042
10
65.247372999999996
20
22.600212000000003
10
66.308033999999992
20
23.039553000000002
10
66.74737300000001
20
24.10021399999998
10
66.74737300000001
20
41.160230000000013
10
66.308033999999992
20
42.220891999999999
10
65.247372999999996
20
42.660231999999993
10
48.197374000000011
20
42.660232000000001
10
47.697372999999999
20
43.160215000000015
10
47.697372999999999
20
45.23021
10
47.258034000000009
20
46.290871000000003
10
46.197372999999999
20
46.730212000000009
10
29.147373999999999
20
46.730212000000002
10
28.793817000000001
20
46.876661000000013
10
28.647373000000002
20
47.230221000000014
0
LWPOLYLINE
5
106
100
AcDbEntity
8
0
100
AcDbPolyline
90
6
70
1
43
0.0
10
6.0873730000000004
20
20.97522
10
7.4946690000000018
20
21.787723
10
7.494669
20
23.412727000000007
10
6.0873730000000004
20
24.22523
10
4.680078
20
23.412727000000007
10
4.680078
20
21.787723
0
LWPOLYLINE
5
107
100
AcDbEntity
8
0
100
AcDbPolyline
90
6
70
1
43
0.0
10
127.744669
20
21.787723
10
127.744669
20
23.412727000000007
10
126.33737400000001
20
24.22523
10
124.93007800000001
20
23.412727000000007
10
124.93007800000001
20
21.787723
10
126.33737400000001
20
20.97522
0
LWPOLYLINE
5
108
100
AcDbEntity
8
0
100
AcDbPolyline
90
6
70
1
43
0.0
10
127.744669
20
362.21271800000005
10
126.33737400000001
20
363.02522000000005
10
124.93007800000001
20
362.21271800000005
10
124.93007800000001
20
360.58771300000001
10
126.33737400000001
20
359.77521100000001
10
127.744669
20
360.58771300000001
0
LWPOLYLINE
5
109
100
AcDbEntity
8
0
100
AcDbPolyline
90
71
70
1
43
0.0
10
29.277372
20
53.85022900000002
10
29.630930000000006
20
53.703779000000011
10
29.777374000000002
20
53.35021900000001
10
29.777374000000002
20
51.190214000000012
10
30.216713000000013
20
50.129552000000004
10
31.277372999999997
20
49.690210999999991
10
48.327372000000004
20
49.690211000000005
10
48.827373999999999
20
49.190228000000005
10
48.827373999999999
20
47.120234000000004
10
49.26671300000001
20
46.059573
10
50.327373000000009
20
45.620231999999987
10
67.37737199999998
20
45.620232000000001
10
67.730930000000015
20
45.473782
10
67.877374000000003
20
45.120222000000005
10
67.877374000000003
20
42.95021599999999
10
68.316713000000007
20
41.889554000000004
10
69.377372999999992
20
41.450212999999998
10
105.48737300000001
20
41.450212999999998
10
106.54803400000006
20
41.889554000000004
10
106.98737300000003
20
42.950215999999983
10
106.98737300000003
20
69.550232999999992
10
105.48737300000001
20
71.050208999999995
10
88.437375000000031
20
71.050208999999995
10
88.08381700000001
20
71.196658999999997
10
87.937373000000008
20
71.550219000000013
10
87.937373000000008
20
96.741013000000024
10
88.122720000000001
20
97.129574000000005
10
88.541330000000031
20
97.230069000000015
10
104.72595800000001
20
93.789929999999998
10
105.85478600000002
20
93.999144999999999
10
106.505048
20
94.945286000000024
10
112.031339
20
120.94446099999999
10
111.23062300000001
20
122.60011799999999
10
110.96371900000001
20
123.15198600000002
10
123.50168000000004
20
182.13845900000007
10
122.346327
20
183.91754299999999
10
105.65912800000001
20
187.46452099999999
10
104.53030200000001
20
187.255304
10
103.88004000000002
20
186.30916500000001
10
102.36136600000002
20
179.16438300000007
10
102.14461400000003
20
178.84899700000005
10
101.76833500000001
20
178.779256
10
85.089128000000031
20
182.32454000000001
10
83.960301999999999
20
182.11532299999999
10
83.310040999999998
20
181.169184
10
81.746926999999999
20
173.81530200000003
10
81.153898000000012
20
173.43020100000001
10
64.479129
20
176.97453300000004
10
63.350301999999999
20
176.76531699999995
10
62.700038999999997
20
175.81917700000002
10
62.125385000000009
20
173.11563800000002
10
61.532356000000021
20
172.73053700000003
10
44.862058000000012
20
176.27391600000007
10
44.476939000000002
20
176.86692700000006
10
46.041682000000002
20
184.228455
10
45.832475000000002
20
185.35729599999996
10
44.886326000000018
20
186.007566
10
28.199129000000006
20
189.55451800000003
10
26.42003900000001
20
188.39918800000004
10
10.171286000000002
20
111.95479300000002
10
9.7835020000000004
20
111.56910900000001
10
8.5873740000000005
20
110.10022200000002
10
8.5873740000000005
20
93.040232999999986
10
9.0267120000000016
20
91.979570999999993
10
10.087372999999999
20
91.540230000000022
10
10.227375
20
91.540230000000008
10
10.580931
20
91.393779999999992
10
10.727374000000001
20
91.040221000000017
10
10.727374000000001
20
55.350231000000008
10
11.166713000000001
20
54.289570000000012
10
12.227373000000004
20
53.850229000000027
0
LWPOLYLINE
5
110
100
AcDbEntity
8
0
100
AcDbPolyline
90
6
70
1
43
0.0
10
6.0873730000000004
20
359.77521100000001
10
7.4946690000000018
20
360.58771300000012
10
7.494669
20
362.21271800000005
10
6.0873730000000004
20
363.0252200000001
10
4.680078
20
362.21271800000005
10
4.680078
20
360.58771300000001
0
LWPOLYLINE
5
111
100
AcDbEntity
8
0
100
AcDbPolyline
90
8
70
1
43
0.0
10
5.0873729999999995
20
366.40021899999999
10
127.33737300000001
20
366.40021899999999
10
131.33737300000001
20
362.40022099999999
10
131.33737300000001
20
21.600218999999999
10
127.337373
20
17.600222000000016
10
5.0873730000000004
20
17.600221999999999
10
1.0873730000000004
20
21.600218999999967
10
1.0873729999999999
20
362.40022099999999
0
ENDSEC
0
SECTION
2
OBJECTS
0
DICTIONARY
5
C
100
AcDbDictionary
3
ACAD_GROUP
350
D
3
ACAD_MLINESTYLE
350
17
0
DICTIONARY
5
D
100
AcDbDictionary
0
DICTIONARY
5
1A
330
C
100
AcDbDictionary
0
DICTIONARY
5
17
100
AcDbDictionary
0
ENDSEC
0
EOF
